<svg xmlns="http://www.w3.org/2000/svg" xmlns:xlink="http://www.w3.org/1999/xlink" viewBox="0 0 554.39 580.33"><defs><style>.cls-1{fill:none;}.cls-2,.cls-82,.cls-83{isolation:isolate;}.cls-3{clip-path:url(#clip-path);}.cls-4{fill:#072e78;}.cls-5{clip-path:url(#clip-path-2);}.cls-6{clip-path:url(#clip-path-3);}.cls-7{clip-path:url(#clip-path-4);}.cls-8{fill:#0c50d0;}.cls-9{clip-path:url(#clip-path-5);}.cls-10{fill:#f2f2f2;}.cls-11{fill:#0c50d1;}.cls-12{clip-path:url(#clip-path-6);}.cls-13{fill:#f4f4f4;}.cls-14{clip-path:url(#clip-path-7);}.cls-15{fill:#8c8c8c;}.cls-16{clip-path:url(#clip-path-8);}.cls-17{clip-path:url(#clip-path-9);}.cls-18{clip-path:url(#clip-path-10);}.cls-19{clip-path:url(#clip-path-11);}.cls-20{clip-path:url(#clip-path-12);}.cls-21{clip-path:url(#clip-path-13);}.cls-22{clip-path:url(#clip-path-14);}.cls-23{fill:#083283;}.cls-24{fill:#08378e;}.cls-25{fill:#093b99;}.cls-26{fill:#0a3fa4;}.cls-27{fill:#0a43af;}.cls-28{fill:#0b47ba;}.cls-29{fill:#0c4cc5;}.cls-30{clip-path:url(#clip-path-15);}.cls-31{clip-path:url(#clip-path-16);}.cls-32{clip-path:url(#clip-path-17);}.cls-33{clip-path:url(#clip-path-18);}.cls-34{clip-path:url(#clip-path-19);}.cls-35{clip-path:url(#clip-path-20);}.cls-36{fill:#e6e6e6;}.cls-37{fill:#fff;}.cls-38{fill:#d9d9d9;}.cls-39{fill:#ccc;}.cls-40{fill:#bfbfbf;}.cls-41{clip-path:url(#clip-path-21);}.cls-42{clip-path:url(#clip-path-22);}.cls-43{clip-path:url(#clip-path-23);}.cls-44{clip-path:url(#clip-path-24);}.cls-45{clip-path:url(#clip-path-25);}.cls-46{clip-path:url(#clip-path-26);}.cls-47{clip-path:url(#clip-path-27);}.cls-48{clip-path:url(#clip-path-28);}.cls-49{clip-path:url(#clip-path-29);}.cls-50{clip-path:url(#clip-path-30);}.cls-51{clip-path:url(#clip-path-31);}.cls-52{fill:#999;}.cls-53{fill:#a6a6a6;}.cls-54{fill:#b3b3b3;}.cls-55{clip-path:url(#clip-path-32);}.cls-56{clip-path:url(#clip-path-33);}.cls-57{clip-path:url(#clip-path-34);}.cls-58{clip-path:url(#clip-path-35);}.cls-59{clip-path:url(#clip-path-36);}.cls-60{fill:#0d54db;}.cls-61{clip-path:url(#clip-path-37);}.cls-62{clip-path:url(#clip-path-38);}.cls-63{clip-path:url(#clip-path-39);}.cls-64{clip-path:url(#clip-path-40);}.cls-65{clip-path:url(#clip-path-41);}.cls-66{clip-path:url(#clip-path-42);}.cls-67{clip-path:url(#clip-path-43);}.cls-68{clip-path:url(#clip-path-44);}.cls-69{clip-path:url(#clip-path-45);}.cls-70{clip-path:url(#clip-path-46);}.cls-71{clip-path:url(#clip-path-47);}.cls-72{clip-path:url(#clip-path-48);}.cls-73{clip-path:url(#clip-path-49);}.cls-74{clip-path:url(#clip-path-50);}.cls-75{clip-path:url(#clip-path-51);}.cls-76{clip-path:url(#clip-path-52);}.cls-77{clip-path:url(#clip-path-53);}.cls-78{clip-path:url(#clip-path-54);}.cls-79{clip-path:url(#clip-path-55);}.cls-80{fill:#e5e5e5;}.cls-81{fill:#d4b830;}.cls-82,.cls-83{fill:#ebebeb;opacity:0.99;}.cls-82{fill-opacity:0;}.cls-83{fill-opacity:0.92;}.cls-84{fill:#fdd83c;}.cls-85{fill:url(#linear-gradient);}</style><clipPath id="clip-path"><path class="cls-1" d="M372.44,434.51a934.41,934.41,0,0,0-113.9-3.84c-26.12.68-47.41,2.45-53.32,3-9.58.85-29.53,2.63-54.65,6.64-20.08,3.21-35.41,6.67-44.73,9-9.7,2.44-16.08,4.36-18.37,5.07-5.78,1.79-6.55,2-11.75,3.82-2.33.8-5.43,1.94-7.73,2.84s-5.24,2.09-7.46,3.05-5,2.17-7,3.2-4.53,2.22-6.42,3.28c-3.87,2.17-4.68,2.62-8.27,4.94-1.4.91-3.22,2.19-4.54,3.2-1.72,1.34-3,2.3-5.07,4.23a45.9,45.9,0,0,0-6.6,7.44c16.1-21.84,67.2-41.38,144.92-51.83,133.17-17.91,294.07-2.35,359.37,34.75l-.63-.88c-1.77-1-4.14-2.27-5.94-3.19-2-1-4.75-2.33-6.82-3.25-5.2-2.34-10-4.25-15.89-6.41a361.34,361.34,0,0,0-36.15-10.69c-3.35-.82-11.26-2.67-19.65-4.34-5.21-1-12.49-2.43-22.56-4.06C404.5,438.09,388.74,436.08,372.44,434.51Z"/></clipPath><clipPath id="clip-path-2"><path class="cls-1" d="M549,491.36l-.68-.93a42.14,42.14,0,0,0-4.06-4.75,61.63,61.63,0,0,0-5.16-4.66c-1.17-.95-3.18-2.5-6.11-4.46-2.62-1.76-4.82-3-6.76-4.15l.63.88C537.24,479.17,544.57,485.24,549,491.36Z"/></clipPath><clipPath id="clip-path-3"><path class="cls-1" d="M32.31,480.24a49.82,49.82,0,0,0-9,9.2L69.46,426.8c13.25-17.95,55.27-34,119.19-42.62,109.52-14.72,241.85-1.93,295.55,28.58l42.07,59.65c-1.77-1-4.15-2.25-5.94-3.19-1-.51-2.31-1.15-3.31-1.62-3.7-1.76-7.44-3.4-11.12-4.88-11.38-4.56-20.65-7.33-26.19-9-5.72-1.71-16.39-4.58-27.61-7-13.92-3.06-23.85-4.75-32.84-6.23-1.27-.21-8.09-1.31-17.84-2.63-7.86-1.06-14.26-1.78-17.7-2.17-10.53-1.18-24-2.38-35-3.13C334.81,431.6,323,431,309,430.66c-14.49-.39-29.28-.38-38.3-.23-5.79.09-21.16.33-38.46,1.31-6.32.36-21.12,1.2-40.18,3.15a653,653,0,0,0-70.32,10.74c-1.7.35-7.86,1.67-15.92,3.67-6.49,1.62-11.28,3-14.14,3.81C88,454.18,78.17,457.09,68,461a174.56,174.56,0,0,0-20.9,9.53c-1.86,1-4.81,2.67-8.27,4.94C35.58,477.63,33.21,479.53,32.31,480.24Z"/></clipPath><clipPath id="clip-path-4"><path class="cls-1" d="M441.12,484.83l-135.2,22c-5.46-3.1-18.91-4.4-30.05-2.9s-15.73,5.22-10.27,8.33,18.91,4.4,30,2.9,15.74-5.22,10.28-8.33l135.2-22c42.07,23.9,6.62,52.63-79.18,64.17s-189.46,1.51-231.53-22.39-6.62-52.63,79.18-64.17S399.05,460.92,441.12,484.83Z"/></clipPath><clipPath id="clip-path-5"><path class="cls-1" d="M306.2,505.85c-5.54-3.15-19.17-4.46-30.46-3s-15.95,5.3-10.42,8.45,19.17,4.46,30.46,2.94,16-5.3,10.42-8.44l134.9-22c42.07,23.9,6.63,52.63-79.16,64.16s-189.44,1.52-231.51-22.38S123.81,473,209.6,461.48,399,460,441.1,483.87Z"/></clipPath><clipPath id="clip-path-6"><path class="cls-1" d="M441.1,483.87l-134.9,22c-5.54-3.15-19.17-4.46-30.46-3s-15.95,5.3-10.42,8.45,19.17,4.46,30.46,2.94,16-5.3,10.42-8.44l134.9-22c42.07,23.9,6.63,52.63-79.16,64.16s-189.44,1.52-231.51-22.38S123.81,473,209.6,461.48,399,460,441.1,483.87Z"/></clipPath><clipPath id="clip-path-7"><path class="cls-1" d="M53.54,450.1a50,50,0,0,1,9.55-9.21,95.82,95.82,0,0,1,13.59-8.38c1.26-.65,4.22-2.16,8.5-4,4.12-1.81,7.78-3.21,9.6-3.89,2.64-1,10.69-4,22.84-7.36A459.93,459.93,0,0,1,172,406c20.42-3.06,42.1-5.26,64.44-6.54,23.78-1.38,47.36-1.71,72.09-1,16.16.45,41.25,1.67,69,4.94a549.58,549.58,0,0,1,60.94,10.4c18.44,4.33,34.35,9.39,47.26,15A137,137,0,0,1,499,435.39c-1.48-.22-3.46-.49-4.95-.6a42.41,42.41,0,0,0-4.65-.07,24.45,24.45,0,0,0-8.15,1.67,30.06,30.06,0,0,0-5.78,3.17c-2.09,1.45-2.7,1.93-6.89,5.19-1.86,1.45-4.37,3.36-6.25,4.78-78.52-19.38-194.07-24.9-293.92-11.47C91.24,448.43,40.51,467.82,24.5,489.49l26.67-36.18C52,452.24,52.74,451.16,53.54,450.1Z"/></clipPath><clipPath id="clip-path-8"><path class="cls-1" d="M502.41,427.62c13.79,18.84,32.17,44,45.95,62.81a42.14,42.14,0,0,0-4.06-4.75,61.63,61.63,0,0,0-5.16-4.66c-1.17-.95-3.18-2.5-6.11-4.46-2.62-1.76-4.82-3-6.76-4.15L484.2,412.76C492.71,417.6,498.73,422.59,502.41,427.62Z"/></clipPath><clipPath id="clip-path-9"><path class="cls-1" d="M515.69,447.93a38.41,38.41,0,0,1,2.78,3.34l1.27,1.74q13.72,18.74,27.43,37.49c-4.44-6.08-11.71-12.1-22-17.94L499,435.39C503.57,438,510.31,442.19,515.69,447.93Z"/></clipPath><clipPath id="clip-path-10"><path class="cls-1" d="M473.6,424c-18.26-6.59-38-11.08-51.25-13.68a631.9,631.9,0,0,0-64.91-9c-22.45-2-46.78-3.13-70.35-3.2-24-.08-47.73.85-70.56,2.75C191.22,403,171.25,406,159,408.1a410.27,410.27,0,0,0-48.63,11.24c-9.67,2.92-23.72,7.76-35.72,14.26-9.6,5.21-16.69,10.76-21.07,16.5,10.71-14.47,16.84-22.56,18.86-25.22,15.45-16.73,56.21-31.49,116.48-39.6,109.26-14.69,241.27-1.93,294.85,28.51L499,435.39A159.82,159.82,0,0,0,473.6,424Z"/></clipPath><clipPath id="clip-path-11"><path class="cls-1" d="M499.49,425.69c6.9,9.2,12.37,16.57,18.87,25.42a61.93,61.93,0,0,0-9.13-9.8,23,23,0,0,0-8.23-5.09c-1.86-.74-2-.83-2-.83-4.84-6.28-10.66-15.12-15.23-21.6C490.56,417.68,495.79,421.66,499.49,425.69Z"/></clipPath><clipPath id="clip-path-12"><path class="cls-1" d="M501.89,428.61l45.28,61.88c-4.45-6.07-11.72-12.09-22-17.93l-41.46-58.77C492.21,418.61,498.22,423.59,501.89,428.61Z"/></clipPath><clipPath id="clip-path-13"><path class="cls-1" d="M53.26,450.48,70,427.8l0,0h0Q61.62,439.14,53.26,450.48Z"/></clipPath><clipPath id="clip-path-14"><path class="cls-1" d="M18.26,508.47a24.68,24.68,0,0,0,2.59,7,37.13,37.13,0,0,0,5.53,7.49,57.77,57.77,0,0,0,6.08,5.6c1.42,1.11,3.33,2.56,4.82,3.58s3.66,2.4,5.25,3.39a158.93,158.93,0,0,0,23.1,11.28,293.29,293.29,0,0,0,30.8,10.3c16.81,4.73,32.72,7.79,38.7,8.95,6.9,1.33,21.39,3.93,40.94,6.41A885.92,885.92,0,0,0,269.19,579c24.27.49,43.77-.14,50.18-.35,22.27-.72,40.2-2.22,46.94-2.79,5.07-.42,23.17-2,43.06-4.88,14.64-2.11,28.24-4.49,40.4-7.1,8.76-1.87,14.4-3.28,15.93-3.67,3.67-.94,11.31-2.88,18.37-5.06,3.23-1,9.26-2.87,15.62-5.22,5.72-2.12,9.9-3.82,14.89-6.08a122.25,122.25,0,0,0,20.5-11.46c2.8-2,9.36-6.74,13.86-13.29,4.89-7.13,4.78-12.61,4.74-14.68a20.25,20.25,0,0,0-.4-3.38,23.76,23.76,0,0,0-1.11-3.78,30.28,30.28,0,0,0-3.81-6.82l.68.93c23.76,32.49-33,66.46-145,81.53-133.17,17.91-294.07,2.35-359.37-34.75-27.19-15.44-33.52-32.19-22-47.77l.68-.93a31.77,31.77,0,0,0-3,4.87,25,25,0,0,0-1.81,4.89A20.66,20.66,0,0,0,18.26,508.47Z"/></clipPath><clipPath id="clip-path-15"><path class="cls-1" d="M24.47,489.52,70,427.81c13.2-17.92,55.13-33.95,118.91-42.53,109.26-14.69,241.27-1.93,294.85,28.51l41.46,58.77c-64.84-36.83-224.59-52.28-356.82-34.5C91.2,448.44,40.45,467.84,24.47,489.52Z"/></clipPath><clipPath id="clip-path-16"><path class="cls-1" d="M518.36,451.11c-.38-.5-.87-1.18-1.24-1.68-.85-1.16-4-5.42-8.52-11.54-4-5.33-6.35-8.51-9.11-12.2a34.87,34.87,0,0,1,2.41,2.93l16.63,22.73Z"/></clipPath><clipPath id="clip-path-17"><path class="cls-1" d="M386.19,450.91l-40.47,6.61a89.18,89.18,0,0,0,14.18-6.23,47.31,47.31,0,0,0,5.62-3.68c.69-.52,1.58-1.26,2.22-1.84s1.28-1.25,1.81-1.8A87.34,87.34,0,0,1,386.19,450.91Z"/></clipPath><clipPath id="clip-path-18"><path class="cls-1" d="M323.24,451.21a22.79,22.79,0,0,1,4.38,1.23c2,.91,2.4,1.11,3.34,2.24a1.58,1.58,0,0,1,.36.76,3.83,3.83,0,0,1-.18,1.43,4.53,4.53,0,0,1-1.67,1.76,11.55,11.55,0,0,1-2.71,1.38c-11.52-5.94-37.54-8.45-59.7-5.77a56.67,56.67,0,0,1,6.83-2.08c1.75-.45,4.12-.9,5.9-1.21a124.86,124.86,0,0,1,14.71-1.54c2.49-.14,5.83-.18,8.33-.15s5.94.21,8.48.37A103,103,0,0,1,323.24,451.21Z"/></clipPath><clipPath id="clip-path-19"><path class="cls-1" d="M216.08,474.66l-30.6,3.24c-22.5-12.79-10.64-27.72,25.61-36.71a39.55,39.55,0,0,0-4,3.16,17,17,0,0,0-2.65,3.26,10.31,10.31,0,0,0-1.2,3.3,9.39,9.39,0,0,0,.27,3.25,9.94,9.94,0,0,0,1.68,3.12,19.27,19.27,0,0,0,3,2.93,32.1,32.1,0,0,0,4.14,2.67c1.48.8,3.54,1.69,5.09,2.36a10.4,10.4,0,0,0-2,2.26,5.86,5.86,0,0,0-.91,2.36,5.23,5.23,0,0,0,.22,2.41,8.62,8.62,0,0,0,.54,1.2C215.49,473.85,215.83,474.32,216.08,474.66Z"/></clipPath><clipPath id="clip-path-20"><path class="cls-1" d="M418.56,423.52l-32.37,27.39C359,435.47,292.06,429,236.64,436.45s-78.32,26-51.15,41.45l-32.28-18.7c-35.92-20.41-5.65-44.95,67.62-54.8S382.63,403.1,418.56,423.52Z"/></clipPath><clipPath id="clip-path-21"><path class="cls-1" d="M267.06,454.24l-1.35.17a9.3,9.3,0,0,1,.18-2.53,9.55,9.55,0,0,1,1.33-2.72,19.4,19.4,0,0,1,2.61-2.82,31.33,31.33,0,0,1,3.95-2.84,63.91,63.91,0,0,1,11.63-5.37c2.15-.8,5.07-1.73,7.27-2.38s5.48-1.49,7.84-2.09c7.75.3,15.37.82,22.72,1.56,1.74.89,4,2.14,5.73,3.13.76.44,1.69,1.16,2.41,1.66a26.08,26.08,0,0,1,3.69,3.44,10.43,10.43,0,0,1,2,3.49,8.08,8.08,0,0,1,.3,3.42,9.39,9.39,0,0,1-2.59,4.74,26.19,26.19,0,0,1-3.38,2.75c-.6.4-1.43.89-2.06,1.23a10.16,10.16,0,0,0-2.23,1.13l-.37-.2a11.91,11.91,0,0,0,2.71-1.38,4.35,4.35,0,0,0,1.67-1.76,4.08,4.08,0,0,0,.18-1.43,2.3,2.3,0,0,0-.36-.76,4.89,4.89,0,0,0-1.81-1.52,21.58,21.58,0,0,0-3.5-1.38c-.71-.23-1.69-.41-2.41-.57-2.3-.53-5.44-.9-7.78-1.19a128.35,128.35,0,0,0-16.84-.75c-2.44.05-5.68.16-8.1.38-4.84.43-5.72.51-10.73,1.3-1.79.28-4.15.76-5.9,1.21A56.67,56.67,0,0,0,267.06,454.24Z"/></clipPath><clipPath id="clip-path-22"><path class="cls-1" d="M327.62,460.48l-.49-.27a43.57,43.57,0,0,0,4.29-2.36,19.08,19.08,0,0,0,3.38-2.75,12.32,12.32,0,0,0,2.1-3.09,7,7,0,0,0,.55-3.34,10.89,10.89,0,0,0-1.15-3.48,17.43,17.43,0,0,0-2.88-3.48c-3.77-3.56-10.14-6.48-10.18-6.49,17.57,1.76,33.6,4.74,46.31,8.75a29.19,29.19,0,0,1-2.87,2.72c-.69.6-1.68,1.31-2.42,1.85a52.74,52.74,0,0,1-6,3.64,93.31,93.31,0,0,1-12.57,5.34Z"/></clipPath><clipPath id="clip-path-23"><path class="cls-1" d="M339.91,495.15c-.48-1.88-2.25-3.77-5.42-5.57l-6.87-29.1c2.72,1.54,4.23,3.16,4.64,4.77l.77,3,.38,1.5.76,3,.77,3,.38,1.49.77,3,.76,3,.38,1.5.77,3,.76,3,.39,1.5Z"/></clipPath><clipPath id="clip-path-24"><path class="cls-1" d="M231.66,495l.78-3,.38-1.49c.24-.9.55-2.09.78-3s.54-2.09.78-3l.38-1.49c.24-.9.55-2.09.78-3l.77-3,.39-1.5c.24-.89.55-2.09.78-3l.77-3,.39-1.5.78-3c1.15-4.44,10.52-8.57,25.93-10.64,23.08-3.11,50.95-.41,62.27,6l6.87,29.1c-13.19-7.5-45.69-10.64-72.59-7C243.93,485,233,489.8,231.66,495Z"/></clipPath><clipPath id="clip-path-25"><path class="cls-1" d="M239.42,465.1c1.15-4.44,10.52-8.57,25.93-10.64,23.08-3.11,50.95-.41,62.27,6l6.87,29.1c-13.19-7.5-45.69-10.64-72.59-7-18,2.42-28.9,7.24-30.24,12.41.23-.9.54-2.09.78-3l.38-1.49c.24-.9.55-2.09.78-3l.78-3,.38-1.49.78-3c.23-.89.54-2.09.78-3l.38-1.5c.24-.89.55-2.09.78-3l.77-3,.39-1.5Z"/></clipPath><clipPath id="clip-path-26"><path class="cls-1" d="M288.8,494.83l1.9-.16c.86,0,2-.07,2.89-.06,1.87,0,4.38.08,6.24.29s4.44.52,6.32.9a39.83,39.83,0,0,1,5.69,1.54,23.58,23.58,0,0,1,4.35,2.1,10.9,10.9,0,0,1,2.44,2.54,4.3,4.3,0,0,1,.11,2.8,3.94,3.94,0,0,1-.87,1.43,16.76,16.76,0,0,1-3.56,2.79c-1.49.25-3,.48-4.64.7-26.9,3.62-59.41.48-72.6-7-4.55-2.59-6.21-5.36-5.32-8,4.55-.52,7.51-.81,13-1.15,3.86-.23,8.88-.37,11.65-.37a194,194,0,0,1,25.39,1.43c-.22.13-.31.25-.27.37l0,.05c.07.12.36.21.64.31s.41.13.43.2-.14.2-.25.25-.45.23-.45.31,0,.21.46.31a12.9,12.9,0,0,0,3.17-.05c.4-.05.78-.15,1-.19a3.21,3.21,0,0,1,.74-.14,4.9,4.9,0,0,1,.5,0,7.39,7.39,0,0,0,1.56,0c.14,0,.81-.27.55-.66A2.22,2.22,0,0,0,288.8,494.83Z"/></clipPath><clipPath id="clip-path-27"><path class="cls-1" d="M288.67,494.8a8.57,8.57,0,0,0-4.3-.42c-1.59.22-2.25.75-1.47,1.2a8.48,8.48,0,0,0,4.3.41c1.59-.21,2.25-.75,1.47-1.19l45.82-5.22c13.2,7.49,2.08,16.5-24.82,20.12s-59.41.47-72.6-7-2.07-16.5,24.83-20.12,59.4-.48,72.59,7Z"/></clipPath><clipPath id="clip-path-28"><path class="cls-1" d="M240.68,464.2c1.12-4.31,10.23-8.34,25.23-10.35,22.45-3,49.57-.4,60.58,5.85l6.85,29.05c-12.88-7.32-44.61-10.39-70.87-6.85-17.55,2.36-28.22,7.06-29.53,12.11.24-.89.55-2.09.78-3l.38-1.49c.24-.9.55-2.09.78-3l.77-3,.39-1.49.77-3,.77-3,.39-1.49.77-3c.24-.89.55-2.08.78-3l.38-1.49C240.14,466.29,240.45,465.09,240.68,464.2Z"/></clipPath><clipPath id="clip-path-29"><path class="cls-1" d="M226.79,460.25a42.6,42.6,0,0,0-5.38,2.34,20.9,20.9,0,0,0-4,2.65c-1.55-.67-3.61-1.56-5.09-2.36a32.1,32.1,0,0,1-4.14-2.67,19.27,19.27,0,0,1-3-2.93,9.94,9.94,0,0,1-1.68-3.12,9.39,9.39,0,0,1-.27-3.25,10.31,10.31,0,0,1,1.2-3.3,17,17,0,0,1,2.65-3.26,39.55,39.55,0,0,1,4-3.16,240.2,240.2,0,0,1,25.55-4.74l6.47,4.05,22.25,13.95L243.11,440.5l-3.53-2.22-.85-.53-.84-.53-.42-.26a3.81,3.81,0,0,0-.81-.51,378.88,378.88,0,0,1,63.86-2.79c-2.36.6-5.51,1.4-7.84,2.09s-5.12,1.58-7.27,2.38a63.91,63.91,0,0,0-11.63,5.37,31.33,31.33,0,0,0-3.95,2.84,19.4,19.4,0,0,0-2.61,2.82,9.55,9.55,0,0,0-1.33,2.72,9.3,9.3,0,0,0-.18,2.53l-.36,0-1.33.18h-.49c-.34-.06-.78-.2-1.11-.27-2.41-.51-5-.8-5.51-.85-2.78-.3-4.17-.35-6.47-.43a65.72,65.72,0,0,0-10.1.49,27.88,27.88,0,0,0-8.71,2.44C227.87,457.88,227.11,459.54,226.79,460.25Z"/></clipPath><clipPath id="clip-path-30"><path class="cls-1" d="M285.79,494.17h0l47.55-5.42c12.88,7.32,2,16.11-24.24,19.64s-58,.47-70.87-6.85-2-16.11,24.24-19.64,58-.47,70.87,6.85Z"/></clipPath><clipPath id="clip-path-31"><path class="cls-1" d="M239.42,465.1c-.57,2.2.88,4.48,4.64,6.61,11.31,6.43,39.19,9.13,62.26,6,17.53-2.35,27.25-7.38,25.94-12.48l.77,3,.38,1.5.76,3,.77,3,.38,1.49.77,3,.76,3,.38,1.5.77,3c.23.9.53,2.1.76,3l.39,1.5.76,3c1.52,5.94-9.8,11.8-30.24,14.55-26.9,3.62-59.41.48-72.6-7-4.38-2.49-6.08-5.14-5.41-7.71l.78-3,.38-1.49c.24-.9.55-2.09.78-3s.54-2.09.78-3l.38-1.49c.24-.9.55-2.09.78-3l.77-3,.39-1.5c.24-.89.55-2.09.78-3l.77-3,.39-1.5Z"/></clipPath><clipPath id="clip-path-32"><path class="cls-1" d="M231.66,495c.23-.9.54-2.09.78-3l.38-1.49c.24-.9.55-2.09.78-3l.78-3,.38-1.49.78-3c.23-.89.54-2.09.78-3l.38-1.5c.24-.89.55-2.09.78-3l.77-3,.39-1.5.78-3c-.57,2.2.88,4.48,4.64,6.61,11.31,6.43,39.19,9.13,62.26,6,17.53-2.35,27.25-7.38,25.94-12.48h0l.77,3,.38,1.5.76,3,.77,3,.38,1.49.77,3,.76,3,.38,1.5.77,3,.76,3,.39,1.5.76,3c1.52,5.94-9.8,11.8-30.24,14.55-26.9,3.62-59.41.47-72.6-7C232.69,500.19,231,497.54,231.66,495Z"/></clipPath><clipPath id="clip-path-33"><path class="cls-1" d="M386.49,478.08c14.38-8.26,15.42-18.24-.3-27.17l32.37-27.39c20.78,11.8,19.41,25,.39,35.91Z"/></clipPath><clipPath id="clip-path-34"><path class="cls-1" d="M419,459.43l-32.46,18.65c14.38-8.26,15.42-18.24-.3-27.17l32.37-27.39C439.34,435.32,438,448.51,419,459.43Z"/></clipPath><clipPath id="clip-path-35"><path class="cls-1" d="M345.73,457.52q20.24-3.28,40.46-6.61c20.39,11.59,12.59,24.93-16,34a16.64,16.64,0,0,0,2.15-3.14,8,8,0,0,0,.66-3.19,8.05,8.05,0,0,0-.9-3.14,14,14,0,0,0-2.44-3,22,22,0,0,0-3.86-2.76,45.92,45.92,0,0,0-5.1-2.45c-1.78-.74-4.23-1.55-6.08-2.09s-4.72-1.22-6.76-1.69a5,5,0,0,0-.16-3A8.8,8.8,0,0,0,345.73,457.52Z"/></clipPath><clipPath id="clip-path-36"><path class="cls-1" d="M386.19,450.91C359,435.47,292.06,429,236.64,436.45s-78.32,26-51.15,41.45l-32.28-18.7c-35.92-20.41-5.65-44.95,67.62-54.8s161.8-1.3,197.73,19.12Z"/></clipPath><clipPath id="clip-path-37"><path class="cls-1" d="M385.91,450c-27.1-15.39-93.87-21.85-149.13-14.42s-78.1,25.94-51,41.33L153.49,458.2c-35.85-20.37-5.64-44.85,67.48-54.68s161.46-1.3,197.31,19.07Z"/></clipPath><clipPath id="clip-path-38"><path class="cls-1" d="M244.06,471.71l.41.23c-1.36.52-3.17,1.23-4.47,1.89a22.47,22.47,0,0,0-3.66,2.25,13.33,13.33,0,0,0-2.51,2.58,6.23,6.23,0,0,0-1.08,2.81,7.64,7.64,0,0,0,.48,3,12,12,0,0,0,2.09,3,23.94,23.94,0,0,0,3.57,2.92c1.37.92,3.33,2,4.8,2.74-18.45-2.12-35-5.6-47.36-10.24a62.35,62.35,0,0,1,10.06-4.93c4.92-1.93,9.69-3.25,9.7-3.25h0l28-3-28,3c-.25-.34-.59-.81-.81-1.19a8.62,8.62,0,0,1-.54-1.2,5.23,5.23,0,0,1-.22-2.41,5.86,5.86,0,0,1,.91-2.36,10.4,10.4,0,0,1,2-2.26,85.7,85.7,0,0,0,14.25,4.16c6.22,1.31,11.67,1.9,11.7,1.9C243.59,471.44,243.82,471.58,244.06,471.71Z"/></clipPath><clipPath id="clip-path-39"><path class="cls-1" d="M304.62,478l1.48-.19a5.35,5.35,0,0,1-1,4.4,15.23,15.23,0,0,1-2.23,2.38,26.88,26.88,0,0,1-3.48,2.4,57.26,57.26,0,0,1-10.5,4.55c-2,.68-4.64,1.47-6.65,2-2.16.59-5.05,1.27-7.22,1.78-10.79-.31-21.35-1.06-31.34-2.2-1.47-.78-3.43-1.82-4.8-2.74a23.94,23.94,0,0,1-3.57-2.92,12,12,0,0,1-2.09-3,7.64,7.64,0,0,1-.48-3,6.23,6.23,0,0,1,1.08-2.81,13.33,13.33,0,0,1,2.51-2.58,32,32,0,0,1,8.13-4.14l.45.24a11.16,11.16,0,0,0-2.71,1.14c-1.37.83-1.64,1.45-1.67,1.52a3.24,3.24,0,0,0-.18,1.27,1.86,1.86,0,0,0,.36.68,4.83,4.83,0,0,0,1.81,1.4,22.64,22.64,0,0,0,3.5,1.31c.71.23,1.68.41,2.41.57,2.3.52,5.44.91,7.78,1.21a134.55,134.55,0,0,0,16.84.9c2.43,0,5.68-.08,8.1-.25,5-.36,5.87-.43,10.73-1.08,1.78-.24,4.15-.66,5.9-1.06A61.77,61.77,0,0,0,304.62,478Z"/></clipPath><clipPath id="clip-path-40"><path class="cls-1" d="M344.51,467.94a12.5,12.5,0,0,0,2.21-2.18,6.37,6.37,0,0,0,1.15-2.28c2,.47,4.76,1.1,6.76,1.69s4.3,1.35,6.08,2.09a45.92,45.92,0,0,1,5.1,2.45,22,22,0,0,1,3.86,2.76,14,14,0,0,1,2.44,3,8.05,8.05,0,0,1,.9,3.14,8,8,0,0,1-.66,3.19,16.64,16.64,0,0,1-2.15,3.14,211,211,0,0,1-35.15,7.43l-6.48-3.28-22.25-11.34,22.25,11.34,3.54,1.8,1.69.86.41.21a4.54,4.54,0,0,0,.82.42,376.9,376.9,0,0,1-60,2.92c2.17-.51,5.06-1.19,7.22-1.78,2-.55,4.68-1.34,6.65-2a57.26,57.26,0,0,0,10.5-4.55,26.88,26.88,0,0,0,3.48-2.4,15.23,15.23,0,0,0,2.23-2.38,5.35,5.35,0,0,0,1-4.4l.22,0,1.24-.17.31,0,.24,0c.12,0,.28.06.39.08,1.08.22,4.13.59,6.17.72a84.68,84.68,0,0,0,8.95.14,68.52,68.52,0,0,0,7.68-.7,44.93,44.93,0,0,0,4.72-1c.05,0,5.24-1.39,7.9-4.17a4.33,4.33,0,0,0,1.18-2.11,3.31,3.31,0,0,0,0-1A3.77,3.77,0,0,0,344.51,467.94Z"/></clipPath><clipPath id="clip-path-41"><path class="cls-1" d="M326.49,459.7c-11-6.25-38.13-8.87-60.58-5.85s-31.72,10.53-20.72,16.78,38.13,8.88,60.58,5.86S337.49,466,326.49,459.7l59.42-9.7c27.1,15.4,4.26,33.9-51,41.33s-122,1-149.13-14.42-4.27-33.9,51-41.33,122-1,149.13,14.42Z"/></clipPath><clipPath id="clip-path-42"><path class="cls-1" d="M70,427.81C60.54,440.59,65.74,454.33,88,467c53.58,30.44,185.59,43.21,294.86,28.51,92-12.36,138.5-40.24,119-66.9l45.28,61.88c23.6,32.27-32.72,66-144,81-132.22,17.78-292,2.33-356.81-34.51-27-15.33-33.28-32-21.88-47.43Z"/></clipPath><clipPath id="clip-path-43"><path class="cls-1" d="M418.56,423.52c-35.93-20.42-124.46-29-197.73-19.12s-103.54,34.39-67.62,54.8,124.46,29,197.73,19.12,103.54-34.39,67.62-54.8l65.17-9.73c53.58,30.44,8.43,67-100.83,81.72S141.62,497.44,88,467s-8.43-67,100.84-81.72,241.27-1.93,294.85,28.51Z"/></clipPath><clipPath id="clip-path-44"><path class="cls-1" d="M386.21,477.09c14.34-8.24,15.37-18.19-.3-27.09l32.37-27.41c20.74,11.79,19.38,24.94.4,35.85Q402.44,467.76,386.21,477.09Z"/></clipPath><clipPath id="clip-path-45"><path class="cls-1" d="M418.68,458.44q-16.24,9.31-32.47,18.65c-10.46,6-28,11.11-51.3,14.24-55.26,7.44-122,1-149.13-14.42L153.49,458.2c35.85,20.37,124.2,28.91,197.32,19.08C381.64,473.14,404.84,466.38,418.68,458.44Z"/></clipPath><clipPath id="clip-path-46"><path class="cls-1" d="M147.26,426.91c-.47.36-.92.72-1.36,1.08C146.34,427.63,146.79,427.27,147.26,426.91Zm19.49-10c-8.19,3.09-14.74,6.47-19.49,10C152,423.34,158.56,420,166.75,416.87Zm-25.81,16.27-.53.78Zm-2.85,8.28c0-.34,0-.67,0-1C138.09,440.75,138.09,441.08,138.09,441.42Zm205.54-37.74q-3.27-.39-6.59-.74Q340.36,403.29,343.63,403.68Zm-122.8.72c11.45-1.54,23.27-2.63,35.21-3.3-11.94.67-23.76,1.76-35.21,3.3-21.34,2.87-39,7-52.5,11.88C181.81,411.38,199.49,407.27,220.83,404.4Zm71.09-4q-5.35-.08-10.74,0Q286.56,400.29,291.92,400.36Zm-17.93.06c2.4-.05,4.79-.08,7.19-.1C278.78,400.34,276.39,400.37,274,400.42ZM256,401.1c6-.33,12-.56,17.95-.68C268,400.54,262,400.77,256,401.1Z"/></clipPath><clipPath id="clip-path-47"><path class="cls-1" d="M337.82,500.48l.32-.31ZM314.32,509h0l.49-.09Zm24-9.05,0,0,0,0ZM334.16,503l.54-.3Zm3-2,.42-.36Zm-.77.6c.22-.16.43-.32.62-.48C336.86,501.3,336.65,501.46,336.43,501.62Zm-.68.46c.17-.11.34-.22.5-.34C336.09,501.86,335.92,502,335.75,502.08Zm-.76.48.47-.29Zm-1.75.95.62-.32Zm-1.18.57.91-.43Zm-1,.43.74-.32Zm-1,.42.66-.26Zm-1.13.43.69-.26Zm-1.24.43.81-.28Zm-1.57.5,1.21-.38Zm-1.28.38,1-.3Zm-1.32.37.84-.24Zm-1.44.36.89-.22Zm-1.48.36,1-.23Zm-2,.43,1.46-.32Zm-1.54.31,1.22-.25Zm-1.6.29c.33-.05.65-.11,1-.18C316.11,508.68,315.79,508.74,315.46,508.79Z"/></clipPath><clipPath id="clip-path-48"><path class="cls-1" d="M240.66,464.33a3.35,3.35,0,0,0-.08.54A3.35,3.35,0,0,1,240.66,464.33Zm.62,3a6.26,6.26,0,0,1-.31-.55A6.26,6.26,0,0,0,241.28,467.31Zm-.63-1.46a3.07,3.07,0,0,0,.22.69A3.07,3.07,0,0,1,240.65,465.85Zm1.36,2.4a7.27,7.27,0,0,1-.59-.73A7.27,7.27,0,0,0,242,468.25Zm1.74,1.46c-.25-.17-.49-.35-.71-.53C243.26,469.36,243.5,469.54,243.75,469.71Zm-1-.74a10,10,0,0,1-.74-.69A10,10,0,0,0,242.78,469Zm2.41,1.66c-.41-.23-.78-.47-1.14-.7C244.41,470.16,244.78,470.4,245.19,470.63Zm78.11,1.66c-.51.21-1,.41-1.59.61C322.26,472.7,322.79,472.5,323.3,472.29Zm-1.76.68c-.61.21-1.25.42-1.91.62C320.29,473.39,320.93,473.18,321.54,473Zm-2.38.77-1.91.54Zm-2.12.6c-.72.19-1.47.37-2.24.54C315.57,474.71,316.32,474.53,317,474.34Zm-2.82.67c-.75.17-1.53.33-2.33.49C312.69,475.34,313.47,475.18,314.22,475Zm-2.44.51c-.83.16-1.7.31-2.59.46C310.08,475.83,310.94,475.68,311.78,475.52Zm-3.25.57c-.9.14-1.81.28-2.76.4C306.72,476.37,307.63,476.23,308.53,476.09Zm18.05-5.38c-.36.21-.75.42-1.16.63C325.83,471.13,326.22,470.92,326.58,470.71Zm-1.39.74c-.48.24-1,.46-1.52.69C324.2,471.91,324.71,471.69,325.19,471.45ZM329,469c-.26.22-.53.45-.83.66C328.49,469.46,328.76,469.23,329,469Zm-1,.8c-.35.24-.73.49-1.14.73C327.29,470.3,327.67,470.05,328,469.81Zm1.93-1.74a8.85,8.85,0,0,1-.74.77A8.85,8.85,0,0,0,330,468.07Zm1.07-3.65a3.72,3.72,0,0,1,.09.81A3.72,3.72,0,0,0,331,464.42Zm.08,1a3.38,3.38,0,0,1-.1.71A3.38,3.38,0,0,0,331.1,465.38Zm-.14.88a4.22,4.22,0,0,1-.33.8A4.22,4.22,0,0,0,331,466.26Zm-.42,1a5.63,5.63,0,0,1-.47.69A5.63,5.63,0,0,0,330.54,467.22Zm-89.91-1.41a3.6,3.6,0,0,1-.06-.73A3.6,3.6,0,0,0,240.63,465.81Z"/></clipPath><clipPath id="clip-path-49"><path class="cls-1" d="M263.69,454.69c-.05,0-.1,0-.15,0s-1.32,0-3.2.09c-8,1.49-13.76,3.6-16.95,6C247.44,458.22,254.38,456.07,263.69,454.69Z"/></clipPath><clipPath id="clip-path-50"><path class="cls-1" d="M396.46,467.44l.1-.24Zm.41-1,0-.11Zm.22-.81c0-.09,0-.19.05-.28C397.12,465.4,397.11,465.5,397.09,465.59Zm.14-.82a2.91,2.91,0,0,0,0-.31A2.91,2.91,0,0,1,397.23,464.77Zm.08-1.14c0,.11,0,.22,0,.32C397.31,463.85,397.31,463.74,397.31,463.63Zm-131.4-9.78c-10.8,1.45-18.53,3.94-22.45,6.83,4.3-2.63,11.8-4.87,21.89-6.22,23.08-3.11,50.95-.41,62.27,6l.75.45a19.18,19.18,0,0,0-1.88-1.23C315.48,453.45,288.36,450.83,265.91,453.85ZM397.16,462c0,.09,0,.19,0,.28C397.19,462.18,397.17,462.08,397.16,462Zm.11.82c0,.1,0,.21,0,.32C397.29,463,397.28,462.91,397.27,462.81ZM397,461.3v0h0Z"/></clipPath><clipPath id="clip-path-51"><path class="cls-1" d="M328.74,469.25l.51-.45.17-.16.37-.38c0-.06.09-.11.13-.16a5.35,5.35,0,0,0,.73-1.07l.08-.16c.06-.14.12-.27.17-.41a.75.75,0,0,0,.05-.16,3.14,3.14,0,0,0,.12-.51s0,0,0,0a3.31,3.31,0,0,0,0-.55c0-.05,0-.1,0-.15a2.87,2.87,0,0,0-.05-.41l0-.17c0-.12-.06-.23-.1-.35l-.09-.27c0-.11-.1-.22-.16-.33s-.09-.18-.14-.27-.14-.22-.21-.33l-.19-.27a4.09,4.09,0,0,0-.28-.33,2.76,2.76,0,0,0-.23-.27l-.35-.34c-.09-.08-.17-.17-.27-.25s-.28-.24-.43-.36l-.3-.23c-.17-.14-.37-.27-.56-.4l-.28-.19-.95-.58,2.25,9.55Z"/></clipPath><clipPath id="clip-path-52"><path class="cls-1" d="M50.7,454.61a28,28,0,0,1,2.56-4.13L70,427.8C60.54,440.59,65.73,454.33,88,467c53.58,30.44,185.59,43.21,294.86,28.51,92-12.36,138.49-40.23,119-66.89,5,6.82,11.65,15.91,16.63,22.73.32.43.57.8.69,1a24.4,24.4,0,0,1,3.3,6.9,18.53,18.53,0,0,1,0,10.28,27.19,27.19,0,0,1-6.08,10.55A61.2,61.2,0,0,1,503.13,491a130.94,130.94,0,0,1-20.67,10.38c-15.77,6.47-35.39,12-58.32,16.54a626.41,626.41,0,0,1-64.52,9C331,529.4,305.5,530,289.11,530c-24.9,0-48.49-.94-72.11-3a641,641,0,0,1-65.43-8.83,372.37,372.37,0,0,1-48-12.21c-7-2.36-13.44-4.83-19.06-7.35a127.5,127.5,0,0,1-15.61-8.21,67.44,67.44,0,0,1-11.42-8.75A34.67,34.67,0,0,1,50.82,473a20.19,20.19,0,0,1-2.39-9.29A19.94,19.94,0,0,1,50.7,454.61Z"/></clipPath><clipPath id="clip-path-53"><path class="cls-1" d="M518.7,451.58a116.94,116.94,0,0,1,6.91,10.92A157.6,157.6,0,0,1,533.05,478c2.26,5.23,5.36,13.18,7.56,19.33,1.06,3,2.46,7,3.44,10,1.16,3.52,2.61,8.25,3.68,11.8-15.2,22.06-66.28,41.87-144.57,52.4-132.22,17.78-292,2.33-356.81-34.51-24.1-13.69-31.69-28.41-24.93-42.41,11-15.51,18.24-25.6,29.58-41l2.26-3a24.52,24.52,0,0,0-4.49,9.71,18.53,18.53,0,0,0,.8,9.93,28.88,28.88,0,0,0,6.08,9.66A60.57,60.57,0,0,0,67,489.2c6.29,4.18,17.74,10.49,36.57,16.78a386.94,386.94,0,0,0,52.9,13.13,662,662,0,0,0,66.26,8.38c23.75,1.86,47.4,2.66,72.29,2.46,16.37-.13,41.86-.87,70.34-3.65A602.51,602.51,0,0,0,429,516.9c22-4.57,37.25-9.45,46.19-12.74a176.49,176.49,0,0,0,18.49-7.89A97.61,97.61,0,0,0,507.57,488a52.82,52.82,0,0,0,9.8-9,27.29,27.29,0,0,0,5-9.06,18.61,18.61,0,0,0,.47-9.16,23.74,23.74,0,0,0-4.36-9.41Z"/></clipPath><clipPath id="clip-path-54"><path class="cls-1" d="M553.28,501a21.27,21.27,0,0,1-1.3,12.5,28.62,28.62,0,0,1-3,5.56c-.8,1.1-1.9,2.55-2.8,3.58a44.27,44.27,0,0,1-3.29,3.42c-1.07,1-2.51,2.26-3.63,3.17s-2.86,2.23-4.14,3.12a107.76,107.76,0,0,1-10.64,6.56c-3.12,1.72-7.81,4-9.86,4.9s-5.06,2.23-7.26,3.13-5.32,2.1-7.63,2.95c-23.24,8.56-49.28,14.14-67,17.31-13.44,2.4-27.12,4.42-40.66,6-11.58,1.36-17.49,1.89-25.68,2.62-4.55.41-14.19,1.15-20.27,1.51-8.15.49-23.32,1.41-45.23,1.72s-40-.26-45-.44c-6.88-.25-25.18-.9-45.26-2.61-4.2-.36-12.93-1.1-22.72-2.2-12.37-1.38-20.68-2.56-23.68-3-4-.59-11.55-1.69-17.7-2.76-3.39-.6-7.92-1.4-11.31-2-3.2-.61-7.47-1.46-10.66-2.14-10.56-2.26-22.38-5-37.23-9.5-2.71-.83-6.3-2-9-2.92s-6-2.14-8.56-3.1c-1.48-.54-5.57-2.11-11.68-4.83-3.66-1.64-8.1-3.88-9.9-4.87s-3.94-2.17-5.59-3.17-3.71-2.32-5.25-3.39a67.08,67.08,0,0,1-9-7.29c-1.08-1.11-2.56-2.56-3.52-3.77-.44-.57-1.07-1.3-1.48-1.89-.75-1.09-1.75-2.55-2.38-3.72-3.16-5.85-3.82-11.56-2-17.46.23-.75.59-1.73.9-2.45s.83-1.72,1.21-2.45a34.17,34.17,0,0,1,2.35-3.64c13.53-19,32.32-43.84,46.17-62.64-9.45,12.82-4.25,26.59,18.12,39.3,53.7,30.51,186,43.3,295.55,28.58,92.17-12.4,138.82-40.33,119.28-67.06l45.95,62.81a31.21,31.21,0,0,1,3.25,5.48A24.26,24.26,0,0,1,553.28,501Z"/></clipPath><clipPath id="clip-path-55"><path class="cls-1" d="M418.28,422.59C382.43,402.22,294.09,393.68,221,403.52s-103.33,34.31-67.48,54.68,124.2,28.91,197.32,19.08S454.14,443,418.28,422.59l65.92-9.83c53.7,30.51,8.45,67.19-101.07,81.92S141.28,496.61,87.58,466.1s-8.46-67.19,101.07-81.92,241.85-1.93,295.55,28.58Z"/></clipPath><linearGradient id="linear-gradient" x1="277" y1="25.33" x2="277" y2="774.83" gradientUnits="userSpaceOnUse"><stop offset="0" stop-color="#0da4db" stop-opacity="0"/><stop offset="0" stop-color="#11a7dc" stop-opacity="0.01"/><stop offset="0.82" stop-color="#81ffff" stop-opacity="0.3"/></linearGradient></defs><title>skill3</title><g id="Layer_2" data-name="Layer 2"><g id="Layer_1-2" data-name="Layer 1"><g class="cls-2"><g class="cls-2"><g class="cls-3"><g class="cls-2"><path class="cls-4" d="M484.2,412.76l42.7,60.53c-65.3-37.1-226.2-52.66-359.37-34.75C89.8,449,38.7,468.54,22.6,490.38l46.86-63.57c13.23-18,55.26-34,119.19-42.63,109.52-14.72,241.85-1.93,295.55,28.58"/></g></g></g><g class="cls-2"><g class="cls-5"><g class="cls-2"><path class="cls-4" d="M502.41,427.61,549,491.34c-4.47-6.11-11.79-12.17-22.13-18l-42.7-60.53c8.5,4.83,14.53,9.82,18.21,14.85"/></g></g></g><g class="cls-2"><g class="cls-6"><g class="cls-2"><path class="cls-4" d="M484.2,412.76l42.7,60.53c-65.3-37.1-226.2-52.66-359.37-34.75C89.8,449,38.7,468.54,22.6,490.38l46.86-63.57c13.23-18,55.26-34,119.19-42.63,109.52-14.72,241.85-1.93,295.55,28.58"/></g></g></g><g class="cls-2"><g class="cls-7"><g class="cls-2"><path class="cls-8" d="M441.12,484.83l-135.2,22c-5.46-3.1-18.91-4.4-30.05-2.9s-15.73,5.22-10.27,8.33,18.91,4.4,30,2.9,15.74-5.22,10.28-8.33l135.2-22c42.07,23.9,6.62,52.63-79.18,64.17s-189.46,1.51-231.53-22.39-6.62-52.63,79.18-64.17,189.46-1.52,231.53,22.39"/></g></g></g><g class="cls-2"><g class="cls-9"><g class="cls-2"><path class="cls-10" d="M306.2,505.85l134.9-22C399,460,295.39,450,209.6,461.48s-121.24,40.27-79.17,64.17S276.15,559.57,361.94,548s121.23-40.26,79.16-64.16l-134.9,22c5.53,3.14.87,6.92-10.42,8.44s-24.92.2-30.46-2.94-.87-6.93,10.42-8.45,24.92-.2,30.46,3"/></g></g></g><path class="cls-11" d="M526.9,473.29c65.3,37.1,10.28,81.7-122.9,99.6s-294.07,2.35-359.37-34.75-10.27-81.69,122.9-99.6S461.6,436.19,526.9,473.29Zm-85.78,11.54c-42.07-23.91-145.73-33.93-231.53-22.39s-121.25,40.27-79.18,64.17S276.14,560.54,361.94,549s121.25-40.27,79.18-64.17"/><g class="cls-2"><g class="cls-12"><g class="cls-2"><path class="cls-8" d="M441.1,483.87l-134.9,22c-5.54-3.15-19.17-4.46-30.46-3s-15.95,5.3-10.42,8.45,19.17,4.46,30.46,2.94,16-5.3,10.42-8.44l134.9-22c42.07,23.9,6.63,52.63-79.16,64.16s-189.44,1.52-231.51-22.38S123.81,473,209.6,461.48,399,460,441.1,483.87"/></g></g></g><path class="cls-13" d="M525.19,472.56c64.83,36.84,10.2,81.12-122,98.9s-292,2.33-356.81-34.51-10.21-81.11,122-98.89S460.35,435.73,525.19,472.56ZM441.1,483.87C399,460,295.39,450,209.6,461.48s-121.24,40.27-79.17,64.17S276.15,559.57,361.94,548s121.23-40.26,79.16-64.16"/><g class="cls-2"><g class="cls-14"><g class="cls-2"><path class="cls-15" d="M525.19,472.56l-41.46-58.77c-53.58-30.44-185.59-43.2-294.85-28.51C125.1,393.86,83.17,409.89,70,427.81l-45.5,61.71c16-21.68,66.73-41.08,143.9-51.46,132.23-17.78,292-2.33,356.82,34.5"/></g></g></g><g class="cls-2"><g class="cls-16"><g class="cls-2"><path class="cls-4" d="M502.41,427.61,549,491.34c-4.47-6.11-11.79-12.17-22.13-18l-42.7-60.53c8.5,4.83,14.53,9.82,18.21,14.85"/></g></g></g><g class="cls-2"><g class="cls-17"><g class="cls-2"><path class="cls-15" d="M547.17,490.49l-45.28-61.88c-3.67-5-9.68-10-18.16-14.82l41.46,58.77c10.26,5.84,17.53,11.86,22,17.93"/></g></g></g><g class="cls-2"><g class="cls-18"><g class="cls-2"><path class="cls-15" d="M525.19,472.56l-41.46-58.77c-53.58-30.44-185.59-43.2-294.85-28.51C125.1,393.86,83.17,409.89,70,427.81l-45.5,61.71c16-21.68,66.73-41.08,143.9-51.46,132.23-17.78,292-2.33,356.82,34.5"/></g></g></g><g class="cls-2"><g class="cls-19"><g class="cls-2"><path class="cls-15" d="M547.17,490.49l-45.28-61.88c-3.67-5-9.68-10-18.16-14.82l41.46,58.77c10.26,5.84,17.53,11.86,22,17.93"/></g></g></g><g class="cls-2"><g class="cls-20"><g class="cls-2"><path class="cls-4" d="M501.89,428.61l45.28,61.88c-4.45-6.07-11.72-12.09-22-17.93l-41.46-58.77c8.48,4.82,14.49,9.8,18.16,14.82"/></g></g></g><g class="cls-2"><g class="cls-21"><g class="cls-2"><path class="cls-15" d="M525.19,472.56l-41.46-58.77c-53.58-30.44-185.59-43.2-294.85-28.51C125.1,393.86,83.17,409.89,70,427.81l-45.5,61.71c16-21.68,66.73-41.08,143.9-51.46,132.23-17.78,292-2.33,356.82,34.5"/></g></g></g><g class="cls-2"><g class="cls-22"><g class="cls-2"><path class="cls-23" d="M69.46,426.81,22.6,490.38a31.32,31.32,0,0,0-3,4.87L67,430.82a26.09,26.09,0,0,1,2.46-4"/><path class="cls-24" d="M67,430.82,19.61,495.25C16,502.5,16.3,510,20.69,517.36L67.88,449c-3.6-6.09-3.82-12.21-.88-18.18"/><path class="cls-25" d="M67.88,449,20.69,517.36c3.67,6.2,10.23,12.37,19.86,18.36L84.22,464.1c-7.92-4.93-13.32-10-16.34-15.1"/><path class="cls-26" d="M84.22,464.1,40.55,535.72q2,1.21,4.08,2.42a191,191,0,0,0,30.54,13.53l37.52-74.45A157.18,157.18,0,0,1,87.58,466.1c-1.17-.66-2.29-1.33-3.36-2"/><path class="cls-27" d="M112.69,477.22,75.17,551.67a395.13,395.13,0,0,0,51.09,13.8l28.45-76.9a322.17,322.17,0,0,1-42-11.35"/><path class="cls-28" d="M154.71,488.57l-28.45,76.9a718.91,718.91,0,0,0,88.5,12.06l12.74-79a590.81,590.81,0,0,1-72.79-9.92"/><path class="cls-29" d="M227.5,498.49l-12.74,79c58,4.53,121.61,3.69,180.39-3.5l-19.3-78.42c-48.35,5.92-100.63,6.6-148.35,2.88"/><path class="cls-28" d="M375.85,495.61,395.15,574q4.46-.54,8.85-1.14c27.54-3.7,51.74-8.54,72.22-14.23L442.52,483a447.06,447.06,0,0,1-59.39,11.71c-2.42.32-4.84.63-7.28.93"/><path class="cls-27" d="M442.52,483l33.7,75.69c17-4.71,31.44-10,43.1-15.71L478,470.05A208.78,208.78,0,0,1,442.52,483"/><path class="cls-26" d="M478,470.05,519.32,543c11-5.38,19.58-11.13,25.47-17.09L498.92,456c-4.85,4.9-11.88,9.63-20.95,14.05"/><path class="cls-25" d="M498.92,456l45.87,69.86c6.08-6.15,9.34-12.52,9.58-19l-47.58-66.5c-.19,5.31-2.87,10.55-7.87,15.61"/><path class="cls-24" d="M506.79,440.39l47.58,66.5c.19-5.16-1.55-10.37-5.34-15.55l-46.62-63.73c3.11,4.25,4.54,8.54,4.38,12.78"/></g></g></g><path class="cls-11" d="M525.19,472.56c64.83,36.84,10.2,81.12-122,98.9s-292,2.33-356.81-34.51-10.21-81.11,122-98.89S460.35,435.73,525.19,472.56ZM441.1,483.87C399,460,295.39,450,209.6,461.48s-121.24,40.27-79.17,64.17S276.15,559.57,361.94,548s121.23-40.26,79.16-64.16"/><g class="cls-2"><g class="cls-30"><g class="cls-2"><path class="cls-4" d="M483.73,413.79l41.46,58.77c-64.84-36.83-224.59-52.28-356.82-34.5C91.2,448.44,40.45,467.84,24.47,489.52L70,427.81c13.2-17.92,55.13-33.95,118.91-42.53,109.26-14.69,241.27-1.93,294.85,28.51"/></g></g></g><g class="cls-2"><g class="cls-31"><g class="cls-2"><path class="cls-15" d="M547.17,490.49l-45.28-61.88c-3.67-5-9.68-10-18.16-14.82l41.46,58.77c10.26,5.84,17.53,11.86,22,17.93"/></g></g></g><g class="cls-2"><g class="cls-32"><g class="cls-2"><path class="cls-10" d="M386.19,450.91l-58.57,9.57c-11.32-6.43-39.19-9.13-62.27-6s-32.6,10.82-21.29,17.25,39.19,9.13,62.26,6,32.61-10.83,21.3-17.25l58.57-9.57c27.17,15.44,4.28,34-51.14,41.45s-122.38,1-149.56-14.46-4.27-34,51.15-41.45,122.37-1,149.55,14.46"/></g></g></g><g class="cls-2"><g class="cls-33"><g class="cls-2"><path class="cls-10" d="M386.19,450.91l-58.57,9.57c-11.32-6.43-39.19-9.13-62.27-6s-32.6,10.82-21.29,17.25,39.19,9.13,62.26,6,32.61-10.83,21.3-17.25l58.57-9.57c27.17,15.44,4.28,34-51.14,41.45s-122.38,1-149.56-14.46-4.27-34,51.15-41.45,122.37-1,149.55,14.46"/></g></g></g><g class="cls-2"><g class="cls-34"><g class="cls-2"><path class="cls-10" d="M386.19,450.91l-58.57,9.57c-11.32-6.43-39.19-9.13-62.27-6s-32.6,10.82-21.29,17.25,39.19,9.13,62.26,6,32.61-10.83,21.3-17.25l58.57-9.57c27.17,15.44,4.28,34-51.14,41.45s-122.38,1-149.56-14.46-4.27-34,51.15-41.45,122.37-1,149.55,14.46"/></g></g></g><g class="cls-2"><g class="cls-35"><g class="cls-2"><path class="cls-36" d="M418.56,423.52l-32.37,27.39a86.54,86.54,0,0,0-16-6.74l27.21-29.56a113.58,113.58,0,0,1,21.17,8.91"/><path class="cls-10" d="M397.39,414.61l-27.21,29.56a201.23,201.23,0,0,0-29.94-6.79l17.56-31.75a264.45,264.45,0,0,1,39.59,9"/><path class="cls-37" d="M357.8,405.63l-17.56,31.75c-30.91-4.82-69.45-5.52-103.6-.93q-10.54,1.43-19.47,3.34l-22.08-31q11.79-2.52,25.74-4.41c45.16-6.07,96.11-5.15,137,1.23"/><path class="cls-10" d="M195.09,408.81l22.08,31a136.83,136.83,0,0,0-25.86,7.89L160.9,419.24c9-3.94,20.45-7.48,34.19-10.43"/><path class="cls-36" d="M160.9,419.24l30.41,28.44c-5.78,2.54-10.18,5.29-13.09,8.17L143.6,430c3.85-3.8,9.67-7.44,17.3-10.8"/><path class="cls-38" d="M143.6,430l34.62,25.81c-2.8,2.77-4.23,5.66-4.16,8.57l-36-23c-.08-3.86,1.8-7.67,5.51-11.34"/><path class="cls-39" d="M138.09,441.38l36,23c.06,3,1.72,6.07,5.08,9.05l-34.33-20.13c-4.44-3.94-6.63-8-6.72-12"/><path class="cls-40" d="M144.81,453.34l34.33,20.13a37,37,0,0,0,6.35,4.43l-32.28-18.7a49.36,49.36,0,0,1-8.4-5.86"/></g></g></g><g class="cls-2"><g class="cls-41"><g class="cls-2"><path class="cls-10" d="M386.19,450.91l-58.57,9.57c-11.32-6.43-39.19-9.13-62.27-6s-32.6,10.82-21.29,17.25,39.19,9.13,62.26,6,32.61-10.83,21.3-17.25l58.57-9.57c27.17,15.44,4.28,34-51.14,41.45s-122.38,1-149.56-14.46-4.27-34,51.15-41.45,122.37-1,149.55,14.46"/></g></g></g><g class="cls-2"><g class="cls-42"><g class="cls-2"><path class="cls-10" d="M386.19,450.91l-58.57,9.57c-11.32-6.43-39.19-9.13-62.27-6s-32.6,10.82-21.29,17.25,39.19,9.13,62.26,6,32.61-10.83,21.3-17.25l58.57-9.57c27.17,15.44,4.28,34-51.14,41.45s-122.38,1-149.56-14.46-4.27-34,51.15-41.45,122.37-1,149.55,14.46"/></g></g></g><g class="cls-2"><g class="cls-43"><g class="cls-2"><path class="cls-4" d="M339.91,495.15l-7.65-29.9c-.41-1.61-1.92-3.23-4.64-4.77l6.87,29.1c3.17,1.8,4.94,3.69,5.42,5.57"/></g></g></g><g class="cls-2"><g class="cls-44"><g class="cls-2"><path class="cls-15" d="M327.62,460.48l6.87,29.1c-13.19-7.5-45.69-10.64-72.59-7-18,2.42-28.9,7.24-30.24,12.41l7.76-29.87c1.15-4.44,10.52-8.57,25.93-10.64,23.08-3.11,50.95-.41,62.27,6"/></g></g></g><g class="cls-2"><g class="cls-45"><g class="cls-2"><path class="cls-4" d="M334.49,489.58l-6.87-29.1c-11.32-6.43-39.19-9.13-62.27-6-15.41,2.07-24.78,6.2-25.93,10.64L231.66,495c1.34-5.17,12.27-10,30.24-12.41,26.9-3.62,59.4-.48,72.59,7"/></g></g></g><g class="cls-2"><g class="cls-46"><g class="cls-2"><path class="cls-10" d="M334.49,489.58l-45.82,5.22a8.57,8.57,0,0,0-4.3-.42c-1.59.22-2.25.75-1.47,1.2a8.48,8.48,0,0,0,4.3.41c1.59-.21,2.25-.75,1.47-1.19l45.82-5.22c13.2,7.49,2.08,16.5-24.82,20.12s-59.41.48-72.6-7-2.07-16.5,24.83-20.12,59.4-.48,72.59,7"/></g></g></g><g class="cls-2"><g class="cls-47"><g class="cls-2"><path class="cls-8" d="M288.67,494.8l45.82-5.22c-13.19-7.5-45.69-10.64-72.59-7s-38,12.63-24.83,20.12,45.7,10.64,72.6,7,38-12.63,24.82-20.12l-45.82,5.22c.78.44.12,1-1.47,1.19a8.48,8.48,0,0,1-4.3-.41c-.78-.45-.12-1,1.47-1.2a8.57,8.57,0,0,1,4.3.42"/></g></g></g><g class="cls-2"><g class="cls-48"><g class="cls-2"><path class="cls-4" d="M333.34,488.75l-6.85-29.05c-11-6.25-38.13-8.87-60.58-5.85-15,2-24.11,6-25.23,10.35L232.94,494c1.31-5.05,12-9.75,29.53-12.11,26.26-3.54,58-.47,70.87,6.85"/></g></g></g><g class="cls-2"><g class="cls-49"><g class="cls-2"><path class="cls-10" d="M386.19,450.91l-58.57,9.57c-11.32-6.43-39.19-9.13-62.27-6s-32.6,10.82-21.29,17.25,39.19,9.13,62.26,6,32.61-10.83,21.3-17.25l58.57-9.57c27.17,15.44,4.28,34-51.14,41.45s-122.38,1-149.56-14.46-4.27-34,51.15-41.45,122.37-1,149.55,14.46"/></g></g></g><g class="cls-2"><g class="cls-50"><g class="cls-2"><path class="cls-8" d="M285.79,494.17l47.55-5.42c-12.88-7.32-44.61-10.39-70.87-6.85s-37.12,12.32-24.24,19.64,44.61,10.38,70.87,6.85,37.12-12.32,24.24-19.64l-47.55,5.42h0"/></g></g></g><g class="cls-2"><g class="cls-51"><g class="cls-2"><path class="cls-15" d="M239.42,465.1,231.66,495c-.5,1.93.34,3.91,2.65,5.83l7.38-30.7c-2-1.65-2.7-3.35-2.27-5"/><path class="cls-52" d="M241.69,470.1l-7.38,30.7a18.88,18.88,0,0,0,2.76,1.88,40.23,40.23,0,0,0,6.75,2.94l6-31.39a34.38,34.38,0,0,1-5.79-2.52,15.72,15.72,0,0,1-2.37-1.61"/><path class="cls-53" d="M249.85,474.23l-6,31.39a93,93,0,0,0,14.73,3.5l3.93-31.89a79.43,79.43,0,0,1-12.63-3"/><path class="cls-54" d="M262.48,477.23l-3.93,31.89a184.21,184.21,0,0,0,51.12.58c3.71-.5,7.12-1.1,10.2-1.79l-4.79-31.71q-4,.89-8.76,1.53a157.84,157.84,0,0,1-43.84-.5"/><path class="cls-53" d="M315.08,476.2l4.79,31.71a62.17,62.17,0,0,0,12.63-4l-6.6-31.14a52.92,52.92,0,0,1-10.82,3.46"/><path class="cls-52" d="M325.9,472.74l6.6,31.14c3.35-1.58,5.64-3.31,6.76-5.12l-7.55-30.41c-1,1.55-2.93,3-5.81,4.39"/><path class="cls-15" d="M331.71,468.35l7.55,30.41a4.5,4.5,0,0,0,.65-3.61l-7.65-29.9a3.86,3.86,0,0,1-.55,3.1"/></g></g></g><g class="cls-2"><g class="cls-55"><g class="cls-2"><path class="cls-4" d="M231.66,495l7.76-29.87c-.43,1.65.29,3.35,2.27,5l-7.38,30.7c-2.31-1.92-3.15-3.9-2.65-5.83"/><path class="cls-23" d="M234.31,500.8l7.38-30.7a15.72,15.72,0,0,0,2.37,1.61,34.38,34.38,0,0,0,5.79,2.52l-6,31.39a40.23,40.23,0,0,1-6.75-2.94,18.88,18.88,0,0,1-2.76-1.88"/><path class="cls-24" d="M243.82,505.62l6-31.39a79.43,79.43,0,0,0,12.63,3l-3.93,31.89a93,93,0,0,1-14.73-3.5"/><path class="cls-25" d="M258.55,509.12l3.93-31.89a157.84,157.84,0,0,0,43.84.5q4.79-.64,8.76-1.53l4.79,31.71c-3.08.69-6.49,1.29-10.2,1.79a184.21,184.21,0,0,1-51.12-.58"/><path class="cls-24" d="M319.87,507.91l-4.79-31.71a52.92,52.92,0,0,0,10.82-3.46l6.6,31.14a62.17,62.17,0,0,1-12.63,4"/><path class="cls-23" d="M332.5,503.88l-6.6-31.14c2.88-1.35,4.85-2.84,5.81-4.39l7.55,30.41c-1.12,1.81-3.41,3.54-6.76,5.12"/><path class="cls-4" d="M339.26,498.76l-7.55-30.41a3.9,3.9,0,0,0,.55-3.1l7.65,29.9a4.5,4.5,0,0,1-.65,3.61"/></g></g></g><g class="cls-2"><g class="cls-56"><g class="cls-2"><path class="cls-26" d="M386.49,478.08,419,459.43c6.42-3.68,10.83-7.63,13.05-11.7l-35.64,21.5c-1.68,3.08-5,6.06-9.87,8.85"/><path class="cls-27" d="M396.36,469.23,432,447.73a12.09,12.09,0,0,0,.09-12.13l-35.66,24.45a9.15,9.15,0,0,1-.07,9.18"/><path class="cls-28" d="M396.43,460.05l35.66-24.45c-2-3.71-5.82-7.4-11.65-11l-32.83,27.12c4.42,2.71,7.32,5.5,8.82,8.3"/><path class="cls-29" d="M387.61,451.75l32.83-27.12-1.88-1.11-32.37,27.39,1.42.84"/></g></g></g><g class="cls-2"><g class="cls-57"><g class="cls-2"><path class="cls-40" d="M419,459.43l-32.46,18.65c4.85-2.79,8.19-5.77,9.87-8.85L432,447.74c-2.22,4.06-6.63,8-13.05,11.69"/><path class="cls-39" d="M432,447.74l-35.64,21.49a9.15,9.15,0,0,0,.07-9.18l35.66-24.45a12.11,12.11,0,0,1-.09,12.14"/><path class="cls-38" d="M432.09,435.6l-35.66,24.45c-1.5-2.8-4.4-5.59-8.82-8.3l32.83-27.12c5.83,3.57,9.68,7.26,11.65,11"/><path class="cls-36" d="M420.44,424.63l-32.83,27.12-1.42-.84,32.37-27.39,1.88,1.11"/></g></g></g><g class="cls-2"><g class="cls-58"><g class="cls-2"><path class="cls-10" d="M386.19,450.91l-58.57,9.57c-11.32-6.43-39.19-9.13-62.27-6s-32.6,10.82-21.29,17.25,39.19,9.13,62.26,6,32.61-10.83,21.3-17.25l58.57-9.57c27.17,15.44,4.28,34-51.14,41.45s-122.38,1-149.56-14.46-4.27-34,51.15-41.45,122.37-1,149.55,14.46"/></g></g></g><g class="cls-2"><g class="cls-59"><g class="cls-2"><path class="cls-29" d="M386.19,450.91l32.37-27.39a113.58,113.58,0,0,0-21.17-8.91l-27.21,29.56a86.54,86.54,0,0,1,16,6.74"/><path class="cls-8" d="M370.18,444.17l27.21-29.56a264.45,264.45,0,0,0-39.59-9l-17.56,31.75a201.23,201.23,0,0,1,29.94,6.79"/><path class="cls-60" d="M340.24,437.38l17.56-31.75c-40.86-6.38-91.81-7.3-137-1.23q-13.94,1.88-25.74,4.41l22.08,31q8.91-1.91,19.47-3.34c34.15-4.59,72.69-3.89,103.6.93"/><path class="cls-8" d="M217.17,439.79l-22.08-31c-13.74,2.95-25.22,6.49-34.19,10.43l30.41,28.44a136.83,136.83,0,0,1,25.86-7.89"/><path class="cls-29" d="M191.31,447.68,160.9,419.24c-7.63,3.36-13.45,7-17.3,10.8l34.62,25.81c2.91-2.88,7.31-5.63,13.09-8.17"/><path class="cls-28" d="M178.22,455.85,143.6,430c-3.71,3.67-5.59,7.48-5.51,11.34l36,23c-.07-2.91,1.36-5.8,4.16-8.57"/><path class="cls-27" d="M174.06,464.42l-36-23c.09,4,2.28,8,6.72,12l34.33,20.13c-3.36-3-5-6-5.08-9.05"/><path class="cls-26" d="M179.14,473.47l-34.33-20.13a49.36,49.36,0,0,0,8.4,5.86l32.28,18.7a37,37,0,0,1-6.35-4.43"/></g></g></g><g class="cls-2"><g class="cls-61"><g class="cls-2"><path class="cls-29" d="M385.91,450l32.37-27.41a113.54,113.54,0,0,0-21.13-8.89l-27.21,29.58a85.73,85.73,0,0,1,16,6.72"/><path class="cls-8" d="M369.94,443.28l27.21-29.58a264.92,264.92,0,0,0-39.51-9l-17.57,31.77a199.08,199.08,0,0,1,29.87,6.77"/><path class="cls-60" d="M340.07,436.51l17.57-31.77c-40.77-6.37-91.61-7.28-136.67-1.22q-13.9,1.86-25.68,4.4l22.08,31c5.92-1.27,12.41-2.39,19.41-3.33,34-4.58,72.48-3.88,103.29.93"/><path class="cls-8" d="M217.37,438.91l-22.08-31c-13.71,2.93-25.17,6.47-34.12,10.4l30.41,28.45a136.59,136.59,0,0,1,25.79-7.86"/><path class="cls-29" d="M191.58,446.77l-30.41-28.45c-7.62,3.35-13.43,7-17.27,10.78l34.63,25.82c2.9-2.87,7.29-5.62,13.05-8.15"/><path class="cls-28" d="M178.53,454.92,143.9,429.1c-3.7,3.66-5.58,7.47-5.5,11.31l36,23.06c-.06-2.91,1.36-5.79,4.16-8.55"/><path class="cls-27" d="M174.37,463.47l-36-23.06c.08,4,2.27,8,6.7,11.94l34.34,20.14c-3.35-3-5-6-5.07-9"/><path class="cls-26" d="M179.44,472.49,145.1,452.35a48.84,48.84,0,0,0,8.39,5.85l32.29,18.71a36.91,36.91,0,0,1-6.34-4.42"/></g></g></g><g class="cls-2"><g class="cls-62"><g class="cls-2"><path class="cls-10" d="M386.19,450.91l-58.57,9.57c-11.32-6.43-39.19-9.13-62.27-6s-32.6,10.82-21.29,17.25,39.19,9.13,62.26,6,32.61-10.83,21.3-17.25l58.57-9.57c27.17,15.44,4.28,34-51.14,41.45s-122.38,1-149.56-14.46-4.27-34,51.15-41.45,122.37-1,149.55,14.46"/></g></g></g><g class="cls-2"><g class="cls-63"><g class="cls-2"><path class="cls-10" d="M386.19,450.91l-58.57,9.57c-11.32-6.43-39.19-9.13-62.27-6s-32.6,10.82-21.29,17.25,39.19,9.13,62.26,6,32.61-10.83,21.3-17.25l58.57-9.57c27.17,15.44,4.28,34-51.14,41.45s-122.38,1-149.56-14.46-4.27-34,51.15-41.45,122.37-1,149.55,14.46"/></g></g></g><g class="cls-2"><g class="cls-64"><g class="cls-2"><path class="cls-10" d="M386.19,450.91l-58.57,9.57c-11.32-6.43-39.19-9.13-62.27-6s-32.6,10.82-21.29,17.25,39.19,9.13,62.26,6,32.61-10.83,21.3-17.25l58.57-9.57c27.17,15.44,4.28,34-51.14,41.45s-122.38,1-149.56-14.46-4.27-34,51.15-41.45,122.37-1,149.55,14.46"/></g></g></g><g class="cls-2"><g class="cls-65"><g class="cls-2"><path class="cls-8" d="M326.49,459.7l59.42-9.7c-27.1-15.39-93.87-21.85-149.13-14.42s-78.1,25.94-51,41.33,93.87,21.86,149.13,14.42,78.1-25.93,51-41.33l-59.42,9.7c11,6.26,1.73,13.77-20.72,16.79s-49.57.4-60.58-5.86-1.73-13.77,20.72-16.78,49.57-.4,60.58,5.85"/></g></g></g><g class="cls-2"><g class="cls-66"><g class="cls-2"><path class="cls-23" d="M70,427.81l-45.5,61.71a32.19,32.19,0,0,0-3,4.84l46-62.56a25.93,25.93,0,0,1,2.46-4"/><path class="cls-24" d="M67.51,431.8l-46,62.56c-3.54,7.2-3.28,14.6,1.07,21.95L68.4,450c-3.6-6.08-3.81-12.19-.89-18.15"/><path class="cls-25" d="M68.4,450,22.57,516.31c3.65,6.16,10.16,12.28,19.73,18.24L84.69,465c-7.9-4.92-13.28-10-16.29-15.06"/><path class="cls-26" d="M84.69,465,42.3,534.55q1.94,1.2,4.05,2.4a189.36,189.36,0,0,0,30.31,13.43L113.1,478.1A157,157,0,0,1,88,467c-1.16-.66-2.27-1.32-3.35-2"/><path class="cls-27" d="M113.1,478.1,76.66,550.38a390.39,390.39,0,0,0,50.73,13.71L155,489.43A324,324,0,0,1,113.1,478.1"/><path class="cls-28" d="M155,489.43l-27.62,74.66a715.54,715.54,0,0,0,87.87,12l12.36-76.74A592.31,592.31,0,0,1,155,489.43"/><path class="cls-29" d="M227.62,499.32l-12.36,76.74c57.62,4.5,120.76,3.67,179.13-3.48l-18.74-76.14c-48.24,5.91-100.41,6.59-148,2.88"/><path class="cls-28" d="M375.65,496.44l18.74,76.14q4.41-.54,8.77-1.12c27.35-3.68,51.38-8.49,71.72-14.14l-32.72-73.48a445.91,445.91,0,0,1-59.26,11.67c-2.41.33-4.82.64-7.25.93"/><path class="cls-27" d="M442.16,483.84l32.72,73.48c16.87-4.68,31.21-9.93,42.79-15.59L477.52,471a209.21,209.21,0,0,1-35.36,12.89"/><path class="cls-26" d="M477.52,471l40.15,70.78c10.94-5.35,19.43-11.05,25.29-17l-44.55-67.84c-4.83,4.9-11.85,9.61-20.89,14"/><path class="cls-25" d="M498.41,456.92,543,524.76c6-6.11,9.27-12.44,9.5-18.84l-46.19-64.56c-.2,5.29-2.87,10.52-7.86,15.56"/><path class="cls-24" d="M506.27,441.36l46.19,64.56c.19-5.13-1.54-10.3-5.29-15.43l-45.28-61.88c3.11,4.24,4.54,8.51,4.38,12.75"/></g></g></g><g class="cls-2"><g class="cls-67"><g class="cls-2"><path class="cls-8" d="M418.56,423.52l65.17-9.73c-53.58-30.44-185.59-43.2-294.85-28.51S34.47,436.56,88,467s185.59,43.21,294.86,28.51,154.41-51.28,100.83-81.72l-65.17,9.73c35.92,20.41,5.65,44.94-67.62,54.8s-161.8,1.29-197.73-19.12-5.65-44.95,67.62-54.8,161.8-1.3,197.73,19.12"/></g></g></g><g class="cls-2"><g class="cls-68"><g class="cls-2"><path class="cls-26" d="M386.21,477.09l32.47-18.65c6.41-3.69,10.81-7.63,13-11.68l-35.66,21.5c-1.67,3.07-5,6.05-9.84,8.83"/><path class="cls-27" d="M396.05,468.26l35.66-21.5a12.08,12.08,0,0,0,.08-12.11l-35.67,24.46a9.12,9.12,0,0,1-.07,9.15"/><path class="cls-28" d="M396.12,459.11l35.67-24.46c-2-3.7-5.81-7.38-11.64-10.95l-32.83,27.13c4.4,2.7,7.31,5.48,8.8,8.28"/><path class="cls-29" d="M387.32,450.83l32.83-27.13c-.6-.37-1.22-.74-1.87-1.11L385.91,450l1.41.83"/></g></g></g><g class="cls-2"><g class="cls-69"><g class="cls-2"><path class="cls-4" d="M185.78,476.91,153.49,458.2c35.85,20.37,124.2,28.91,197.32,19.08,30.83-4.14,54-10.9,67.87-18.84l-32.47,18.65c-10.46,6-28,11.11-51.3,14.24-55.26,7.44-122,1-149.13-14.42"/></g></g></g><g class="cls-2"><g class="cls-70"><g class="cls-2"><path class="cls-10" d="M483.73,413.79l-65.17,9.73c-35.93-20.42-124.46-29-197.73-19.12s-103.54,34.39-67.62,54.8,124.46,29,197.73,19.12,103.54-34.39,67.62-54.8l65.17-9.73c53.58,30.44,8.43,67-100.83,81.72S141.62,497.44,88,467s-8.43-67,100.84-81.72,241.27-1.93,294.85,28.51"/></g></g></g><g class="cls-2"><g class="cls-71"><g class="cls-2"><path class="cls-10" d="M334.49,489.58l-45.82,5.22a8.57,8.57,0,0,0-4.3-.42c-1.59.22-2.25.75-1.47,1.2a8.48,8.48,0,0,0,4.3.41c1.59-.21,2.25-.75,1.47-1.19l45.82-5.22c13.2,7.49,2.08,16.5-24.82,20.12s-59.41.48-72.6-7-2.07-16.5,24.83-20.12,59.4-.48,72.59,7"/></g></g></g><g class="cls-2"><g class="cls-72"><g class="cls-2"><path class="cls-4" d="M232.94,494l7.74-29.81c-.42,1.62.28,3.27,2.22,4.88l-7.36,30.64c-2.26-1.88-3.09-3.82-2.6-5.71"/><path class="cls-23" d="M235.54,499.72l7.36-30.64a15.94,15.94,0,0,0,2.29,1.55,33.2,33.2,0,0,0,5.66,2.46l-6,31.32a38,38,0,0,1-6.62-2.87,19.29,19.29,0,0,1-2.69-1.82"/><path class="cls-24" d="M244.85,504.41l6-31.32A77.44,77.44,0,0,0,263.17,476l-3.91,31.82a88.7,88.7,0,0,1-14.41-3.42"/><path class="cls-25" d="M259.26,507.83,263.17,476a153.58,153.58,0,0,0,42.6.48c3.08-.41,5.91-.91,8.47-1.48L319,506.66c-3,.67-6.32,1.25-9.92,1.73a179.29,179.29,0,0,1-49.84-.56"/><path class="cls-24" d="M319,506.66,314.24,475a51.84,51.84,0,0,0,10.56-3.37l6.57,31.08A60.43,60.43,0,0,1,319,506.66"/><path class="cls-23" d="M331.37,502.72l-6.57-31.08c2.8-1.31,4.72-2.76,5.66-4.26L338,497.73c-1.1,1.76-3.34,3.45-6.62,5"/><path class="cls-4" d="M338,497.73l-7.53-30.35a3.8,3.8,0,0,0,.55-3l7.62,29.84a4.46,4.46,0,0,1-.64,3.54"/></g></g></g><g class="cls-2"><g class="cls-73"><g class="cls-2"><path class="cls-10" d="M386.19,450.91l-58.57,9.57c-11.32-6.43-39.19-9.13-62.27-6s-32.6,10.82-21.29,17.25,39.19,9.13,62.26,6,32.61-10.83,21.3-17.25l58.57-9.57c27.17,15.44,4.28,34-51.14,41.45s-122.38,1-149.56-14.46-4.27-34,51.15-41.45,122.37-1,149.55,14.46"/></g></g></g><g class="cls-2"><g class="cls-74"><g class="cls-2"><path class="cls-8" d="M327.62,460.48l58.57-9.57C359,435.47,292.06,429,236.64,436.45s-78.32,26-51.15,41.45,94.14,21.92,149.56,14.46,78.31-26,51.14-41.45l-58.57,9.57c11.31,6.42,1.78,14.15-21.3,17.25s-50.95.41-62.26-6-1.78-14.15,21.29-17.25,50.95-.41,62.27,6"/></g></g></g><g class="cls-2"><g class="cls-75"><g class="cls-2"><path class="cls-4" d="M338.63,494.19,331,464.35c-.4-1.57-1.88-3.14-4.52-4.65l6.85,29.05c3.1,1.76,4.82,3.6,5.29,5.44"/></g></g></g><g class="cls-2"><g class="cls-76"><g class="cls-2"><path class="cls-52" d="M24.47,489.52,70,427.81a25.93,25.93,0,0,0-2.46,4l-46,62.56a32.19,32.19,0,0,1,3-4.84"/><path class="cls-53" d="M21.5,494.36l46-62.56c-2.92,6-2.71,12.07.89,18.15L22.57,516.31C18.22,509,18,501.56,21.5,494.36"/><path class="cls-54" d="M22.57,516.31,68.4,450c3,5.08,8.39,10.14,16.29,15.06L42.3,534.55c-9.57-6-16.08-12.08-19.73-18.24"/><path class="cls-40" d="M42.3,534.55,84.69,465c1.08.67,2.19,1.33,3.35,2a157,157,0,0,0,25.06,11.1L76.66,550.38A189.36,189.36,0,0,1,46.35,537q-2.12-1.2-4.05-2.4"/><path class="cls-39" d="M76.66,550.38,113.1,478.1A324,324,0,0,0,155,489.43l-27.62,74.66a390.83,390.83,0,0,1-50.73-13.71"/><path class="cls-38" d="M127.39,564.09,155,489.43a592.31,592.31,0,0,0,72.61,9.89l-12.36,76.74a715.54,715.54,0,0,1-87.87-12"/><path class="cls-36" d="M215.26,576.06l12.36-76.74c47.62,3.71,99.79,3,148-2.87l18.74,76.13c-58.37,7.15-121.51,8-179.13,3.48"/><path class="cls-38" d="M394.39,572.58l-18.74-76.13q3.63-.45,7.25-.94a445.91,445.91,0,0,0,59.26-11.67l32.72,73.48c-20.34,5.65-44.37,10.46-71.72,14.14q-4.37.59-8.77,1.12"/><path class="cls-39" d="M474.88,557.32l-32.72-73.48A209.21,209.21,0,0,0,477.52,471l40.15,70.78c-11.58,5.66-25.92,10.91-42.79,15.59"/><path class="cls-40" d="M517.67,541.73,477.52,471c9-4.42,16.06-9.13,20.89-14L543,524.76c-5.86,5.92-14.35,11.62-25.29,17"/><path class="cls-54" d="M543,524.76l-44.55-67.84c5-5,7.66-10.27,7.86-15.56l46.19,64.56c-.23,6.4-3.47,12.73-9.5,18.84"/><path class="cls-53" d="M552.46,505.92l-46.19-64.56c.16-4.24-1.27-8.51-4.38-12.75l45.28,61.88c3.75,5.13,5.48,10.3,5.29,15.43"/></g></g></g><g class="cls-2"><g class="cls-77"><g class="cls-2"><path class="cls-52" d="M24.47,489.52,70,427.81a25.93,25.93,0,0,0-2.46,4l-46,62.56a32.19,32.19,0,0,1,3-4.84"/><path class="cls-53" d="M21.5,494.36l46-62.56c-2.92,6-2.71,12.07.89,18.15L22.57,516.31C18.22,509,18,501.56,21.5,494.36"/><path class="cls-54" d="M22.57,516.31,68.4,450c3,5.08,8.39,10.14,16.29,15.06L42.3,534.55c-9.57-6-16.08-12.08-19.73-18.24"/><path class="cls-40" d="M42.3,534.55,84.69,465c1.08.67,2.19,1.33,3.35,2a157,157,0,0,0,25.06,11.1L76.66,550.38A189.36,189.36,0,0,1,46.35,537q-2.12-1.2-4.05-2.4"/><path class="cls-39" d="M76.66,550.38,113.1,478.1A324,324,0,0,0,155,489.43l-27.62,74.66a390.83,390.83,0,0,1-50.73-13.71"/><path class="cls-38" d="M127.39,564.09,155,489.43a592.31,592.31,0,0,0,72.61,9.89l-12.36,76.74a715.54,715.54,0,0,1-87.87-12"/><path class="cls-36" d="M215.26,576.06l12.36-76.74c47.62,3.71,99.79,3,148-2.87l18.74,76.13c-58.37,7.15-121.51,8-179.13,3.48"/><path class="cls-38" d="M394.39,572.58l-18.74-76.13q3.63-.45,7.25-.94a445.91,445.91,0,0,0,59.26-11.67l32.72,73.48c-20.34,5.65-44.37,10.46-71.72,14.14q-4.37.59-8.77,1.12"/><path class="cls-39" d="M474.88,557.32l-32.72-73.48A209.21,209.21,0,0,0,477.52,471l40.15,70.78c-11.58,5.66-25.92,10.91-42.79,15.59"/><path class="cls-40" d="M517.67,541.73,477.52,471c9-4.42,16.06-9.13,20.89-14L543,524.76c-5.86,5.92-14.35,11.62-25.29,17"/><path class="cls-54" d="M543,524.76l-44.55-67.84c5-5,7.66-10.27,7.86-15.56l46.19,64.56c-.23,6.4-3.47,12.73-9.5,18.84"/><path class="cls-53" d="M552.46,505.92l-46.19-64.56c.16-4.24-1.27-8.51-4.38-12.75l45.28,61.88c3.75,5.13,5.48,10.3,5.29,15.43"/></g></g></g><g class="cls-2"><g class="cls-78"><g class="cls-2"><path class="cls-23" d="M69.46,426.81,22.6,490.38a31.32,31.32,0,0,0-3,4.87L67,430.82a26.09,26.09,0,0,1,2.46-4"/><path class="cls-24" d="M67,430.82,19.61,495.25C16,502.5,16.3,510,20.69,517.36L67.88,449c-3.6-6.09-3.82-12.21-.88-18.18"/><path class="cls-25" d="M67.88,449,20.69,517.36c3.67,6.2,10.23,12.37,19.86,18.36L84.22,464.1c-7.92-4.93-13.32-10-16.34-15.1"/><path class="cls-26" d="M84.22,464.1,40.55,535.72q2,1.21,4.08,2.42a191,191,0,0,0,30.54,13.53l37.52-74.45A157.18,157.18,0,0,1,87.58,466.1c-1.17-.66-2.29-1.33-3.36-2"/><path class="cls-27" d="M112.69,477.22,75.17,551.67a395.13,395.13,0,0,0,51.09,13.8l28.45-76.9a322.17,322.17,0,0,1-42-11.35"/><path class="cls-28" d="M154.71,488.57l-28.45,76.9a718.91,718.91,0,0,0,88.5,12.06l12.74-79a590.81,590.81,0,0,1-72.79-9.92"/><path class="cls-29" d="M227.5,498.49l-12.74,79c58,4.53,121.61,3.69,180.39-3.5l-19.3-78.42c-48.35,5.92-100.63,6.6-148.35,2.88"/><path class="cls-28" d="M375.85,495.61,395.15,574q4.46-.54,8.85-1.14c27.54-3.7,51.74-8.54,72.22-14.23L442.52,483a447.06,447.06,0,0,1-59.39,11.71c-2.42.32-4.84.63-7.28.93"/><path class="cls-27" d="M442.52,483l33.7,75.69c17-4.71,31.44-10,43.1-15.71L478,470.05A208.78,208.78,0,0,1,442.52,483"/><path class="cls-26" d="M478,470.05,519.32,543c11-5.38,19.58-11.13,25.47-17.09L498.92,456c-4.85,4.9-11.88,9.63-20.95,14.05"/><path class="cls-25" d="M498.92,456l45.87,69.86c6.08-6.15,9.34-12.52,9.58-19l-47.58-66.5c-.19,5.31-2.87,10.55-7.87,15.61"/><path class="cls-24" d="M506.79,440.39l47.58,66.5c.19-5.16-1.55-10.37-5.34-15.55l-46.62-63.73c3.11,4.25,4.54,8.54,4.38,12.78"/></g></g></g><g class="cls-2"><g class="cls-79"><g class="cls-2"><path class="cls-8" d="M418.28,422.59l65.92-9.83c-53.7-30.51-186-43.3-295.55-28.58S33.87,435.59,87.58,466.1s186,43.3,295.55,28.58S537.9,443.27,484.2,412.76l-65.92,9.83c35.86,20.37,5.65,44.86-67.47,54.69s-161.47,1.29-197.32-19.08-5.64-44.85,67.48-54.68,161.46-1.3,197.31,19.07"/></g></g></g></g><g class="cls-2"><ellipse class="cls-80" cx="286.93" cy="442.5" rx="41.1" ry="148" transform="translate(-156.11 728.61) rotate(-89.89)"/><ellipse class="cls-80" cx="286.93" cy="442.5" rx="41.1" ry="148" transform="translate(-156.11 728.61) rotate(-89.89)"/></g><g id="g5193"><path id="path5113" class="cls-81" d="M186.21,294.74,163,34l250,.1L390,294.54,287.8,324Zm185-14.23,19.4-223.32H288.2L289,303.5ZM278.64,89.93H253.78l-.3,133.65-48.26-13.43.1,30.55,73.32,20.2v-171Z"/><path id="path5159" class="cls-82" d="M270.45,258.42c-3.22-1-19.11-5.38-35.3-9.86L205.8,240.5v-15c0-14.73,0-15,1.47-14.53.78.29,11.5,3.28,23.79,6.76L253.39,224l.19-66.68.2-66.67h24.37v84.79c0,67.37-.19,84.79-.88,84.79-.48-.1-3.6-.9-6.82-1.79Z"/><path id="path5157" class="cls-83" d="M205.32,240.7l-.1-30.55S236,219,253.48,223.58L253.78,90h24.86V260.9l-73.32-20.2Z"/><path id="path5117" class="cls-84" d="M288.2,57.09H390.57l-19.4,223.32-83,23ZM365.91,243l6.72-83.5-49.72,5.68V120.58l53-.2,2.14-30.45-80,.4,1.08,110.86,48.36-8.46-.69,24.68L298,230.65l.49,30.25L365.91,243Z"/></g><path class="cls-85" d="M436,438s6,19-32,30c-35,13-82.45,17-121,17-39.13,0-93-7-119-20-35-14-24-27.79-24-27.79L0,0H554Z"/></g></g></svg>