<?xml version="1.0" encoding="UTF-8" standalone="no"?>
<svg id="Layer_1" xmlns:rdf="http://www.w3.org/1999/02/22-rdf-syntax-ns#" style="enable-background:new 0 0 626.9 496.1" xmlns="http://www.w3.org/2000/svg" xml:space="preserve" version="1.1" y="0px" x="0px" xmlns:cc="http://creativecommons.org/ns#" xmlns:xlink="http://www.w3.org/1999/xlink" viewBox="0 0 626.9 496.1" xmlns:dc="http://purl.org/dc/elements/1.1/"><metadata id="metadata441"><rdf:RDF><cc:Work rdf:about=""><dc:format>image/svg+xml</dc:format><dc:type rdf:resource="http://purl.org/dc/dcmitype/StillImage"/></cc:Work></rdf:RDF></metadata>
<style id="style2" type="text/css">
	.st0{enable-background:new    ;}
	.st1{fill:#173A6A;}
	.st2{fill:#2A6AC3;}
	.st3{fill:#FCFCFC;}
	.st4{opacity:0.502;fill:#FCFCFC;}
	.st5{opacity:0.8;fill:#E4E4E4;}
	.st6{clip-path:url(#SVGID_2_);}
	.st7{fill:#FFFFFF;}
	.st8{fill:#425692;}
	.st9{fill:#7294FA;}
	.st10{fill:#3E784B;}
	.st11{fill:#72DE8B;}
	.st12{fill:#3B7247;}
	.st13{fill:#73DF8B;}
	.st14{fill:#3A4C80;}
	.st15{fill:#7395FC;}
	.st16{fill:#3C7449;}
	.st17{fill:#132B4E;}
	.st18{fill:#255498;}
	.st19{fill:#400069;}
	.st20{fill:#210036;}
	.st21{fill:#D2007C;}
	.st22{fill:#6E0041;}
	.st23{fill:#587783;}
	.st24{fill:#A6E2F9;}
	.st25{fill:#00203B;}
	.st26{fill:#3F528B;}
	.st27{fill:#7092F6;}
	.st28{fill:#3B4C81;}
	.st29{fill:#6D8EF0;}
	.st30{clip-path:url(#SVGID_4_);enable-background:new    ;}
	.st31{fill:#72DD8B;}
	.st32{fill:#001943;}
	.st33{clip-path:url(#SVGID_6_);}
</style>
<g id="g204">
	<g id="g12">
		<g id="g10" class="st0">
			<path id="path4" class="st1" d="m365.4 22.4h0.6c0.3 0 0.6 0 0.9 0.1 0.2 0 0.4 0 0.6 0.1 0.3 0 0.6 0.1 0.9 0.1 0.2 0 0.4 0.1 0.6 0.1 0.3 0.1 0.6 0.1 0.9 0.2 0.2 0 0.4 0.1 0.6 0.1 0.3 0.1 0.6 0.2 0.9 0.3 0.2 0.1 0.4 0.1 0.6 0.2 0.3 0.1 0.6 0.2 0.9 0.3 0.2 0.1 0.3 0.1 0.5 0.2 0.4 0.2 0.9 0.4 1.3 0.6l-13.7-7.4-1.2-0.6h-0.1c-0.2-0.1-0.3-0.1-0.5-0.2-0.3-0.1-0.6-0.2-0.9-0.3-0.2-0.1-0.4-0.1-0.6-0.2s-0.4-0.1-0.6-0.2c-0.1 0-0.2 0-0.3-0.1-0.2-0.1-0.4-0.1-0.6-0.1-0.3-0.1-0.6-0.1-0.9-0.2-0.2 0-0.4-0.1-0.6-0.1-0.1 0-0.2 0-0.3-0.1-0.2 0-0.4 0-0.6-0.1-0.2 0-0.4-0.1-0.6-0.1-0.3 0-0.6 0-0.9-0.1h-0.6-0.2-0.9-0.5c-0.5 0-1.1 0.1-1.6 0.2l-302.1 42.5c-0.2 0-0.3 0-0.5 0.1-0.1 0-0.2 0-0.3 0.1-0.2 0-0.5 0.1-0.7 0.1s-0.4 0.1-0.5 0.1c-0.2 0.1-0.5 0.1-0.7 0.2-0.2 0-0.3 0.1-0.5 0.1-0.2 0.1-0.5 0.1-0.7 0.2s-0.3 0.1-0.5 0.2-0.5 0.2-0.7 0.3c-0.1 0-0.2 0.1-0.4 0.1h-0.1c-0.6 0.2-1.1 0.5-1.7 0.8-0.1 0.1-0.2 0.1-0.3 0.2-0.5 0.3-1.1 0.6-1.6 0.9-0.1 0.1-0.2 0.1-0.3 0.2-0.5 0.3-1.1 0.7-1.6 1.1l-0.1 0.1-1.5 1.2-0.1 0.1-0.1 0.1c-0.3 0.3-0.7 0.6-1 0.9l-0.2 0.2-0.8 0.8-0.3 0.3c-0.2 0.2-0.4 0.4-0.6 0.7-0.1 0.1-0.2 0.3-0.3 0.4-0.2 0.2-0.4 0.5-0.6 0.7-0.1 0.1-0.1 0.2-0.2 0.2l-0.1 0.1c-0.3 0.5-0.7 0.9-1 1.4-0.1 0.1-0.1 0.2-0.2 0.3-0.3 0.4-0.6 0.9-0.8 1.3 0 0.1-0.1 0.1-0.1 0.2v0.1c-0.3 0.4-0.5 0.9-0.7 1.3-0.1 0.1-0.1 0.2-0.1 0.3-0.2 0.4-0.4 0.7-0.5 1.1 0 0.1-0.1 0.1-0.1 0.2s-0.1 0.2-0.1 0.2c-0.1 0.3-0.3 0.6-0.4 0.9-0.1 0.1-0.1 0.3-0.2 0.4-0.2 0.4-0.3 0.9-0.5 1.4-0.1 0.4-0.3 0.9-0.4 1.3 0 0.1-0.1 0.3-0.1 0.4-0.1 0.3-0.2 0.6-0.2 1 0 0.1 0 0.2-0.1 0.2v0.2c-0.1 0.4-0.1 0.7-0.2 1.1 0 0.1 0 0.3-0.1 0.4-0.1 0.5-0.1 1-0.2 1.5v0.1 0.1c-0.1 0.8-0.1 1.5-0.1 2.3l-0.6 340v1.6 0.4c0 0.4 0.1 0.8 0.1 1.2 0 0.2 0.1 0.4 0.1 0.6 0 0.3 0.1 0.6 0.1 0.9 0 0.2 0.1 0.4 0.1 0.6 0.1 0.3 0.1 0.6 0.2 0.9 0.1 0.2 0.1 0.4 0.2 0.6 0.1 0.3 0.1 0.5 0.2 0.8 0.1 0.2 0.1 0.4 0.2 0.6 0.1 0.3 0.2 0.5 0.3 0.8 0.1 0.2 0.2 0.4 0.2 0.6 0.1 0.2 0.2 0.5 0.3 0.7l0.3 0.6c0.1 0.2 0.2 0.5 0.4 0.7l0.3 0.6c0.1 0.2 0.3 0.4 0.4 0.7 0.1 0.2 0.2 0.4 0.3 0.5 0.1 0.2 0.3 0.4 0.4 0.6s0.2 0.3 0.4 0.5 0.3 0.4 0.5 0.6c0.1 0.2 0.3 0.3 0.4 0.5 0.2 0.2 0.3 0.4 0.5 0.6l0.4 0.4c0.2 0.2 0.4 0.4 0.6 0.5l0.4 0.4c0.2 0.2 0.4 0.3 0.6 0.5 0.1 0.1 0.3 0.2 0.4 0.3 0.2 0.2 0.5 0.3 0.7 0.5 0.1 0.1 0.2 0.2 0.4 0.2 0.4 0.2 0.8 0.5 1.2 0.7l13.7 7.4c-0.4-0.2-0.8-0.4-1.2-0.7-0.1-0.1-0.2-0.2-0.4-0.2-0.2-0.2-0.5-0.3-0.7-0.5-0.1-0.1-0.3-0.2-0.4-0.3-0.2-0.2-0.4-0.3-0.6-0.5l-0.4-0.4c-0.2-0.2-0.4-0.3-0.6-0.5l-0.4-0.4c-0.2-0.2-0.4-0.4-0.5-0.6s-0.3-0.3-0.4-0.5c-0.2-0.2-0.3-0.4-0.5-0.6-0.1-0.2-0.2-0.3-0.4-0.5-0.1-0.2-0.3-0.4-0.4-0.6s-0.2-0.3-0.3-0.5-0.3-0.4-0.4-0.7l-0.3-0.6c-0.1-0.2-0.2-0.5-0.4-0.7l-0.3-0.6c-0.1-0.2-0.2-0.5-0.3-0.7s-0.2-0.4-0.2-0.6c-0.1-0.2-0.2-0.5-0.3-0.8-0.1-0.2-0.1-0.4-0.2-0.6-0.1-0.3-0.2-0.5-0.2-0.8-0.1-0.2-0.1-0.4-0.2-0.6-0.1-0.3-0.1-0.6-0.2-0.9 0-0.2-0.1-0.4-0.1-0.6-0.1-0.3-0.1-0.6-0.1-0.9 0-0.2-0.1-0.4-0.1-0.6 0-0.4-0.1-0.8-0.1-1.2v-0.4-1.6l0.6-340c0-0.8 0-1.5 0.1-2.3v-0.2c0-0.5 0.1-1 0.2-1.5 0-0.1 0-0.3 0.1-0.4 0.1-0.4 0.1-0.8 0.2-1.1 0-0.2 0.1-0.3 0.1-0.5 0.1-0.3 0.2-0.7 0.2-1 0-0.1 0.1-0.3 0.1-0.4 0.1-0.5 0.3-0.9 0.4-1.3 0.1-0.5 0.3-0.9 0.5-1.4 0.1-0.1 0.1-0.3 0.2-0.4 0.1-0.3 0.3-0.6 0.4-0.9 0.1-0.1 0.1-0.3 0.2-0.4 0.2-0.4 0.3-0.7 0.5-1.1 0.1-0.1 0.1-0.2 0.2-0.3 0.2-0.4 0.5-0.9 0.7-1.3 0.1-0.1 0.1-0.2 0.2-0.3 0.3-0.4 0.5-0.9 0.8-1.3 0.1-0.1 0.1-0.2 0.2-0.3 0.3-0.5 0.7-0.9 1-1.4 0.1-0.1 0.2-0.2 0.3-0.4 0.2-0.2 0.4-0.5 0.6-0.7 0.1-0.1 0.2-0.3 0.3-0.4 0.2-0.2 0.4-0.5 0.6-0.7l0.3-0.3 0.8-0.8 0.2-0.2c0.3-0.3 0.7-0.6 1-0.9 0.1 0 0.1-0.1 0.2-0.1l1.5-1.2 0.1-0.1c0.5-0.4 1-0.7 1.6-1.1 0.1-0.1 0.2-0.1 0.3-0.2 0.5-0.3 1.1-0.6 1.6-0.9 0.1-0.1 0.2-0.1 0.3-0.2 0.6-0.3 1.1-0.5 1.7-0.8 0.1-0.1 0.3-0.1 0.4-0.2 0.2-0.1 0.5-0.2 0.7-0.3s0.3-0.1 0.5-0.2 0.5-0.2 0.7-0.2c0.2-0.1 0.3-0.1 0.5-0.1 0.2-0.1 0.5-0.1 0.7-0.2 0.2 0 0.4-0.1 0.5-0.1 0.2-0.1 0.5-0.1 0.7-0.1 0.3 0 0.5-0.1 0.8-0.1l302.1-42.5c0.5-0.1 1.1-0.1 1.6-0.2h0.5c0.3 0.2 0.6 0.2 1 0.2z"/>
			<g id="g8">
				<path id="path6" class="st2" d="m362.2 22.6c12.7-1.8 23.1 8 23.1 21.8l-0.6 340c0 13.8-10.5 26.5-23.2 28.3l-302.1 42.4c-12.7 1.8-23.2-8-23.1-21.7l0.6-340c0-13.8 10.5-26.5 23.2-28.3l302.1-42.5z"/>
			</g>
		</g>
	</g>
	<g id="g24">
		<g id="g22">
			<g id="g16">
				<path id="path14" class="st3" d="m353.5 46.5c7.1-1 12.9 4.4 12.9 12.1l-0.5 288.9c0 7.7-5.8 14.8-12.9 15.8l-280.4 39.3c-7.1 1-12.9-4.4-12.9-12.1l0.5-288.9c0-7.7 5.8-14.7 12.9-15.7l280.4-39.4zm7.9 301.6l0.6-288.9c0-5-3.8-8.6-8.4-7.9l-280.4 39.4c-4.7 0.7-8.5 5.3-8.5 10.3l-0.5 288.9c0 5 3.8 8.6 8.4 7.9l280.4-39.4c4.6-0.7 8.4-5.3 8.4-10.3"/>
			</g>
			<g id="g20">
				<path id="path18" class="st4" d="m353.5 51.3c4.7-0.7 8.4 2.9 8.4 7.9l-0.5 288.9c0 5-3.8 9.7-8.5 10.3l-280.3 39.4c-4.7 0.7-8.5-2.9-8.4-7.9l0.5-288.9c0-5 3.8-9.7 8.5-10.3l280.3-39.4z"/>
			</g>
		</g>
	</g>
	<g id="g32">
		<g id="g30">
			<g id="g28">
				<path id="path26" class="st5" d="m242.9 386.3c5.9-0.8 10.7 3.7 10.7 10v11.9c0 6.3-4.8 12.2-10.7 13l-18.3 2.6c-5.9 0.8-10.7-3.7-10.7-10v-11.9c0-6.3 4.8-12.2 10.7-13l18.3-2.6z"/>
			</g>
		</g>
	</g>
	<g id="g54">
		<g id="g52">
			<g id="g50" class="st0">
				<defs id="defs35">
					<polygon id="SVGID_1_" points="220.7 419.9 220.8 394.7 246.7 391.1 246.6 416.3" class="st0"/>
				</defs>
				<clipPath id="SVGID_2_">
					<use id="use37" xlink:href="#SVGID_1_"/>
				</clipPath>
				<g id="g48" class="st6" clip-path="url(#SVGID_2_)">
					<g id="g46">
						<g id="g44">
							<g id="g42">
								<path id="path40" class="st7" d="m221.6 418.8v-23.3l24.1-3.4v23.3l-24.1 3.4m25.1-27.7l-25.9 3.6v25.2l25.9-3.6v-25.2"/>
							</g>
						</g>
					</g>
				</g>
			</g>
		</g>
	</g>
	<g id="g64">
		<g id="g62" class="st0">
			<polygon id="polygon56" points="346.3 74.6 74.8 112.7 74.8 148.4 83.9 153.4 83.9 117.7 355.4 79.5" class="st8"/>
			<g id="g60">
				<polygon id="polygon58" points="355.4 79.5 355.4 115.2 83.9 153.4 83.9 117.7" class="st9"/>
			</g>
		</g>
	</g>
	<g id="g74">
		<g id="g72" class="st0">
			<polygon id="polygon66" points="244.7 111.8 92.6 133.2 92.6 141.8 97.1 144.3 97.1 135.7 249.3 114.3" class="st10"/>
			<g id="g70">
				<polygon id="polygon68" points="249.3 114.3 249.3 122.9 97.1 144.3 97.1 135.7" class="st11"/>
			</g>
		</g>
	</g>
	<g id="g84">
		<g id="g82" class="st0">
			<polygon id="polygon76" points="192.6 106.9 93.3 120.8 93.3 127.5 97.9 130 97.9 123.3 197.1 109.4" class="st10"/>
			<g id="g80">
				<polygon id="polygon78" points="197.1 109.4 197.1 116 97.9 130 97.9 123.3" class="st11"/>
			</g>
		</g>
	</g>
	<g id="g100">
		<g id="g98" class="st0">
			<g id="g92">
				<path id="path86" class="st12" d="m337.5 100.3c0.3-0.1 0.6-0.3 0.8-0.5l0.3-0.2-2.3-1.2-0.3 0.2c-0.6 0.5-1.3 0.7-2 0.8-0.8 0.1-1.5 0-2.2-0.4l2.3 1.2c0.7 0.4 1.4 0.5 2.2 0.4 0.2 0 0.5-0.1 0.7-0.2l4.9 4.6 2.3 1.2-5.8-5.5-0.9-0.4z"/>
				<path id="path88" class="st12" d="m339.5 99l0.1-0.3c0.1-0.2 0.2-0.5 0.3-0.8 0.5-1.4 1.1-2.8 0.1-4.2-0.3-0.7-0.8-1.1-1.4-1.5l-2.3-1.2c0.6 0.3 1.1 0.8 1.4 1.5 0.9 1.5 0.4 2.9-0.1 4.2-0.1 0.3-0.2 0.5-0.3 0.8l-0.1 0.3 5.5 5.3-0.7 0.7 2.3 1.2 0.7-0.7-5.5-5.3z"/>
				<path id="path90" class="st12" d="m332 99.4c-0.6-1.2-0.8-2.6-0.4-4s1.2-2.7 2.4-3.5c0.8-0.5 1.6-0.9 2.4-1 0.9-0.1 1.9 0 2.7 0.5l-2.3-1.2c-0.8-0.4-1.7-0.6-2.7-0.5-0.8 0.1-1.6 0.4-2.4 1-1.2 0.9-2 2.1-2.4 3.5s-0.2 2.9 0.4 4c0.4 0.8 1 1.4 1.7 1.7l2.3 1.2c-0.7-0.3-1.3-0.9-1.7-1.7z"/>
			</g>
			<g id="g96">
				<path id="path94" class="st13" d="m340.5 98.6l5.8 5.6-2 2.1-5.8-5.5c-0.7 0.4-1.4 0.7-2.1 0.8-1.8 0.2-3.5-0.5-4.4-2.2-0.6-1.2-0.8-2.6-0.4-4s1.2-2.7 2.4-3.5c0.8-0.5 1.6-0.9 2.4-1 1.8-0.2 3.5 0.5 4.4 2.2 1.1 1.9 0.4 3.7-0.1 5.1-0.1 0.1-0.1 0.2-0.2 0.4zm-1.9 1l5.7 5.4 0.7-0.7-5.5-5.3 0.1-0.3c0.1-0.2 0.2-0.5 0.3-0.8 0.5-1.4 1.1-2.8 0.1-4.2-0.7-1.4-2.2-2-3.6-1.8-0.7 0.1-1.3 0.4-1.9 0.8-1 0.7-1.7 1.7-2 2.9s-0.2 2.4 0.3 3.3c0.7 1.4 2.1 2 3.6 1.8 0.7-0.1 1.3-0.4 2-0.8l0.2-0.3"/>
			</g>
		</g>
	</g>
	<g id="g184">
		<g id="g110">
			<g id="g108" class="st0">
				<polygon id="polygon102" points="346.7 126.8 79.1 164.4 78.7 365 87.9 370 88.2 169.3 355.8 131.7" class="st14"/>
				<g id="g106">
					<polygon id="polygon104" points="355.8 131.7 355.5 332.4 87.9 370 88.2 169.3" class="st15"/>
				</g>
			</g>
		</g>
		<g id="g162">
			<g id="g120">
				<g id="g118" class="st0">
					<path id="path112" class="st16" d="m307.8 248.9l-4.6-2.5h-0.1-0.3l-60.5 8.5h-0.2-0.1c-0.1 0-0.2 0.1-0.2 0.2h-0.1c-0.1 0.1-0.1 0.1-0.1 0.2 0 0 0 0.1-0.1 0.1 0 0.1-0.1 0.2-0.1 0.4v5.3c0 0.2 0 0.3 0.1 0.4l0.3 0.3 4.6 2.5c-0.2-0.1-0.4-0.4-0.4-0.7v-5.3c0-0.1 0-0.2 0.1-0.4 0 0 0-0.1 0.1-0.1 0-0.1 0.1-0.1 0.1-0.2 0 0 0.1 0 0.1-0.1l0.2-0.2c0.1 0 0.1-0.1 0.2-0.1l60.5-8.5h0.3l0.2 0.2z"/>
					<g id="g116">
						<path id="path114" class="st11" d="m307.4 248.8c0.4-0.1 0.8 0.3 0.8 0.7v5.3c0 0.5-0.4 0.9-0.8 1l-60.5 8.5c-0.4 0.1-0.8-0.3-0.8-0.7v-5.3c0-0.5 0.3-0.9 0.8-1l60.5-8.5z"/>
					</g>
				</g>
			</g>
			<g id="g130">
				<g id="g128" class="st0">
					<path id="path122" class="st16" d="m347 200.3l-4.6-2.5h-0.1-0.3l-102.8 14.4h-0.2-0.1c-0.1 0-0.2 0.1-0.2 0.2h-0.1c-0.1 0.1-0.1 0.1-0.1 0.2 0 0 0 0.1-0.1 0.1 0 0.1-0.1 0.2-0.1 0.3v5.3c0 0.3 0.1 0.5 0.4 0.7l4.6 2.5c-0.2-0.1-0.4-0.4-0.4-0.7v-5.3c0-0.1 0-0.2 0.1-0.3 0 0 0-0.1 0.1-0.1 0-0.1 0.1-0.1 0.1-0.2l0.1-0.1c0.1-0.1 0.2-0.1 0.2-0.2 0.1 0 0.1-0.1 0.2-0.1l102.8-14.4h0.3l0.2 0.2z"/>
					<g id="g126">
						<path id="path124" class="st11" d="m346.6 200.3c0.4-0.1 0.8 0.3 0.8 0.7v5.3c0 0.5-0.3 0.9-0.8 0.9l-102.8 14.4c-0.4 0.1-0.8-0.3-0.8-0.7v-5.3c0-0.5 0.4-0.9 0.8-0.9l102.8-14.4z"/>
					</g>
				</g>
			</g>
			<g id="g140">
				<g id="g138" class="st0">
					<path id="path132" class="st16" d="m347 220.9l-4.6-2.5h-0.1-0.3l-102.8 14.4h-0.2-0.1c-0.1 0-0.2 0.1-0.2 0.2h-0.1c-0.1 0.1-0.1 0.1-0.1 0.2 0 0 0 0.1-0.1 0.1 0 0.1-0.1 0.2-0.1 0.3v5.3c0 0.3 0.1 0.5 0.4 0.7l4.6 2.5c-0.2-0.1-0.4-0.4-0.4-0.7v-5.3c0-0.1 0-0.2 0.1-0.3 0 0 0-0.1 0.1-0.1 0-0.1 0.1-0.1 0.1-0.2l0.1-0.1c0.1-0.1 0.2-0.1 0.2-0.2 0.1 0 0.1-0.1 0.2-0.1l102.8-14.4h0.3l0.2 0.2z"/>
					<g id="g136">
						<path id="path134" class="st11" d="m346.6 220.8c0.4-0.1 0.8 0.3 0.8 0.7v5.3c0 0.5-0.3 0.9-0.8 0.9l-102.8 14.4c-0.4 0.1-0.8-0.3-0.8-0.7v-5.3c0-0.5 0.4-0.9 0.8-0.9l102.8-14.4z"/>
					</g>
				</g>
			</g>
			<g id="g150">
				<g id="g148" class="st0">
					<path id="path142" class="st16" d="m347 177.6l-4.6-2.5h-0.1-0.3l-102.8 14.4h-0.2-0.1c-0.1 0-0.2 0.1-0.2 0.2h-0.1c-0.1 0.1-0.1 0.1-0.1 0.2 0 0 0 0.1-0.1 0.1 0 0.1-0.1 0.2-0.1 0.3v5.3c0 0.3 0.1 0.5 0.4 0.7l4.6 2.5c-0.2-0.1-0.4-0.4-0.4-0.7v-5.3c0-0.1 0-0.2 0.1-0.3 0 0 0-0.1 0.1-0.1 0-0.1 0.1-0.1 0.1-0.2l0.1-0.1c0.1-0.1 0.2-0.1 0.2-0.2 0.1 0 0.1-0.1 0.2-0.1l102.8-14.4h0.3l0.2 0.2z"/>
					<g id="g146">
						<path id="path144" class="st11" d="m346.6 177.5c0.4-0.1 0.8 0.3 0.8 0.7v5.3c0 0.5-0.3 0.9-0.8 0.9l-102.8 14.4c-0.4 0.1-0.8-0.3-0.8-0.7v-5.3c0-0.5 0.4-0.9 0.8-0.9l102.8-14.4z"/>
					</g>
				</g>
			</g>
			<g id="g160">
				<g id="g158" class="st0">
					<path id="path152" class="st17" d="m287.1 272.7c-0.6-0.4-1.4-0.5-2.2-0.4l-33.5 4.7c-2.3 0.3-4.2 2.6-4.2 5.1v2.5c0 0.3 0 0.5 0.1 0.8v0.2c0 0.2 0.1 0.5 0.2 0.7l0.3 0.6 0.1 0.1c0.1 0.2 0.2 0.3 0.4 0.5 0.1 0.1 0.2 0.2 0.3 0.2l0.1 0.1c0.1 0.1 0.3 0.2 0.4 0.3l2.3 1.2c-0.1-0.1-0.3-0.2-0.4-0.3l-0.1-0.1c-0.1-0.1-0.2-0.1-0.3-0.2s-0.3-0.3-0.4-0.5l-0.1-0.1-0.3-0.6c-0.1-0.2-0.1-0.4-0.2-0.7v-0.2c0-0.2-0.1-0.5-0.1-0.8v-2.5c0-2.5 1.9-4.8 4.2-5.1l33.5-4.7c0.8-0.1 1.6 0 2.2 0.4l-2.3-1.2z"/>
					<g id="g156">
						<path id="path154" class="st18" d="m287.1 273.6c2.3-0.3 4.2 1.4 4.2 3.9v2.5c0 2.5-1.9 4.8-4.2 5.1l-33.5 4.7c-2.3 0.3-4.2-1.4-4.2-3.9v-2.5c0-2.5 1.9-4.8 4.2-5.1l33.5-4.7z"/>
					</g>
				</g>
			</g>
		</g>
		<g id="g182">
			<g id="g180" class="st0">
				<g id="g166">
					<path id="path164" class="st19" d="m152 224.8c3.9-0.5 7 2.6 7 7.1s-3.2 8.5-7 9.1c-3.9 0.5-7-2.6-7-7.1-0.1-4.5 3.1-8.5 7-9.1z"/>
				</g>
				<path id="path168" class="st20" d="m101.5 330.9l-0.1-39.3-4.6-2.5 0.1 39.3c0 1.7 0.8 3.1 2 3.7l4.6 2.5c-1.2-0.7-2-2-2-3.7z"/>
				<g id="g172">
					<path id="path170" class="st21" d="m222.7 193.2c3.1-0.4 5.5 1.9 5.5 5.2l-0.2 80.8c0-1.2-0.4-2.4-1.2-3.1l-41.8-42.3c-0.8-0.8-1.8-1.1-2.9-1-1 0.1-2.1 0.7-2.9 1.8l-23.7 30.5c-0.8 1-1.8 1.6-2.9 1.8s-2.1-0.2-2.8-1l-13.8-14.2c-0.8-0.8-1.8-1.1-2.9-1-1 0.1-2.1 0.7-2.9 1.8l-27.6 35.6c-0.5 0.6-0.8 1.4-1 2.1l0.1-74.2c0-3.3 2.5-6.3 5.5-6.8l115.5-16zm-70.8 47.8c3.9-0.5 7-4.6 7-9.1s-3.1-7.6-7-7.1-7 4.6-7 9.1 3.2 7.6 7 7.1"/>
				</g>
				<g id="g176">
					<path id="path174" class="st19" d="m182.3 232.9c1-0.1 2.1 0.2 2.9 1l41.8 42.3c0.8 0.8 1.2 1.9 1.2 3.1l-0.1 33.9c0 2.6-1.8 4.9-4 5.2l-118.5 16.6c-2.2 0.3-4-1.5-4-4.1l-0.1-39.3c0-0.4 0.1-0.9 0.2-1.3 0.2-0.8 0.5-1.5 1-2.1l27.6-35.6c0.8-1 1.8-1.6 2.9-1.8 1-0.1 2.1 0.2 2.9 1l13.9 14.2c0.8 0.8 1.8 1.1 2.8 1s2.1-0.7 2.9-1.8l23.7-30.5c0.8-1.1 1.9-1.7 2.9-1.8z"/>
				</g>
				<path id="path178" class="st22" d="m221.1 191.2c-0.9-0.5-1.9-0.7-3-0.5l-115.4 16.2c-3.1 0.4-5.5 3.4-5.5 6.8l-0.2 74.1c-0.1 0.4-0.2 0.9-0.2 1.3l4.6 2.5c0-0.4 0.1-0.9 0.2-1.3 0.2-0.8 0-2.7 0-2.7l0.1-71.4c0-3.3 2.5-6.3 5.5-6.8l115.4-16.2c1.1-0.2 2.1 0 3 0.5l-4.5-2.5z"/>
			</g>
		</g>
	</g>
	<g id="g194">
		<g id="g192" class="st0">
			<path id="path186" class="st23" d="m33.6 148.9v-0.3-0.1-0.6-0.1c0-0.5-0.1-1-0.2-1.4v-0.1c-0.1-0.5-0.2-0.9-0.3-1.3-0.1-0.2-0.1-0.4-0.2-0.7v-0.1-0.1c0-0.1-0.1-0.2-0.1-0.3v-0.1s0-0.1-0.1-0.1c0-0.1-0.1-0.1-0.1-0.2v-0.1c0-0.1 0-0.1-0.1-0.2 0 0 0-0.1-0.1-0.1v-0.1c0-0.1-0.1-0.2-0.1-0.3v-0.1c-0.1-0.1-0.1-0.2-0.2-0.3 0 0 0-0.1-0.1-0.1l-0.1-0.1v-0.1s0-0.1-0.1-0.1c0 0 0-0.1-0.1-0.1l-0.1-0.1-0.1-0.1-0.1-0.1-1.4-1.1h-0.1c-0.1-0.1-0.2-0.1-0.3-0.1h-0.3l-1.9 0.2h0.3c0.1 0 0.2 0.1 0.3 0.2l1.4 1.1c0.1 0 0.1 0.1 0.2 0.2l0.1 0.1 0.1 0.1s0 0.1 0.1 0.1c0 0.1 0.1 0.1 0.1 0.2 0 0 0 0.1 0.1 0.1 0.1 0.1 0.1 0.2 0.2 0.3v0.1c0 0.1 0.1 0.2 0.1 0.3 0 0 0 0.1 0.1 0.1 0 0.1 0.1 0.2 0.1 0.2 0 0.1 0.1 0.1 0.1 0.2s0.1 0.2 0.1 0.2c0 0.1 0.1 0.2 0.1 0.3s0 0.1 0.1 0.2c0.1 0.2 0.1 0.4 0.2 0.7v0.1c0.1 0.4 0.2 0.9 0.3 1.3v0.1c0.1 0.5 0.1 0.9 0.2 1.4v0.1 0.6 0.4 29.7 0.9 0.1c0 0.3 0 0.5-0.1 0.8v0.1c0 0.2-0.1 0.5-0.1 0.7v0.1c0 0.2-0.1 0.4-0.2 0.6v0.1c0 0.1-0.1 0.3-0.2 0.4 0 0.1-0.1 0.1-0.1 0.1-0.1 0.1-0.1 0.2-0.2 0.3s-0.2 0.2-0.3 0.2h-0.1c-0.1 0.1-0.2 0.1-0.3 0.1l1.9-0.2c0.1 0 0.2 0 0.3-0.1h0.1c0.1-0.1 0.2-0.1 0.3-0.2l0.2-0.2s0-0.1 0.1-0.1l0.1-0.1s0-0.1 0.1-0.1c0-0.1 0.1-0.2 0.1-0.3v-0.1c0-0.1 0.1-0.2 0.1-0.4v-0.2-0.1-0.1c0-0.1 0-0.2 0.1-0.4v-0.2-0.1-0.1-0.4-0.2-0.1-0.1-0.5-0.3l0.1-29.8z"/>
			<g id="g190">
				<path id="path188" class="st24" d="m28.1 140.6l1.4 1.1c1.2 0.9 2.1 4.3 2.2 7.5v29.7c0 3.2-1 5.2-2.1 4.3l-1.4-1.1c-1.2-0.9-2.1-4.3-2.1-7.5v-29.7c-0.1-3.3 0.9-5.2 2-4.3z"/>
			</g>
		</g>
	</g>
	<g id="g202">
		<g id="g200">
			<g id="g198">
				<path id="path196" class="st25" d="m236.4 46.6c2.5-0.3 4.4 1.5 4.4 4.2s-2 5.1-4.5 5.4l-42.6 6c-2.5 0.3-4.4-1.5-4.4-4.2 0-2.6 2-5.1 4.5-5.4l42.6-6z"/>
			</g>
		</g>
	</g>
</g>
<g id="g434">
	<g id="g214">
		<g id="g212" class="st0">
			<path id="path206" class="st1" d="m585.7 124.3h0.6 0.8c0.2 0 0.4 0 0.6 0.1 0.3 0 0.5 0.1 0.8 0.1 0.2 0 0.3 0.1 0.5 0.1 0.3 0.1 0.5 0.1 0.8 0.2 0.2 0 0.3 0.1 0.5 0.1 0.3 0.1 0.5 0.2 0.8 0.2 0.2 0.1 0.3 0.1 0.5 0.2 0.3 0.1 0.5 0.2 0.8 0.3 0.1 0.1 0.3 0.1 0.4 0.2 0.4 0.2 0.8 0.4 1.1 0.6l-13.7-7.4c-0.3-0.2-0.7-0.4-1.1-0.5h-0.1c-0.1-0.1-0.3-0.1-0.4-0.2-0.3-0.1-0.5-0.2-0.8-0.3-0.2-0.1-0.3-0.1-0.5-0.2s-0.3-0.1-0.5-0.2c-0.1 0-0.2 0-0.3-0.1-0.2 0-0.3-0.1-0.5-0.1-0.3-0.1-0.5-0.1-0.8-0.2-0.2 0-0.3-0.1-0.5-0.1-0.1 0-0.2 0-0.3-0.1-0.2 0-0.3 0-0.5-0.1-0.2 0-0.4 0-0.6-0.1h-0.8-0.6-0.2-0.8-0.5c-0.5 0-1 0.1-1.4 0.1l-130 18.3c-0.1 0-0.3 0-0.4 0.1-0.1 0-0.2 0-0.3 0.1-0.2 0-0.4 0.1-0.6 0.1s-0.3 0.1-0.5 0.1c-0.2 0.1-0.4 0.1-0.6 0.2-0.2 0-0.3 0.1-0.5 0.1-0.2 0.1-0.4 0.1-0.6 0.2-0.1 0-0.3 0.1-0.4 0.1-0.2 0.1-0.4 0.2-0.7 0.2-0.1 0-0.2 0.1-0.3 0.1h-0.1c-0.5 0.2-1 0.4-1.5 0.7-0.1 0-0.2 0.1-0.3 0.1-0.5 0.3-1 0.5-1.4 0.8-0.1 0-0.2 0.1-0.2 0.2-0.5 0.3-1 0.6-1.4 1l-0.1 0.1c-0.5 0.3-0.9 0.7-1.3 1.1l-0.1 0.1c-0.6 0.5-1.2 1.1-1.8 1.7l-0.1 0.1c-0.6 0.6-1.1 1.2-1.6 1.8l-0.1 0.1-0.1 0.1c-0.3 0.4-0.6 0.8-0.9 1.2-0.1 0.1-0.1 0.2-0.2 0.2-0.3 0.4-0.5 0.8-0.8 1.2 0 0.1-0.1 0.1-0.1 0.2v0.1c-0.2 0.4-0.4 0.8-0.7 1.2 0 0.1-0.1 0.2-0.1 0.3-0.2 0.3-0.3 0.6-0.5 1 0 0.1-0.1 0.1-0.1 0.2s-0.1 0.1-0.1 0.2c-0.1 0.3-0.2 0.6-0.3 0.8 0 0.1-0.1 0.2-0.1 0.4-0.2 0.4-0.3 0.8-0.4 1.2s-0.2 0.8-0.4 1.2c0 0.1-0.1 0.3-0.1 0.4-0.1 0.3-0.1 0.6-0.2 0.9 0 0.1 0 0.1-0.1 0.2v0.2c-0.1 0.3-0.1 0.7-0.2 1 0 0.1 0 0.2-0.1 0.3-0.1 0.4-0.1 0.9-0.2 1.3v0.1 0.1c-0.1 0.7-0.1 1.4-0.1 2.1l-0.5 295.7v1.4 0.3c0 0.4 0.1 0.7 0.1 1 0 0.2 0.1 0.3 0.1 0.5 0 0.3 0.1 0.6 0.1 0.8s0.1 0.4 0.1 0.6c0.1 0.3 0.1 0.5 0.2 0.8 0 0.2 0.1 0.4 0.2 0.6s0.1 0.5 0.2 0.7 0.1 0.4 0.2 0.6 0.2 0.5 0.2 0.7c0.1 0.2 0.1 0.4 0.2 0.5l0.3 0.6c0.1 0.2 0.2 0.3 0.3 0.5l0.3 0.6c0.1 0.2 0.2 0.3 0.3 0.5s0.2 0.4 0.4 0.6c0.1 0.2 0.2 0.3 0.3 0.5s0.3 0.4 0.4 0.6 0.2 0.3 0.3 0.4c0.1 0.2 0.3 0.4 0.4 0.5s0.2 0.3 0.4 0.4l0.5 0.5c0.1 0.1 0.2 0.3 0.4 0.4l0.5 0.5c0.1 0.1 0.3 0.2 0.4 0.3 0.2 0.2 0.4 0.3 0.6 0.5 0.1 0.1 0.2 0.2 0.4 0.3 0.2 0.2 0.4 0.3 0.7 0.5 0.1 0.1 0.2 0.2 0.3 0.2 0.3 0.2 0.7 0.4 1 0.6l13.7 7.4c-0.4-0.2-0.7-0.4-1-0.6-0.1-0.1-0.2-0.2-0.3-0.2-0.2-0.1-0.4-0.3-0.7-0.5-0.1-0.1-0.3-0.2-0.4-0.3-0.2-0.1-0.4-0.3-0.6-0.5-0.1-0.1-0.3-0.2-0.4-0.3l-0.5-0.5c-0.1-0.1-0.2-0.3-0.4-0.4l-0.5-0.5c-0.1-0.1-0.2-0.3-0.4-0.4-0.1-0.2-0.3-0.3-0.4-0.5-0.1-0.1-0.2-0.3-0.3-0.4-0.1-0.2-0.3-0.4-0.4-0.6s-0.2-0.3-0.3-0.5-0.2-0.4-0.4-0.6c-0.1-0.2-0.2-0.3-0.3-0.5l-0.3-0.6c-0.1-0.2-0.2-0.3-0.3-0.5l-0.3-0.6c-0.1-0.2-0.1-0.4-0.2-0.5-0.1-0.2-0.2-0.5-0.2-0.7-0.1-0.2-0.1-0.4-0.2-0.5-0.1-0.2-0.1-0.5-0.2-0.7s-0.1-0.4-0.2-0.6c-0.1-0.3-0.1-0.5-0.2-0.8 0-0.2-0.1-0.4-0.1-0.6-0.1-0.3-0.1-0.6-0.1-0.8s-0.1-0.3-0.1-0.5c0-0.3-0.1-0.7-0.1-1.1v-0.3-1.5l0.5-295.7c0-0.7 0-1.4 0.1-2.1v-0.2c0-0.4 0.1-0.9 0.2-1.3 0-0.1 0-0.2 0.1-0.3 0.1-0.3 0.1-0.7 0.2-1 0-0.1 0.1-0.3 0.1-0.4 0.1-0.3 0.1-0.6 0.2-0.9 0-0.1 0.1-0.3 0.1-0.4 0.1-0.4 0.2-0.8 0.4-1.2 0.1-0.4 0.3-0.8 0.4-1.2 0-0.1 0.1-0.3 0.1-0.4 0.1-0.3 0.2-0.6 0.3-0.8 0.1-0.1 0.1-0.3 0.2-0.4 0.2-0.3 0.3-0.7 0.5-1 0-0.1 0.1-0.2 0.1-0.3 0.2-0.4 0.4-0.8 0.7-1.2 0-0.1 0.1-0.2 0.1-0.2 0.2-0.4 0.5-0.8 0.8-1.2 0.1-0.1 0.1-0.2 0.2-0.2 0.3-0.4 0.6-0.8 0.9-1.2l0.2-0.2c0.5-0.6 1-1.3 1.6-1.8l0.1-0.1c0.6-0.6 1.2-1.2 1.8-1.7l0.1-0.1c0.4-0.4 0.9-0.7 1.3-1.1l0.1-0.1c0.5-0.3 0.9-0.7 1.4-1 0.1-0.1 0.2-0.1 0.2-0.2 0.5-0.3 1-0.6 1.4-0.8 0.1 0 0.2-0.1 0.3-0.1 0.5-0.3 1-0.5 1.5-0.7 0.1-0.1 0.3-0.1 0.4-0.1 0.2-0.1 0.4-0.2 0.7-0.2 0.1-0.1 0.3-0.1 0.4-0.1 0.2-0.1 0.4-0.1 0.6-0.2 0.2 0 0.3-0.1 0.5-0.1 0.2-0.1 0.4-0.1 0.6-0.2 0.2 0 0.3-0.1 0.5-0.1s0.4-0.1 0.6-0.1 0.5-0.1 0.7-0.1l130-18.3c0.5-0.1 1-0.1 1.4-0.1h0.5 1.1z"/>
			<g id="g210">
				<path id="path208" class="st2" d="m582.8 124.5c11.4-1.6 20.7 7.2 20.7 19.5l-0.5 295.7c0 12.3-9.4 23.7-20.8 25.3l-130 18.3c-11.4 1.6-20.7-7.2-20.7-19.5l0.5-295.7c0-12.3 9.4-23.7 20.8-25.3l130-18.3z"/>
			</g>
		</g>
	</g>
	<g id="g226">
		<g id="g224">
			<g id="g218">
				<path id="path216" class="st4" d="m576.4 155.3c4.7-0.7 8.4 2.9 8.4 7.9l-0.4 241.3c0 5-3.8 9.7-8.5 10.3l-117.8 16.6c-4.7 0.7-8.5-2.9-8.4-7.9l0.4-241.3c0-5 3.8-9.7 8.5-10.3l117.8-16.6z"/>
			</g>
			<g id="g222">
				<path id="path220" class="st3" d="m576.4 150.5c7.1-1 12.9 4.4 12.9 12.1l-0.4 241.3c0 7.7-5.8 14.7-12.9 15.7l-117.8 16.6c-7.1 1-12.9-4.4-12.9-12.1l0.4-241.3c0-7.7 5.8-14.7 12.9-15.7l117.8-16.6zm8 254l0.4-241.3c0-5-3.8-8.6-8.4-7.9l-117.8 16.6c-4.7 0.7-8.5 5.3-8.5 10.3l-0.4 241.3c0 5 3.8 8.6 8.4 7.9l117.8-16.6c4.7-0.7 8.5-5.3 8.5-10.3"/>
			</g>
		</g>
	</g>
	<g id="g234">
		<g id="g232">
			<g id="g230">
				<path id="path228" class="st5" d="m530.6 430.5c4.4-0.6 8 2.8 8 7.5v13.3c0 4.7-3.6 9.1-8 9.7l-14.5 2c-4.4 0.6-8-2.8-8-7.5v-13.3c0-4.7 3.6-9.1 8-9.7l14.5-2z"/>
			</g>
		</g>
	</g>
	<g id="g244">
		<g id="g242" class="st0">
			<polygon id="polygon236" points="575.3 199.4 456.6 216.1 456.3 408.2 460.8 410.7 461.2 218.6 579.9 201.9" class="st26"/>
			<g id="g240">
				<polygon id="polygon238" points="579.9 201.9 579.5 394 460.8 410.7 461.2 218.6" class="st27"/>
			</g>
		</g>
	</g>
	<g id="g254">
		<g id="g252" class="st0">
			<polygon id="polygon246" points="575.1 166.3 455.2 183.1 455.2 206 459.7 208.5 459.8 185.6 579.6 168.8" class="st28"/>
			<g id="g250">
				<polygon id="polygon248" points="579.6 168.8 579.6 191.6 459.7 208.5 459.8 185.6" class="st29"/>
			</g>
		</g>
	</g>
	<g id="g270">
		<g id="g268" class="st0">
			<g id="g262">
				<path id="path256" class="st12" d="m474.6 196.1l0.1-0.3c0.1-0.2 0.2-0.5 0.3-0.8 0.5-1.4 1.1-2.8 0.1-4.2-0.3-0.6-0.8-1.1-1.4-1.5l-2.3-1.2c0.6 0.3 1.1 0.8 1.4 1.5 0.9 1.5 0.4 2.9-0.1 4.2-0.1 0.3-0.2 0.5-0.3 0.8l-0.1 0.3 5.5 5.3-0.7 0.7 2.3 1.2 0.7-0.7-5.5-5.3z"/>
				<path id="path258" class="st12" d="m472.6 197.5c0.3-0.1 0.6-0.3 0.8-0.5l0.3-0.2-2.3-1.2-0.3 0.2c-0.6 0.4-1.3 0.7-2 0.8-0.4 0.1-0.8 0-1.2 0-0.4-0.1-0.7-0.2-1-0.4l2.3 1.2c0.3 0.2 0.7 0.3 1 0.4 0.4 0.1 0.8 0.1 1.2 0 0.2 0 0.5-0.1 0.7-0.2l4.9 4.6 2.3 1.2-5.8-5.5-0.9-0.4z"/>
				<path id="path260" class="st12" d="m467.1 196.6c-0.6-1.2-0.8-2.6-0.4-4s1.2-2.7 2.4-3.5c0.7-0.5 1.6-0.9 2.4-1 0.5-0.1 0.9-0.1 1.4 0 0.2 0 0.4 0.1 0.7 0.2s0.4 0.2 0.6 0.3l-2.3-1.2c-0.4-0.2-0.8-0.4-1.3-0.4-0.5-0.1-0.9-0.1-1.4 0-0.8 0.1-1.6 0.5-2.4 1-1.2 0.9-2 2.1-2.4 3.5s-0.2 2.9 0.4 4c0.3 0.6 0.7 1 1.2 1.4 0.2 0.1 0.3 0.2 0.5 0.3l2.3 1.2c-0.7-0.4-1.3-1-1.7-1.8z"/>
			</g>
			<g id="g266">
				<path id="path264" class="st13" d="m475.6 195.8l5.8 5.6-2.1 2.1-5.8-5.5c-0.7 0.4-1.4 0.7-2.1 0.8-0.5 0.1-1 0.1-1.4 0-1.3-0.2-2.3-1-3-2.2-0.6-1.2-0.8-2.6-0.4-4s1.2-2.7 2.4-3.5c0.7-0.5 1.6-0.9 2.4-1 0.5-0.1 0.9-0.1 1.4 0 1.3 0.2 2.3 1 3 2.2 1.1 1.9 0.4 3.7-0.1 5.1 0 0.1 0 0.2-0.1 0.4zm-1.9 1l5.7 5.4 0.7-0.7-5.5-5.3 0.1-0.3c0.1-0.2 0.2-0.5 0.3-0.8 0.5-1.4 1.1-2.8 0.1-4.2-0.5-1-1.4-1.6-2.4-1.8-0.4-0.1-0.8-0.1-1.2 0-0.7 0.1-1.3 0.4-2 0.8-2 1.4-2.7 4.2-1.7 6.2 0.5 1 1.4 1.6 2.4 1.8 0.4 0.1 0.8 0.1 1.2 0 0.7-0.1 1.3-0.4 2-0.8l0.3-0.3"/>
			</g>
		</g>
	</g>
	<g id="g294">
		<g id="g292" class="st0">
			<g id="g274">
				<path id="path272" class="st19" d="m534.2 248.4c0.8-0.1 1.6 0.1 2.3 0.6l33.2 27.5c0.6 0.5 0.9 1.2 0.9 2.1v22.7c0 1.7-1.4 3.3-3.2 3.6l-94.1 13.2c-1.8 0.2-3.2-0.9-3.2-2.6l-0.1-26.3c0-0.3 0-0.6 0.1-0.9 0.1-0.5 0.4-1 0.8-1.5l21.9-24.3c0.6-0.7 1.4-1.1 2.3-1.2s1.6 0.1 2.3 0.6l11.2 9.3c0.6 0.5 1.4 0.7 2.3 0.6 0.8-0.1 1.6-0.5 2.3-1.2l18.8-20.8c0.6-0.8 1.4-1.3 2.2-1.4z"/>
			</g>
			<g id="g278">
				<path id="path276" class="st21" d="m565.2 221.3c3.1-0.4 5.5 1.9 5.5 5.2l-0.1 52.1c0-0.8-0.3-1.6-0.9-2.1l-33.2-27.5c-0.6-0.5-1.4-0.7-2.3-0.6-0.8 0.1-1.6 0.5-2.3 1.2l-18.8 20.8c-0.6 0.7-1.4 1.1-2.3 1.2-0.8 0.1-1.6-0.1-2.3-0.6l-11.2-9.3c-0.6-0.5-1.4-0.7-2.3-0.6-0.8 0.1-1.6 0.5-2.3 1.2l-21.7 24.5c-0.4 0.4-0.7 0.9-0.8 1.5l0.1-47.6c0-3.3 2.5-6.3 5.5-6.8l89.4-12.6zm-55.1 33.1c3.1-0.4 5.6-3.2 5.6-6.2s-2.5-5.1-5.6-4.6c-3.1 0.4-5.6 3.2-5.6 6.2 0.1 3 2.6 5 5.6 4.6"/>
			</g>
			<g id="g282">
				<path id="path280" class="st19" d="m510.2 243.6c3.1-0.4 5.6 1.6 5.6 4.6s-2.5 5.8-5.6 6.2-5.6-1.6-5.6-4.6 2.5-5.8 5.6-6.2z"/>
			</g>
			<path id="path284" class="st20" d="m470.1 315.4l-0.1-26.3-4.6-2.5 0.1 26.3c0 1 0.5 1.9 1.4 2.3l4.6 2.5c-0.9-0.4-1.4-1.2-1.4-2.3z"/>
			<g id="g290">
				<path id="path286" class="st22" d="m563.6 219.4c-0.9-0.5-1.9-0.7-3-0.5l4.6 2.5c1.1-0.2 2.1 0 3 0.5l-4.6-2.5z"/>
				<path id="path288" class="st22" d="m471.2 231.4c-3.1 0.4-5.5 3.4-5.5 6.8l-0.1 47.6c-0.1 0.3-0.1 0.6-0.1 0.9l4.6 2.5c0-0.3 0-0.6 0.1-0.9 0.1-0.5 0-1.9 0-1.9l0.1-45.7c0-3.3 2.5-6.3 5.5-6.8l89.4-12.6-4.6-2.5-89.4 12.6z"/>
			</g>
		</g>
	</g>
	<g id="g358">
		<g id="g304">
			<g id="g302">
				<path id="path296" class="st16" d="m531.2 363.4l-4.6-2.5h-0.1-0.3l-51.9 7.3h-0.2-0.1c-0.1 0-0.2 0.1-0.2 0.2h-0.1c-0.1 0.1-0.1 0.1-0.1 0.2 0 0 0 0.1-0.1 0.1 0 0.1-0.1 0.2-0.1 0.3v2.2c0 0.3 0.1 0.5 0.4 0.7l4.6 2.5c-0.2-0.1-0.4-0.4-0.4-0.7v-2.2c0-0.1 0-0.2 0.1-0.3 0 0 0-0.1 0.1-0.1 0-0.1 0.1-0.1 0.1-0.2l0.1-0.1 0.2-0.2c0.1 0 0.1-0.1 0.2-0.1l51.9-7.3h0.3c0.1 0.2 0.1 0.2 0.2 0.2z"/>
				<g id="g300">
					<path id="path298" class="st11" d="m530.7 363.4c0.4-0.1 0.8 0.3 0.8 0.7v2.2c0 0.5-0.4 0.9-0.8 0.9l-51.9 7.3c-0.4 0.1-0.8-0.3-0.8-0.7v-2.2c0-0.5 0.3-0.9 0.8-0.9l51.9-7.3z"/>
				</g>
			</g>
		</g>
		<g id="g314">
			<g id="g312" class="st0">
				<path id="path306" class="st16" d="m565 335.4l-4.6-2.5h-0.1-0.3l-88.4 12.4h-0.2-0.1c-0.1 0-0.2 0.1-0.2 0.2h-0.1c-0.1 0.1-0.1 0.1-0.1 0.2 0 0 0 0.1-0.1 0.1 0 0.1-0.1 0.2-0.1 0.3v2.2c0 0.3 0.1 0.5 0.4 0.7l4.6 2.5c-0.2-0.1-0.4-0.4-0.4-0.7v-2.2c0-0.1 0-0.2 0.1-0.3 0 0 0-0.1 0.1-0.1 0-0.1 0.1-0.1 0.1-0.2l0.1-0.1c0.1-0.1 0.2-0.1 0.2-0.2 0.1 0 0.1-0.1 0.2-0.1l88.4-12.4h0.3c0.1 0.2 0.2 0.2 0.2 0.2z"/>
				<g id="g310">
					<path id="path308" class="st11" d="m564.6 335.3c0.4-0.1 0.8 0.3 0.8 0.7v2.2c0 0.5-0.3 0.9-0.8 0.9l-88.4 12.4c-0.4 0.1-0.8-0.3-0.8-0.7v-2.2c0-0.5 0.4-0.9 0.8-0.9l88.4-12.4z"/>
				</g>
			</g>
		</g>
		<g id="g336">
			<g id="g334" class="st0">
				<g id="g326" class="st0">
					<defs id="defs317">
						<path id="SVGID_3_" d="m475.7 363.1l-4.6-2.5c-0.2-0.1-0.4-0.4-0.4-0.7l4.6 2.5c0.1 0.3 0.2 0.5 0.4 0.7z" class="st0"/>
					</defs>
					<clipPath id="SVGID_4_">
						<use id="use319" xlink:href="#SVGID_3_"/>
					</clipPath>
					<g id="g324" class="st30" clip-path="url(#SVGID_4_)">
						<path id="path322" class="st12" d="m475.7 363.1l-4.6-2.5c-0.2-0.1-0.4-0.4-0.4-0.7l4.6 2.5c0.1 0.3 0.2 0.5 0.4 0.7"/>
					</g>
				</g>
				<path id="path328" class="st16" d="m565 346.9l-4.6-2.5h-0.1-0.3l-88.4 12.4h-0.2-0.1c-0.1 0-0.2 0.1-0.2 0.2h-0.1c-0.1 0.1-0.1 0.1-0.1 0.2 0 0 0 0.1-0.1 0.1 0 0.1-0.1 0.2-0.1 0.3v2.2l4.6 2.5v-2.2c0-0.1 0-0.2 0.1-0.3 0 0 0-0.1 0.1-0.1 0-0.1 0.1-0.1 0.1-0.2l0.1-0.1c0.1-0.1 0.2-0.1 0.2-0.2 0.1 0 0.1-0.1 0.2-0.1l88.4-12.4h0.3l0.2 0.2z"/>
				<g id="g332">
					<path id="path330" class="st11" d="m564.6 346.8c0.4-0.1 0.8 0.3 0.8 0.7v2.2c0 0.5-0.3 0.9-0.8 0.9l-88.4 12.4c-0.4 0.1-0.8-0.3-0.8-0.7v-2.2c0-0.5 0.4-0.9 0.8-0.9l88.4-12.4z"/>
				</g>
			</g>
		</g>
		<g id="g346">
			<g id="g344" class="st0">
				<path id="path338" class="st16" d="m565 322.7l-4.6-2.5h-0.1-0.3l-88.4 12.4h-0.2-0.1c-0.1 0-0.2 0.1-0.2 0.2h-0.1c-0.1 0.1-0.1 0.1-0.1 0.2 0 0 0 0.1-0.1 0.1 0 0.1-0.1 0.2-0.1 0.4v2.2c0 0.3 0.1 0.5 0.4 0.7l4.6 2.5c-0.2-0.1-0.4-0.4-0.4-0.7v-2.2c0-0.1 0-0.2 0.1-0.4 0 0 0-0.1 0.1-0.1 0-0.1 0.1-0.1 0.1-0.2 0 0 0.1 0 0.1-0.1l0.2-0.2c0.1 0 0.1-0.1 0.2-0.1l88.4-12.4h0.3c0.1 0.2 0.1 0.2 0.2 0.2z"/>
				<g id="g342">
					<path id="path340" class="st11" d="m564.6 322.6c0.4-0.1 0.8 0.3 0.8 0.7v2.2c0 0.5-0.3 0.9-0.8 1l-88.5 12.5c-0.4 0.1-0.8-0.3-0.8-0.7v-2.2c0-0.5 0.4-0.9 0.8-1l88.5-12.5z"/>
				</g>
			</g>
		</g>
		<g id="g356">
			<g id="g354" class="st0">
				<path id="path348" class="st17" d="m513.1 376.4c-0.5-0.3-1-0.4-1.6-0.3l-30.2 4.2c-1.6 0.2-3 1.9-3 3.7 0 0.3 0 0.5 0.1 0.7 0 0.1 0 0.1 0.1 0.2 0.1 0.2 0.1 0.3 0.2 0.5 0 0.1 0.1 0.1 0.1 0.2 0.1 0.2 0.2 0.4 0.4 0.5 0.2 0.2 0.4 0.3 0.6 0.4l2.3 1.2c-0.2-0.1-0.4-0.3-0.6-0.4-0.2-0.2-0.3-0.3-0.4-0.5 0-0.1-0.1-0.1-0.1-0.2-0.1-0.2-0.1-0.3-0.2-0.5 0-0.1 0-0.1-0.1-0.2-0.1-0.2-0.1-0.5-0.1-0.7 0-1.8 1.4-3.4 3-3.7l30.2-4.2c0.6-0.1 1.1 0 1.6 0.3l-2.3-1.2z"/>
				<g id="g352">
					<path id="path350" class="st18" d="m513.8 377.4c1.6-0.2 3 1 3 2.8s-1.4 3.4-3 3.7l-30.2 4.2c-1.6 0.2-3-1-3-2.8s1.4-3.4 3-3.7l30.2-4.2z"/>
				</g>
			</g>
		</g>
	</g>
	<g id="g384">
		<g id="g366" class="st0">
			<path id="path360" class="st10" d="m573 185c0.1 0 0.2 0 0.2 0.1l-2.3-1.2h-0.1-0.1-0.1-0.1l-10.2 1.4h-0.1s-0.1 0-0.1 0.1c-0.1 0-0.2 0.1-0.2 0.1h-0.1c-0.1 0-0.1 0.1-0.2 0.2 0 0 0 0.1-0.1 0.1l-0.1 0.1v0.1 0.1 0.2 0.1c0 0.4 0.2 0.6 0.4 0.8l2.3 1.2c-0.3-0.1-0.4-0.4-0.4-0.8 0-0.1 0-0.3 0.1-0.4 0-0.1 0.1-0.2 0.2-0.3l0.2-0.2c0.1-0.1 0.2-0.1 0.2-0.1 0.1 0 0.1-0.1 0.2-0.1l10.2-1.4c0-0.2 0.1-0.1 0.2-0.1z"/>
			<g id="g364">
				<path id="path362" class="st31" d="m572.7 185c0.5-0.1 0.9 0.3 0.9 0.9s-0.4 1.1-0.9 1.1l-10.2 1.4c-0.5 0.1-0.9-0.3-0.9-0.9s0.4-1.1 0.9-1.1l10.2-1.4z"/>
			</g>
		</g>
		<g id="g374" class="st0">
			<path id="path368" class="st10" d="m573.2 181.2l-2.3-1.2h-0.1-0.1-0.1-0.1l-10.2 1.4h-0.1s-0.1 0-0.1 0.1c-0.1 0-0.2 0.1-0.2 0.1h-0.1c-0.1 0-0.1 0.1-0.2 0.2 0 0 0 0.1-0.1 0.1l-0.1 0.1v0.1 0.1 0.2 0.1c0 0.4 0.2 0.7 0.4 0.8l2.3 1.2c-0.3-0.1-0.4-0.4-0.4-0.8 0-0.1 0-0.3 0.1-0.4 0-0.1 0.1-0.2 0.2-0.3l0.2-0.2c0.1-0.1 0.2-0.1 0.2-0.1 0.1 0 0.1-0.1 0.2-0.1l10.2-1.4h0.3c0-0.1 0 0 0.1 0z"/>
			<g id="g372">
				<path id="path370" class="st31" d="m572.7 181.1c0.5-0.1 0.9 0.3 0.9 0.9s-0.4 1.1-0.9 1.1l-10.2 1.4c-0.5 0.1-0.9-0.3-0.9-0.9s0.4-1.1 0.9-1.1l10.2-1.4z"/>
			</g>
		</g>
		<g id="g382" class="st0">
			<path id="path376" class="st10" d="m573 177.3c0.1 0 0.2 0 0.2 0.1l-2.3-1.2h-0.1-0.1-0.1-0.1l-10.2 1.4h-0.1s-0.1 0-0.1 0.1c-0.1 0-0.2 0.1-0.2 0.1h-0.1c-0.1 0-0.1 0.1-0.2 0.2 0 0 0 0.1-0.1 0.1l-0.1 0.1s0 0.1-0.1 0.1v0.1 0.2 0.1c0 0.3 0.1 0.5 0.3 0.7 0.1 0.1 0.1 0.1 0.2 0.1l2.3 1.2c-0.3-0.1-0.4-0.4-0.4-0.8 0-0.1 0-0.3 0.1-0.4 0-0.1 0.1-0.2 0.2-0.3l0.2-0.2c0.1-0.1 0.2-0.1 0.2-0.1 0.1 0 0.1-0.1 0.2-0.1l10.2-1.4c0-0.1 0.1-0.1 0.2-0.1z"/>
			<g id="g380">
				<path id="path378" class="st31" d="m572.7 177.3c0.5-0.1 0.9 0.3 0.9 0.9s-0.4 1.1-0.9 1.1l-10.2 1.4c-0.5 0.1-0.9-0.3-0.9-0.9s0.4-1.1 0.9-1.1l10.2-1.4z"/>
			</g>
		</g>
	</g>
	<g id="g392">
		<g id="g390">
			<g id="g388">
				<path id="path386" class="st25" d="m533.5 139.5c2.5-0.3 4.4 1.5 4.4 4.2s-2 5.1-4.5 5.4l-30.8 4.3c-2.5 0.3-4.4-1.5-4.4-4.2s2-5.1 4.5-5.4l30.8-4.3z"/>
			</g>
		</g>
	</g>
	<g id="g402">
		<g id="g400" class="st0">
			<path id="path394" class="st23" d="m429.1 189.4v-0.3-0.1-0.6-0.1c0-0.5-0.1-1-0.2-1.4v-0.1c-0.1-0.5-0.2-0.9-0.3-1.3-0.1-0.2-0.1-0.4-0.2-0.7v-0.1-0.1c0-0.1-0.1-0.2-0.1-0.3v-0.1s0-0.1-0.1-0.1c0-0.1-0.1-0.1-0.1-0.2v-0.1c0-0.1 0-0.1-0.1-0.2 0 0 0-0.1-0.1-0.1v-0.1c0-0.1-0.1-0.2-0.1-0.3-0.1-0.1-0.1-0.2-0.2-0.3 0 0 0-0.1-0.1-0.1l-0.1-0.1v-0.1s0-0.1-0.1-0.1c0 0 0-0.1-0.1-0.1l-0.1-0.1-0.1-0.1-0.1-0.1-0.6-0.5h-0.1c-0.1-0.1-0.2-0.1-0.3-0.1h-0.3l-1.9 0.2h0.3c0.1 0 0.2 0.1 0.3 0.2l0.6 0.5c0.1 0 0.1 0.1 0.2 0.2l0.1 0.1 0.1 0.1s0 0.1 0.1 0.1c0 0.1 0.1 0.1 0.1 0.2 0 0 0 0.1 0.1 0.1 0.1 0.1 0.1 0.2 0.2 0.3s0.1 0.2 0.2 0.3c0 0 0 0.1 0.1 0.1 0 0.1 0.1 0.2 0.1 0.2 0 0.1 0.1 0.1 0.1 0.2s0.1 0.2 0.1 0.2c0 0.1 0.1 0.2 0.1 0.3s0 0.1 0.1 0.2c0.1 0.2 0.1 0.4 0.2 0.7v0.1c0.1 0.4 0.2 0.9 0.3 1.3v0.1c0.1 0.5 0.1 0.9 0.2 1.4v0.1 0.6 0.4 16.8 0.9 0.1c0 0.3 0 0.5-0.1 0.8v0.1c0 0.2-0.1 0.5-0.1 0.7v0.1c0 0.2-0.1 0.4-0.2 0.6v0.1c-0.1 0.1-0.1 0.3-0.2 0.4 0 0.1 0 0.1-0.1 0.1-0.1 0.1-0.1 0.2-0.2 0.3s-0.2 0.2-0.3 0.2h-0.1c-0.1 0.1-0.2 0.1-0.3 0.1l1.9-0.2c0.1 0 0.2 0 0.3-0.1h0.1c0.1-0.1 0.2-0.1 0.3-0.2l0.2-0.2s0-0.1 0.1-0.1l0.1-0.1s0-0.1 0.1-0.1c0-0.1 0.1-0.2 0.1-0.3v-0.1c0-0.1 0.1-0.2 0.1-0.4v-0.2-0.1-0.1c0-0.1 0-0.2 0.1-0.4v-0.2-0.1-0.1-0.4-0.2-0.1-0.1-0.5-0.3-16.9z"/>
			<g id="g398">
				<path id="path396" class="st24" d="m424.5 181.6l0.6 0.5c1.2 0.9 2.1 4.3 2.1 7.5v16.8c0 3.2-1 5.2-2.1 4.3l-0.6-0.5c-1.2-0.9-2.1-4.3-2.1-7.5v-16.8c-0.1-3.3 0.9-5.2 2.1-4.3z"/>
			</g>
		</g>
	</g>
	<g id="g410">
		<g id="g408">
			<g id="g406">
				<path id="path404" class="st32" d="m453.8 136c2.9-0.2 6.1 0.2 7.1 1 1 0.7-0.5 1.5-3.4 1.7s-6.1-0.2-7.1-1c-1-0.7 0.5-1.5 3.4-1.7z"/>
			</g>
		</g>
	</g>
	<g id="g432">
		<g id="g430">
			<g id="g428" class="st0">
				<defs id="defs413">
					<polygon id="SVGID_5_" points="512.9 458.3 512.9 438.1 533.7 435.2 533.6 455.4" class="st0"/>
				</defs>
				<clipPath id="SVGID_6_">
					<use id="use415" xlink:href="#SVGID_5_"/>
				</clipPath>
				<g id="g426" class="st33" clip-path="url(#SVGID_6_)">
					<g id="g424">
						<g id="g422">
							<g id="g420">
								<path id="path418" class="st7" d="m513.8 457.2v-18.3l19-2.7v18.3l-19 2.7m19.9-22l-20.8 2.9v20.2l20.8-2.9v-20.2"/>
							</g>
						</g>
					</g>
				</g>
			</g>
		</g>
	</g>
</g>
</svg>
