<?xml version="1.0" encoding="utf-8"?>
<!-- Generator: Adobe Illustrator 22.0.1, SVG Export Plug-In . SVG Version: 6.00 Build 0)  -->
<svg version="1.1" id="Layer_1" xmlns="http://www.w3.org/2000/svg" xmlns:xlink="http://www.w3.org/1999/xlink" x="0px" y="0px"
	 viewBox="0 0 626.9 496.1" style="enable-background:new 0 0 626.9 496.1;" xml:space="preserve">
<style type="text/css">
	.st0{enable-background:new    ;}
	.st1{fill:#173A6A;}
	.st2{fill:#2A6AC3;}
	.st3{fill:#FCFCFC;}
	.st4{opacity:0.502;fill:#FCFCFC;}
	.st5{opacity:0.8;fill:#E4E4E4;}
	.st6{clip-path:url(#SVGID_2_);}
	.st7{fill:#FFFFFF;}
	.st8{fill:#425692;}
	.st9{fill:#7294FA;}
	.st10{fill:#3E784B;}
	.st11{fill:#72DE8B;}
	.st12{fill:#3B7247;}
	.st13{fill:#73DF8B;}
	.st14{fill:#3A4C80;}
	.st15{fill:#7395FC;}
	.st16{fill:#3C7449;}
	.st17{fill:#132B4E;}
	.st18{fill:#255498;}
	.st19{fill:#400069;}
	.st20{fill:#210036;}
	.st21{fill:#D2007C;}
	.st22{fill:#6E0041;}
	.st23{fill:#587783;}
	.st24{fill:#A6E2F9;}
	.st25{fill:#00203B;}
	.st26{fill:#3F528B;}
	.st27{fill:#7092F6;}
	.st28{fill:#3B4C81;}
	.st29{fill:#6D8EF0;}
	.st30{clip-path:url(#SVGID_4_);enable-background:new    ;}
	.st31{fill:#72DD8B;}
	.st32{fill:#001943;}
	.st33{clip-path:url(#SVGID_6_);}
</style>
<g>
	<g>
		<g class="st0">
			<path class="st1" d="M365.4,22.4c0.2,0,0.4,0,0.6,0c0.3,0,0.6,0,0.9,0.1c0.2,0,0.4,0,0.6,0.1c0.3,0,0.6,0.1,0.9,0.1
				c0.2,0,0.4,0.1,0.6,0.1c0.3,0.1,0.6,0.1,0.9,0.2c0.2,0,0.4,0.1,0.6,0.1c0.3,0.1,0.6,0.2,0.9,0.3c0.2,0.1,0.4,0.1,0.6,0.2
				c0.3,0.1,0.6,0.2,0.9,0.3c0.2,0.1,0.3,0.1,0.5,0.2c0.4,0.2,0.9,0.4,1.3,0.6l0,0c0,0,0,0,0,0l-13.7-7.4c-0.4-0.2-0.8-0.4-1.2-0.6
				c0,0-0.1,0-0.1,0c-0.2-0.1-0.3-0.1-0.5-0.2c-0.3-0.1-0.6-0.2-0.9-0.3c-0.2-0.1-0.4-0.1-0.6-0.2c-0.2-0.1-0.4-0.1-0.6-0.2
				c-0.1,0-0.2,0-0.3-0.1c-0.2-0.1-0.4-0.1-0.6-0.1c-0.3-0.1-0.6-0.1-0.9-0.2c-0.2,0-0.4-0.1-0.6-0.1c-0.1,0-0.2,0-0.3-0.1
				c-0.2,0-0.4,0-0.6-0.1c-0.2,0-0.4-0.1-0.6-0.1c-0.3,0-0.6,0-0.9-0.1c-0.2,0-0.4,0-0.6,0c-0.1,0-0.1,0-0.2,0c-0.3,0-0.6,0-0.9,0
				c-0.2,0-0.3,0-0.5,0c-0.5,0-1.1,0.1-1.6,0.2L46.4,57.6c-0.2,0-0.3,0-0.5,0.1c-0.1,0-0.2,0-0.3,0.1c-0.2,0-0.5,0.1-0.7,0.1
				c-0.2,0-0.4,0.1-0.5,0.1c-0.2,0.1-0.5,0.1-0.7,0.2c-0.2,0-0.3,0.1-0.5,0.1c-0.2,0.1-0.5,0.1-0.7,0.2c-0.2,0.1-0.3,0.1-0.5,0.2
				c-0.2,0.1-0.5,0.2-0.7,0.3c-0.1,0-0.2,0.1-0.4,0.1c0,0,0,0-0.1,0c-0.6,0.2-1.1,0.5-1.7,0.8C39,60,38.9,60,38.8,60.1
				c-0.5,0.3-1.1,0.6-1.6,0.9c-0.1,0.1-0.2,0.1-0.3,0.2c-0.5,0.3-1.1,0.7-1.6,1.1c0,0-0.1,0.1-0.1,0.1c-0.5,0.4-1,0.8-1.5,1.2
				c0,0-0.1,0.1-0.1,0.1c0,0,0,0-0.1,0.1c-0.3,0.3-0.7,0.6-1,0.9c-0.1,0.1-0.1,0.1-0.2,0.2c-0.3,0.3-0.5,0.5-0.8,0.8
				c-0.1,0.1-0.2,0.2-0.3,0.3c-0.2,0.2-0.4,0.4-0.6,0.7c-0.1,0.1-0.2,0.3-0.3,0.4c-0.2,0.2-0.4,0.5-0.6,0.7
				c-0.1,0.1-0.1,0.2-0.2,0.2c0,0-0.1,0.1-0.1,0.1c-0.3,0.5-0.7,0.9-1,1.4c-0.1,0.1-0.1,0.2-0.2,0.3c-0.3,0.4-0.6,0.9-0.8,1.3
				c0,0.1-0.1,0.1-0.1,0.2c0,0,0,0.1,0,0.1c-0.3,0.4-0.5,0.9-0.7,1.3c-0.1,0.1-0.1,0.2-0.1,0.3c-0.2,0.4-0.4,0.7-0.5,1.1
				c0,0.1-0.1,0.1-0.1,0.2c0,0.1-0.1,0.2-0.1,0.2c-0.1,0.3-0.3,0.6-0.4,0.9c-0.1,0.1-0.1,0.3-0.2,0.4c-0.2,0.4-0.3,0.9-0.5,1.4
				c0,0,0,0,0,0c0,0,0,0,0,0c-0.1,0.4-0.3,0.9-0.4,1.3c0,0.1-0.1,0.3-0.1,0.4c-0.1,0.3-0.2,0.6-0.2,1c0,0.1,0,0.2-0.1,0.2
				c0,0.1,0,0.2,0,0.2c-0.1,0.4-0.1,0.7-0.2,1.1c0,0.1,0,0.3-0.1,0.4c-0.1,0.5-0.1,1-0.2,1.5c0,0,0,0,0,0.1c0,0,0,0.1,0,0.1
				c-0.1,0.8-0.1,1.5-0.1,2.3l-0.6,340c0,0.5,0,1.1,0,1.6c0,0,0,0,0,0c0,0.1,0,0.3,0,0.4c0,0.4,0.1,0.8,0.1,1.2
				c0,0.2,0.1,0.4,0.1,0.6c0,0.3,0.1,0.6,0.1,0.9c0,0.2,0.1,0.4,0.1,0.6c0.1,0.3,0.1,0.6,0.2,0.9c0.1,0.2,0.1,0.4,0.2,0.6
				c0.1,0.3,0.1,0.5,0.2,0.8c0.1,0.2,0.1,0.4,0.2,0.6c0.1,0.3,0.2,0.5,0.3,0.8c0.1,0.2,0.2,0.4,0.2,0.6c0.1,0.2,0.2,0.5,0.3,0.7
				c0.1,0.2,0.2,0.4,0.3,0.6c0.1,0.2,0.2,0.5,0.4,0.7c0.1,0.2,0.2,0.4,0.3,0.6c0.1,0.2,0.3,0.4,0.4,0.7c0.1,0.2,0.2,0.4,0.3,0.5
				c0.1,0.2,0.3,0.4,0.4,0.6c0.1,0.2,0.2,0.3,0.4,0.5c0.2,0.2,0.3,0.4,0.5,0.6c0.1,0.2,0.3,0.3,0.4,0.5c0.2,0.2,0.3,0.4,0.5,0.6
				c0.1,0.1,0.3,0.3,0.4,0.4c0.2,0.2,0.4,0.4,0.6,0.5c0.1,0.1,0.3,0.3,0.4,0.4c0.2,0.2,0.4,0.3,0.6,0.5c0.1,0.1,0.3,0.2,0.4,0.3
				c0.2,0.2,0.5,0.3,0.7,0.5c0.1,0.1,0.2,0.2,0.4,0.2c0.4,0.2,0.8,0.5,1.2,0.7l13.7,7.4c-0.4-0.2-0.8-0.4-1.2-0.7
				c-0.1-0.1-0.2-0.2-0.4-0.2c-0.2-0.2-0.5-0.3-0.7-0.5c-0.1-0.1-0.3-0.2-0.4-0.3c-0.2-0.2-0.4-0.3-0.6-0.5
				c-0.1-0.1-0.3-0.3-0.4-0.4c-0.2-0.2-0.4-0.3-0.6-0.5c-0.1-0.1-0.3-0.3-0.4-0.4c-0.2-0.2-0.4-0.4-0.5-0.6
				c-0.1-0.2-0.3-0.3-0.4-0.5c-0.2-0.2-0.3-0.4-0.5-0.6c-0.1-0.2-0.2-0.3-0.4-0.5c-0.1-0.2-0.3-0.4-0.4-0.6
				c-0.1-0.2-0.2-0.3-0.3-0.5c-0.1-0.2-0.3-0.4-0.4-0.7c-0.1-0.2-0.2-0.4-0.3-0.6c-0.1-0.2-0.2-0.5-0.4-0.7
				c-0.1-0.2-0.2-0.4-0.3-0.6c-0.1-0.2-0.2-0.5-0.3-0.7c-0.1-0.2-0.2-0.4-0.2-0.6c-0.1-0.2-0.2-0.5-0.3-0.8
				c-0.1-0.2-0.1-0.4-0.2-0.6c-0.1-0.3-0.2-0.5-0.2-0.8c-0.1-0.2-0.1-0.4-0.2-0.6c-0.1-0.3-0.1-0.6-0.2-0.9c0-0.2-0.1-0.4-0.1-0.6
				c-0.1-0.3-0.1-0.6-0.1-0.9c0-0.2-0.1-0.4-0.1-0.6c0-0.4-0.1-0.8-0.1-1.2c0-0.1,0-0.3,0-0.4c0-0.5,0-1.1,0-1.6l0.6-340
				c0-0.8,0-1.5,0.1-2.3c0-0.1,0-0.1,0-0.2c0-0.5,0.1-1,0.2-1.5c0-0.1,0-0.3,0.1-0.4c0.1-0.4,0.1-0.8,0.2-1.1c0-0.2,0.1-0.3,0.1-0.5
				c0.1-0.3,0.2-0.7,0.2-1c0-0.1,0.1-0.3,0.1-0.4c0.1-0.5,0.3-0.9,0.4-1.3c0,0,0,0,0,0c0.1-0.5,0.3-0.9,0.5-1.4
				c0.1-0.1,0.1-0.3,0.2-0.4c0.1-0.3,0.3-0.6,0.4-0.9c0.1-0.1,0.1-0.3,0.2-0.4c0.2-0.4,0.3-0.7,0.5-1.1c0.1-0.1,0.1-0.2,0.2-0.3
				c0.2-0.4,0.5-0.9,0.7-1.3c0.1-0.1,0.1-0.2,0.2-0.3c0.3-0.4,0.5-0.9,0.8-1.3c0.1-0.1,0.1-0.2,0.2-0.3c0.3-0.5,0.7-0.9,1-1.4
				c0.1-0.1,0.2-0.2,0.3-0.4c0.2-0.2,0.4-0.5,0.6-0.7c0.1-0.1,0.2-0.3,0.3-0.4c0.2-0.2,0.4-0.5,0.6-0.7c0.1-0.1,0.2-0.2,0.3-0.3
				c0.3-0.3,0.5-0.5,0.8-0.8c0.1-0.1,0.1-0.1,0.2-0.2c0.3-0.3,0.7-0.6,1-0.9c0.1,0,0.1-0.1,0.2-0.1c0.5-0.4,1-0.8,1.5-1.2
				c0,0,0.1-0.1,0.1-0.1c0.5-0.4,1-0.7,1.6-1.1c0.1-0.1,0.2-0.1,0.3-0.2c0.5-0.3,1.1-0.6,1.6-0.9c0.1-0.1,0.2-0.1,0.3-0.2
				c0.6-0.3,1.1-0.5,1.7-0.8c0.1-0.1,0.3-0.1,0.4-0.2c0.2-0.1,0.5-0.2,0.7-0.3c0.2-0.1,0.3-0.1,0.5-0.2c0.2-0.1,0.5-0.2,0.7-0.2
				c0.2-0.1,0.3-0.1,0.5-0.1c0.2-0.1,0.5-0.1,0.7-0.2c0.2,0,0.4-0.1,0.5-0.1c0.2-0.1,0.5-0.1,0.7-0.1c0.3,0,0.5-0.1,0.8-0.1
				l302.1-42.5c0.5-0.1,1.1-0.1,1.6-0.2c0.2,0,0.3,0,0.5,0C364.7,22.4,365,22.4,365.4,22.4z"/>
			<g>
				<path class="st2" d="M362.2,22.6c12.7-1.8,23.1,8,23.1,21.8l-0.6,340c0,13.8-10.5,26.5-23.2,28.3L59.4,455.1
					c-12.7,1.8-23.2-8-23.1-21.7l0.6-340c0-13.8,10.5-26.5,23.2-28.3L362.2,22.6z"/>
			</g>
		</g>
	</g>
	<g>
		<g>
			<g>
				<path class="st3" d="M353.5,46.5c7.1-1,12.9,4.4,12.9,12.1l-0.5,288.9c0,7.7-5.8,14.8-12.9,15.8L72.6,402.6
					c-7.1,1-12.9-4.4-12.9-12.1l0.5-288.9c0-7.7,5.8-14.7,12.9-15.7L353.5,46.5z M361.4,348.1L362,59.2c0-5-3.8-8.6-8.4-7.9
					L73.2,90.7c-4.7,0.7-8.5,5.3-8.5,10.3l-0.5,288.9c0,5,3.8,8.6,8.4,7.9L353,358.4C357.6,357.7,361.4,353.1,361.4,348.1"/>
			</g>
			<g>
				<path class="st4" d="M353.5,51.3c4.7-0.7,8.4,2.9,8.4,7.9l-0.5,288.9c0,5-3.8,9.7-8.5,10.3L72.6,397.8c-4.7,0.7-8.5-2.9-8.4-7.9
					L64.7,101c0-5,3.8-9.7,8.5-10.3L353.5,51.3z"/>
			</g>
		</g>
	</g>
	<g>
		<g>
			<g>
				<path class="st5" d="M242.9,386.3c5.9-0.8,10.7,3.7,10.7,10l0,11.9c0,6.3-4.8,12.2-10.7,13l-18.3,2.6c-5.9,0.8-10.7-3.7-10.7-10
					l0-11.9c0-6.3,4.8-12.2,10.7-13L242.9,386.3z"/>
			</g>
		</g>
	</g>
	<g>
		<g>
			<g class="st0">
				<defs>
					<polygon id="SVGID_1_" class="st0" points="220.7,419.9 220.8,394.7 246.7,391.1 246.6,416.3 					"/>
				</defs>
				<clipPath id="SVGID_2_">
					<use xlink:href="#SVGID_1_"  style="overflow:visible;"/>
				</clipPath>
				<g class="st6">
					<g>
						<g>
							<g>
								<path class="st7" d="M221.6,418.8l0-23.3l24.1-3.4l0,23.3L221.6,418.8 M246.7,391.1l-25.9,3.6l0,25.2l25.9-3.6L246.7,391.1"
									/>
							</g>
						</g>
					</g>
				</g>
			</g>
		</g>
	</g>
	<g>
		<g class="st0">
			<polygon class="st8" points="346.3,74.6 74.8,112.7 74.8,148.4 83.9,153.4 83.9,117.7 355.4,79.5 			"/>
			<g>
				<polygon class="st9" points="355.4,79.5 355.4,115.2 83.9,153.4 83.9,117.7 				"/>
			</g>
		</g>
	</g>
	<g>
		<g class="st0">
			<polygon class="st10" points="244.7,111.8 92.6,133.2 92.6,141.8 97.1,144.3 97.1,135.7 249.3,114.3 			"/>
			<g>
				<polygon class="st11" points="249.3,114.3 249.3,122.9 97.1,144.3 97.1,135.7 				"/>
			</g>
		</g>
	</g>
	<g>
		<g class="st0">
			<polygon class="st10" points="192.6,106.9 93.3,120.8 93.3,127.5 97.9,130 97.9,123.3 197.1,109.4 			"/>
			<g>
				<polygon class="st11" points="197.1,109.4 197.1,116 97.9,130 97.9,123.3 				"/>
			</g>
		</g>
	</g>
	<g>
		<g class="st0">
			<g>
				<path class="st12" d="M337.5,100.3c0.3-0.1,0.6-0.3,0.8-0.5l0.3-0.2l-2.3-1.2l-0.3,0.2c-0.6,0.5-1.3,0.7-2,0.8
					c-0.8,0.1-1.5,0-2.2-0.4l2.3,1.2c0.7,0.4,1.4,0.5,2.2,0.4c0.2,0,0.5-0.1,0.7-0.2l4.9,4.6l2.3,1.2l-5.8-5.5L337.5,100.3z"/>
				<path class="st12" d="M339.5,99l0.1-0.3c0.1-0.2,0.2-0.5,0.3-0.8c0.5-1.4,1.1-2.8,0.1-4.2c-0.3-0.7-0.8-1.1-1.4-1.5l-2.3-1.2
					c0.6,0.3,1.1,0.8,1.4,1.5c0.9,1.5,0.4,2.9-0.1,4.2c-0.1,0.3-0.2,0.5-0.3,0.8l-0.1,0.3l5.5,5.3l-0.7,0.7l2.3,1.2l0.7-0.7
					L339.5,99z"/>
				<path class="st12" d="M332,99.4c-0.6-1.2-0.8-2.6-0.4-4c0.4-1.4,1.2-2.7,2.4-3.5c0.8-0.5,1.6-0.9,2.4-1c0.9-0.1,1.9,0,2.7,0.5
					l-2.3-1.2c-0.8-0.4-1.7-0.6-2.7-0.5c-0.8,0.1-1.6,0.4-2.4,1c-1.2,0.9-2,2.1-2.4,3.5c-0.4,1.4-0.2,2.9,0.4,4
					c0.4,0.8,1,1.4,1.7,1.7l2.3,1.2C333,100.8,332.4,100.2,332,99.4z"/>
			</g>
			<g>
				<path class="st13" d="M340.5,98.6l5.8,5.6l-2,2.1l-5.8-5.5c-0.7,0.4-1.4,0.7-2.1,0.8c-1.8,0.2-3.5-0.5-4.4-2.2
					c-0.6-1.2-0.8-2.6-0.4-4c0.4-1.4,1.2-2.7,2.4-3.5c0.8-0.5,1.6-0.9,2.4-1c1.8-0.2,3.5,0.5,4.4,2.2c1.1,1.9,0.4,3.7-0.1,5.1
					C340.6,98.3,340.6,98.4,340.5,98.6z M338.6,99.6l5.7,5.4l0.7-0.7l-5.5-5.3l0.1-0.3c0.1-0.2,0.2-0.5,0.3-0.8
					c0.5-1.4,1.1-2.8,0.1-4.2c-0.7-1.4-2.2-2-3.6-1.8c-0.7,0.1-1.3,0.4-1.9,0.8c-1,0.7-1.7,1.7-2,2.9c-0.3,1.2-0.2,2.4,0.3,3.3
					c0.7,1.4,2.1,2,3.6,1.8c0.7-0.1,1.3-0.4,2-0.8L338.6,99.6"/>
			</g>
		</g>
	</g>
	<g>
		<g>
			<g class="st0">
				<polygon class="st14" points="346.7,126.8 79.1,164.4 78.7,365 87.9,370 88.2,169.3 355.8,131.7 				"/>
				<g>
					<polygon class="st15" points="355.8,131.7 355.5,332.4 87.9,370 88.2,169.3 					"/>
				</g>
			</g>
		</g>
		<g>
			<g>
				<g class="st0">
					<path class="st16" d="M307.8,248.9l-4.6-2.5c0,0,0,0-0.1,0c0,0,0,0,0,0c-0.1,0-0.2,0-0.3,0l-60.5,8.5c-0.1,0-0.1,0-0.2,0
						c0,0,0,0-0.1,0c-0.1,0-0.2,0.1-0.2,0.2c0,0,0,0-0.1,0c0,0,0,0,0,0c-0.1,0.1-0.1,0.1-0.1,0.2c0,0,0,0.1-0.1,0.1
						c0,0.1-0.1,0.2-0.1,0.4l0,5.3c0,0.2,0,0.3,0.1,0.4c0.1,0.1,0.2,0.2,0.3,0.3l4.6,2.5c-0.2-0.1-0.4-0.4-0.4-0.7l0-5.3
						c0-0.1,0-0.2,0.1-0.4c0,0,0-0.1,0.1-0.1c0-0.1,0.1-0.1,0.1-0.2c0,0,0.1,0,0.1-0.1c0.1-0.1,0.1-0.1,0.2-0.2
						c0.1,0,0.1-0.1,0.2-0.1l60.5-8.5c0.1,0,0.2,0,0.3,0C307.8,248.9,307.8,248.9,307.8,248.9z"/>
					<g>
						<path class="st11" d="M307.4,248.8c0.4-0.1,0.8,0.3,0.8,0.7l0,5.3c0,0.5-0.4,0.9-0.8,1l-60.5,8.5c-0.4,0.1-0.8-0.3-0.8-0.7
							l0-5.3c0-0.5,0.3-0.9,0.8-1L307.4,248.8z"/>
					</g>
				</g>
			</g>
			<g>
				<g class="st0">
					<path class="st16" d="M347,200.3C347,200.3,347,200.3,347,200.3l-4.6-2.5c0,0,0,0-0.1,0c0,0,0,0,0,0c-0.1,0-0.2,0-0.3,0
						l-102.8,14.4c-0.1,0-0.1,0-0.2,0c0,0,0,0-0.1,0c-0.1,0-0.2,0.1-0.2,0.2c0,0,0,0-0.1,0c0,0,0,0,0,0c-0.1,0.1-0.1,0.1-0.1,0.2
						c0,0,0,0.1-0.1,0.1c0,0.1-0.1,0.2-0.1,0.3l0,5.3c0,0.3,0.1,0.5,0.4,0.7l4.6,2.5c-0.2-0.1-0.4-0.4-0.4-0.7l0-5.3
						c0-0.1,0-0.2,0.1-0.3c0,0,0-0.1,0.1-0.1c0-0.1,0.1-0.1,0.1-0.2c0,0,0,0,0.1-0.1c0.1-0.1,0.2-0.1,0.2-0.2c0.1,0,0.1-0.1,0.2-0.1
						l102.8-14.4c0.1,0,0.2,0,0.3,0C347,200.3,347,200.3,347,200.3L347,200.3z"/>
					<g>
						<path class="st11" d="M346.6,200.3c0.4-0.1,0.8,0.3,0.8,0.7l0,5.3c0,0.5-0.3,0.9-0.8,0.9l-102.8,14.4
							c-0.4,0.1-0.8-0.3-0.8-0.7l0-5.3c0-0.5,0.4-0.9,0.8-0.9L346.6,200.3z"/>
					</g>
				</g>
			</g>
			<g>
				<g class="st0">
					<path class="st16" d="M347,220.9C347,220.9,347,220.9,347,220.9l-4.6-2.5c0,0,0,0-0.1,0c0,0,0,0,0,0c-0.1,0-0.2,0-0.3,0
						l-102.8,14.4c-0.1,0-0.1,0-0.2,0c0,0,0,0-0.1,0c-0.1,0-0.2,0.1-0.2,0.2c0,0,0,0-0.1,0c0,0,0,0,0,0c-0.1,0.1-0.1,0.1-0.1,0.2
						c0,0,0,0.1-0.1,0.1c0,0.1-0.1,0.2-0.1,0.3l0,5.3c0,0.3,0.1,0.5,0.4,0.7l4.6,2.5c-0.2-0.1-0.4-0.4-0.4-0.7l0-5.3
						c0-0.1,0-0.2,0.1-0.3c0,0,0-0.1,0.1-0.1c0-0.1,0.1-0.1,0.1-0.2c0,0,0,0,0.1-0.1c0.1-0.1,0.2-0.1,0.2-0.2c0.1,0,0.1-0.1,0.2-0.1
						l102.8-14.4c0.1,0,0.2,0,0.3,0C347,220.9,347,220.9,347,220.9L347,220.9z"/>
					<g>
						<path class="st11" d="M346.6,220.8c0.4-0.1,0.8,0.3,0.8,0.7l0,5.3c0,0.5-0.3,0.9-0.8,0.9l-102.8,14.4
							c-0.4,0.1-0.8-0.3-0.8-0.7l0-5.3c0-0.5,0.4-0.9,0.8-0.9L346.6,220.8z"/>
					</g>
				</g>
			</g>
			<g>
				<g class="st0">
					<path class="st16" d="M347,177.6l-4.6-2.5c0,0,0,0-0.1,0c0,0,0,0,0,0c-0.1,0-0.2,0-0.3,0l-102.8,14.4c-0.1,0-0.1,0-0.2,0
						c0,0,0,0-0.1,0c-0.1,0-0.2,0.1-0.2,0.2c0,0,0,0-0.1,0c0,0,0,0,0,0c-0.1,0.1-0.1,0.1-0.1,0.2c0,0,0,0.1-0.1,0.1
						c0,0.1-0.1,0.2-0.1,0.3l0,5.3c0,0.3,0.1,0.5,0.4,0.7l4.6,2.5c-0.2-0.1-0.4-0.4-0.4-0.7l0-5.3c0-0.1,0-0.2,0.1-0.3
						c0,0,0-0.1,0.1-0.1c0-0.1,0.1-0.1,0.1-0.2c0,0,0,0,0.1-0.1c0.1-0.1,0.2-0.1,0.2-0.2c0.1,0,0.1-0.1,0.2-0.1l102.8-14.4
						c0.1,0,0.2,0,0.3,0C347,177.6,347,177.6,347,177.6z"/>
					<g>
						<path class="st11" d="M346.6,177.5c0.4-0.1,0.8,0.3,0.8,0.7l0,5.3c0,0.5-0.3,0.9-0.8,0.9l-102.8,14.4
							c-0.4,0.1-0.8-0.3-0.8-0.7l0-5.3c0-0.5,0.4-0.9,0.8-0.9L346.6,177.5z"/>
					</g>
				</g>
			</g>
			<g>
				<g class="st0">
					<path class="st17" d="M287.1,272.7c-0.6-0.4-1.4-0.5-2.2-0.4l-33.5,4.7c-2.3,0.3-4.2,2.6-4.2,5.1l0,2.5c0,0.3,0,0.5,0.1,0.8
						c0,0.1,0,0.1,0,0.2c0,0.2,0.1,0.5,0.2,0.7c0,0,0,0,0,0c0.1,0.2,0.2,0.4,0.3,0.6c0,0,0.1,0.1,0.1,0.1c0.1,0.2,0.2,0.3,0.4,0.5
						c0,0,0,0,0,0c0,0,0,0,0,0c0.1,0.1,0.2,0.2,0.3,0.2c0,0,0.1,0.1,0.1,0.1c0.1,0.1,0.3,0.2,0.4,0.3l2.3,1.2
						c-0.1-0.1-0.3-0.2-0.4-0.3c0,0-0.1-0.1-0.1-0.1c-0.1-0.1-0.2-0.1-0.3-0.2c0,0,0,0,0,0c-0.1-0.1-0.3-0.3-0.4-0.5
						c0,0-0.1-0.1-0.1-0.1c-0.1-0.2-0.2-0.4-0.3-0.6c0,0,0,0,0,0c-0.1-0.2-0.1-0.4-0.2-0.7c0-0.1,0-0.1,0-0.2c0-0.2-0.1-0.5-0.1-0.8
						l0-2.5c0-2.5,1.9-4.8,4.2-5.1l33.5-4.7c0.8-0.1,1.6,0,2.2,0.4L287.1,272.7z"/>
					<g>
						<path class="st18" d="M287.1,273.6c2.3-0.3,4.2,1.4,4.2,3.9l0,2.5c0,2.5-1.9,4.8-4.2,5.1l-33.5,4.7c-2.3,0.3-4.2-1.4-4.2-3.9
							l0-2.5c0-2.5,1.9-4.8,4.2-5.1L287.1,273.6z"/>
					</g>
				</g>
			</g>
		</g>
		<g>
			<g class="st0">
				<g>
					<path class="st19" d="M152,224.8c3.9-0.5,7,2.6,7,7.1c0,4.5-3.2,8.5-7,9.1c-3.9,0.5-7-2.6-7-7.1
						C144.9,229.4,148.1,225.4,152,224.8z"/>
				</g>
				<path class="st20" d="M101.5,330.9l-0.1-39.3l-4.6-2.5l0.1,39.3c0,1.7,0.8,3.1,2,3.7l4.6,2.5
					C102.3,333.9,101.5,332.6,101.5,330.9z"/>
				<g>
					<path class="st21" d="M222.7,193.2c3.1-0.4,5.5,1.9,5.5,5.2l-0.2,80.8c0-1.2-0.4-2.4-1.2-3.1l-41.8-42.3
						c-0.8-0.8-1.8-1.1-2.9-1c-1,0.1-2.1,0.7-2.9,1.8l-23.7,30.5c-0.8,1-1.8,1.6-2.9,1.8s-2.1-0.2-2.8-1L136,251.7
						c-0.8-0.8-1.8-1.1-2.9-1c-1,0.1-2.1,0.7-2.9,1.8l-27.6,35.6c-0.5,0.6-0.8,1.4-1,2.1l0.1-74.2c0-3.3,2.5-6.3,5.5-6.8
						L222.7,193.2z M151.9,241c3.9-0.5,7-4.6,7-9.1c0-4.5-3.1-7.6-7-7.1c-3.9,0.5-7,4.6-7,9.1C144.9,238.4,148.1,241.5,151.9,241"/>
				</g>
				<g>
					<path class="st19" d="M182.3,232.9c1-0.1,2.1,0.2,2.9,1l41.8,42.3c0.8,0.8,1.2,1.9,1.2,3.1l-0.1,33.9c0,2.6-1.8,4.9-4,5.2
						l-118.5,16.6c-2.2,0.3-4-1.5-4-4.1l-0.1-39.3c0-0.4,0.1-0.9,0.2-1.3c0.2-0.8,0.5-1.5,1-2.1l27.6-35.6c0.8-1,1.8-1.6,2.9-1.8
						c1-0.1,2.1,0.2,2.9,1L150,266c0.8,0.8,1.8,1.1,2.8,1c1-0.1,2.1-0.7,2.9-1.8l23.7-30.5C180.2,233.6,181.3,233,182.3,232.9z"/>
				</g>
				<path class="st22" d="M221.1,191.2c-0.9-0.5-1.9-0.7-3-0.5l-115.4,16.2c-3.1,0.4-5.5,3.4-5.5,6.8L97,287.8l0,0l0,0
					c-0.1,0.4-0.2,0.9-0.2,1.3l4.6,2.5c0-0.4,0.1-0.9,0.2-1.3c0.2-0.8,0-2.7,0-2.7l0.1-71.4c0-3.3,2.5-6.3,5.5-6.8l115.4-16.2
					c1.1-0.2,2.1,0,3,0.5L221.1,191.2z"/>
			</g>
		</g>
	</g>
	<g>
		<g class="st0">
			<path class="st23" d="M33.6,148.9c0-0.1,0-0.2,0-0.3c0,0,0-0.1,0-0.1c0-0.2,0-0.4,0-0.6c0,0,0-0.1,0-0.1c0,0,0,0,0,0
				c0-0.5-0.1-1-0.2-1.4c0,0,0-0.1,0-0.1c-0.1-0.5-0.2-0.9-0.3-1.3c0,0,0,0,0,0c0,0,0,0,0,0c-0.1-0.2-0.1-0.4-0.2-0.7c0,0,0,0,0-0.1
				c0,0,0-0.1,0-0.1c0-0.1-0.1-0.2-0.1-0.3c0,0,0-0.1,0-0.1c0,0,0-0.1-0.1-0.1c0-0.1-0.1-0.1-0.1-0.2c0,0,0-0.1,0-0.1
				c0-0.1,0-0.1-0.1-0.2c0,0,0-0.1-0.1-0.1c0,0,0,0,0-0.1c0-0.1-0.1-0.2-0.1-0.3c0,0,0,0,0-0.1c0,0,0,0,0,0
				c-0.1-0.1-0.1-0.2-0.2-0.3c0,0,0,0,0,0c0,0,0-0.1-0.1-0.1c0,0-0.1-0.1-0.1-0.1c0,0,0,0,0-0.1c0,0,0-0.1-0.1-0.1
				c0,0,0-0.1-0.1-0.1c0,0,0,0-0.1-0.1c0,0-0.1-0.1-0.1-0.1c0,0,0,0,0,0c0,0-0.1-0.1-0.1-0.1l-1.4-1.1c0,0,0,0-0.1,0
				c-0.1-0.1-0.2-0.1-0.3-0.1c0,0,0,0,0,0c0,0,0,0,0,0c-0.1,0-0.2,0-0.3,0l-1.9,0.2c0.1,0,0.2,0,0.3,0c0,0,0,0,0,0
				c0.1,0,0.2,0.1,0.3,0.2l1.4,1.1c0.1,0,0.1,0.1,0.2,0.2c0,0,0.1,0.1,0.1,0.1c0,0,0.1,0.1,0.1,0.1c0,0,0,0.1,0.1,0.1
				c0,0.1,0.1,0.1,0.1,0.2c0,0,0,0.1,0.1,0.1c0.1,0.1,0.1,0.2,0.2,0.3c0,0,0,0,0,0.1c0,0.1,0.1,0.2,0.1,0.3c0,0,0,0.1,0.1,0.1
				c0,0.1,0.1,0.2,0.1,0.2c0,0.1,0.1,0.1,0.1,0.2c0,0.1,0.1,0.2,0.1,0.2c0,0.1,0.1,0.2,0.1,0.3c0,0.1,0,0.1,0.1,0.2
				c0.1,0.2,0.1,0.4,0.2,0.7c0,0,0,0,0,0.1c0.1,0.4,0.2,0.9,0.3,1.3c0,0,0,0.1,0,0.1c0.1,0.5,0.1,0.9,0.2,1.4c0,0,0,0.1,0,0.1
				c0,0.2,0,0.4,0,0.6c0,0.1,0,0.3,0,0.4l0,29.7c0,0.3,0,0.6,0,0.9c0,0,0,0.1,0,0.1c0,0.3,0,0.5-0.1,0.8c0,0,0,0.1,0,0.1
				c0,0.2-0.1,0.5-0.1,0.7c0,0,0,0.1,0,0.1c0,0.2-0.1,0.4-0.2,0.6c0,0,0,0,0,0.1c0,0.1-0.1,0.3-0.2,0.4c0,0.1-0.1,0.1-0.1,0.1
				c-0.1,0.1-0.1,0.2-0.2,0.3c0,0,0,0,0,0c-0.1,0.1-0.2,0.2-0.3,0.2c0,0,0,0-0.1,0c-0.1,0.1-0.2,0.1-0.3,0.1l1.9-0.2
				c0.1,0,0.2,0,0.3-0.1c0,0,0,0,0.1,0c0.1-0.1,0.2-0.1,0.3-0.2c0,0,0,0,0,0c0.1-0.1,0.1-0.1,0.2-0.2c0,0,0-0.1,0.1-0.1
				c0,0,0.1-0.1,0.1-0.1c0,0,0-0.1,0.1-0.1c0-0.1,0.1-0.2,0.1-0.3c0,0,0,0,0-0.1c0,0,0,0,0,0c0-0.1,0.1-0.2,0.1-0.4
				c0-0.1,0-0.1,0-0.2c0,0,0-0.1,0-0.1c0,0,0-0.1,0-0.1c0-0.1,0-0.2,0.1-0.4c0-0.1,0-0.1,0-0.2c0,0,0-0.1,0-0.1c0,0,0-0.1,0-0.1
				c0-0.1,0-0.3,0-0.4c0-0.1,0-0.2,0-0.2c0,0,0-0.1,0-0.1c0,0,0-0.1,0-0.1c0-0.2,0-0.3,0-0.5c0-0.1,0-0.2,0-0.3L33.6,148.9z"/>
			<g>
				<path class="st24" d="M28.1,140.6l1.4,1.1c1.2,0.9,2.1,4.3,2.2,7.5l0,29.7c0,3.2-1,5.2-2.1,4.3l-1.4-1.1
					c-1.2-0.9-2.1-4.3-2.1-7.5l0-29.7C26,141.6,27,139.7,28.1,140.6z"/>
			</g>
		</g>
	</g>
	<g>
		<g>
			<g>
				<path class="st25" d="M236.4,46.6c2.5-0.3,4.4,1.5,4.4,4.2c0,2.7-2,5.1-4.5,5.4l-42.6,6c-2.5,0.3-4.4-1.5-4.4-4.2
					c0-2.6,2-5.1,4.5-5.4L236.4,46.6z"/>
			</g>
		</g>
	</g>
</g>
<g>
	<g>
		<g class="st0">
			<path class="st1" d="M585.7,124.3c0.2,0,0.4,0,0.6,0c0.3,0,0.6,0,0.8,0c0.2,0,0.4,0,0.6,0.1c0.3,0,0.5,0.1,0.8,0.1
				c0.2,0,0.3,0.1,0.5,0.1c0.3,0.1,0.5,0.1,0.8,0.2c0.2,0,0.3,0.1,0.5,0.1c0.3,0.1,0.5,0.2,0.8,0.2c0.2,0.1,0.3,0.1,0.5,0.2
				c0.3,0.1,0.5,0.2,0.8,0.3c0.1,0.1,0.3,0.1,0.4,0.2c0.4,0.2,0.8,0.4,1.1,0.6l0,0c0,0,0,0,0,0l-13.7-7.4c-0.3-0.2-0.7-0.4-1.1-0.5
				c0,0-0.1,0-0.1,0c-0.1-0.1-0.3-0.1-0.4-0.2c-0.3-0.1-0.5-0.2-0.8-0.3c-0.2-0.1-0.3-0.1-0.5-0.2c-0.2-0.1-0.3-0.1-0.5-0.2
				c-0.1,0-0.2,0-0.3-0.1c-0.2,0-0.3-0.1-0.5-0.1c-0.3-0.1-0.5-0.1-0.8-0.2c-0.2,0-0.3-0.1-0.5-0.1c-0.1,0-0.2,0-0.3-0.1
				c-0.2,0-0.3,0-0.5-0.1c-0.2,0-0.4,0-0.6-0.1c-0.3,0-0.6,0-0.8,0c-0.2,0-0.4,0-0.6,0c-0.1,0-0.1,0-0.2,0c-0.3,0-0.5,0-0.8,0
				c-0.2,0-0.3,0-0.5,0c-0.5,0-1,0.1-1.4,0.1l-130,18.3c-0.1,0-0.3,0-0.4,0.1c-0.1,0-0.2,0-0.3,0.1c-0.2,0-0.4,0.1-0.6,0.1
				c-0.2,0-0.3,0.1-0.5,0.1c-0.2,0.1-0.4,0.1-0.6,0.2c-0.2,0-0.3,0.1-0.5,0.1c-0.2,0.1-0.4,0.1-0.6,0.2c-0.1,0-0.3,0.1-0.4,0.1
				c-0.2,0.1-0.4,0.2-0.7,0.2c-0.1,0-0.2,0.1-0.3,0.1c0,0,0,0-0.1,0c-0.5,0.2-1,0.4-1.5,0.7c-0.1,0-0.2,0.1-0.3,0.1
				c-0.5,0.3-1,0.5-1.4,0.8c-0.1,0-0.2,0.1-0.2,0.2c-0.5,0.3-1,0.6-1.4,1c0,0-0.1,0.1-0.1,0.1c-0.5,0.3-0.9,0.7-1.3,1.1
				c0,0-0.1,0.1-0.1,0.1c0,0,0,0,0,0c-0.6,0.5-1.2,1.1-1.8,1.7c0,0-0.1,0.1-0.1,0.1c-0.6,0.6-1.1,1.2-1.6,1.8c0,0-0.1,0.1-0.1,0.1
				c0,0-0.1,0.1-0.1,0.1c-0.3,0.4-0.6,0.8-0.9,1.2c-0.1,0.1-0.1,0.2-0.2,0.2c-0.3,0.4-0.5,0.8-0.8,1.2c0,0.1-0.1,0.1-0.1,0.2
				c0,0,0,0.1,0,0.1c-0.2,0.4-0.4,0.8-0.7,1.2c0,0.1-0.1,0.2-0.1,0.3c-0.2,0.3-0.3,0.6-0.5,1c0,0.1-0.1,0.1-0.1,0.2
				c0,0.1-0.1,0.1-0.1,0.2c-0.1,0.3-0.2,0.6-0.3,0.8c0,0.1-0.1,0.2-0.1,0.4c-0.2,0.4-0.3,0.8-0.4,1.2c0,0,0,0,0,0c0,0,0,0,0,0
				c-0.1,0.4-0.2,0.8-0.4,1.2c0,0.1-0.1,0.3-0.1,0.4c-0.1,0.3-0.1,0.6-0.2,0.9c0,0.1,0,0.1-0.1,0.2c0,0.1,0,0.1,0,0.2
				c-0.1,0.3-0.1,0.7-0.2,1c0,0.1,0,0.2-0.1,0.3c-0.1,0.4-0.1,0.9-0.2,1.3c0,0,0,0,0,0.1c0,0,0,0.1,0,0.1c-0.1,0.7-0.1,1.4-0.1,2.1
				l-0.5,295.7c0,0.5,0,1,0,1.4c0,0,0,0,0,0c0,0.1,0,0.2,0,0.3c0,0.4,0.1,0.7,0.1,1c0,0.2,0.1,0.3,0.1,0.5c0,0.3,0.1,0.6,0.1,0.8
				c0,0.2,0.1,0.4,0.1,0.6c0.1,0.3,0.1,0.5,0.2,0.8c0,0.2,0.1,0.4,0.2,0.6c0.1,0.2,0.1,0.5,0.2,0.7c0.1,0.2,0.1,0.4,0.2,0.6
				c0.1,0.2,0.2,0.5,0.2,0.7c0.1,0.2,0.1,0.4,0.2,0.5c0.1,0.2,0.2,0.4,0.3,0.6c0.1,0.2,0.2,0.3,0.3,0.5c0.1,0.2,0.2,0.4,0.3,0.6
				c0.1,0.2,0.2,0.3,0.3,0.5c0.1,0.2,0.2,0.4,0.4,0.6c0.1,0.2,0.2,0.3,0.3,0.5c0.1,0.2,0.3,0.4,0.4,0.6c0.1,0.2,0.2,0.3,0.3,0.4
				c0.1,0.2,0.3,0.4,0.4,0.5c0.1,0.1,0.2,0.3,0.4,0.4c0.2,0.2,0.3,0.3,0.5,0.5c0.1,0.1,0.2,0.3,0.4,0.4c0.2,0.2,0.3,0.3,0.5,0.5
				c0.1,0.1,0.3,0.2,0.4,0.3c0.2,0.2,0.4,0.3,0.6,0.5c0.1,0.1,0.2,0.2,0.4,0.3c0.2,0.2,0.4,0.3,0.7,0.5c0.1,0.1,0.2,0.2,0.3,0.2
				c0.3,0.2,0.7,0.4,1,0.6l13.7,7.4c-0.4-0.2-0.7-0.4-1-0.6c-0.1-0.1-0.2-0.2-0.3-0.2c-0.2-0.1-0.4-0.3-0.7-0.5
				c-0.1-0.1-0.3-0.2-0.4-0.3c-0.2-0.1-0.4-0.3-0.6-0.5c-0.1-0.1-0.3-0.2-0.4-0.3c-0.2-0.2-0.3-0.3-0.5-0.5
				c-0.1-0.1-0.2-0.3-0.4-0.4c-0.2-0.2-0.3-0.3-0.5-0.5c-0.1-0.1-0.2-0.3-0.4-0.4c-0.1-0.2-0.3-0.3-0.4-0.5
				c-0.1-0.1-0.2-0.3-0.3-0.4c-0.1-0.2-0.3-0.4-0.4-0.6c-0.1-0.2-0.2-0.3-0.3-0.5c-0.1-0.2-0.2-0.4-0.4-0.6
				c-0.1-0.2-0.2-0.3-0.3-0.5c-0.1-0.2-0.2-0.4-0.3-0.6c-0.1-0.2-0.2-0.3-0.3-0.5c-0.1-0.2-0.2-0.4-0.3-0.6
				c-0.1-0.2-0.1-0.4-0.2-0.5c-0.1-0.2-0.2-0.5-0.2-0.7c-0.1-0.2-0.1-0.4-0.2-0.5c-0.1-0.2-0.1-0.5-0.2-0.7
				c-0.1-0.2-0.1-0.4-0.2-0.6c-0.1-0.3-0.1-0.5-0.2-0.8c0-0.2-0.1-0.4-0.1-0.6c-0.1-0.3-0.1-0.6-0.1-0.8c0-0.2-0.1-0.3-0.1-0.5
				c0-0.3-0.1-0.7-0.1-1.1c0-0.1,0-0.2,0-0.3c0-0.5,0-1,0-1.5l0.5-295.7c0-0.7,0-1.4,0.1-2.1c0-0.1,0-0.1,0-0.2
				c0-0.4,0.1-0.9,0.2-1.3c0-0.1,0-0.2,0.1-0.3c0.1-0.3,0.1-0.7,0.2-1c0-0.1,0.1-0.3,0.1-0.4c0.1-0.3,0.1-0.6,0.2-0.9
				c0-0.1,0.1-0.3,0.1-0.4c0.1-0.4,0.2-0.8,0.4-1.2c0,0,0,0,0,0c0.1-0.4,0.3-0.8,0.4-1.2c0-0.1,0.1-0.3,0.1-0.4
				c0.1-0.3,0.2-0.6,0.3-0.8c0.1-0.1,0.1-0.3,0.2-0.4c0.2-0.3,0.3-0.7,0.5-1c0-0.1,0.1-0.2,0.1-0.3c0.2-0.4,0.4-0.8,0.7-1.2
				c0-0.1,0.1-0.2,0.1-0.2c0.2-0.4,0.5-0.8,0.8-1.2c0.1-0.1,0.1-0.2,0.2-0.2c0.3-0.4,0.6-0.8,0.9-1.2c0.1-0.1,0.1-0.1,0.2-0.2
				c0.5-0.6,1-1.3,1.6-1.8c0,0,0.1-0.1,0.1-0.1c0.6-0.6,1.2-1.2,1.8-1.7c0,0,0.1-0.1,0.1-0.1c0.4-0.4,0.9-0.7,1.3-1.1
				c0,0,0.1-0.1,0.1-0.1c0.5-0.3,0.9-0.7,1.4-1c0.1-0.1,0.2-0.1,0.2-0.2c0.5-0.3,1-0.6,1.4-0.8c0.1,0,0.2-0.1,0.3-0.1
				c0.5-0.3,1-0.5,1.5-0.7c0.1-0.1,0.3-0.1,0.4-0.1c0.2-0.1,0.4-0.2,0.7-0.2c0.1-0.1,0.3-0.1,0.4-0.1c0.2-0.1,0.4-0.1,0.6-0.2
				c0.2,0,0.3-0.1,0.5-0.1c0.2-0.1,0.4-0.1,0.6-0.2c0.2,0,0.3-0.1,0.5-0.1c0.2,0,0.4-0.1,0.6-0.1c0.2,0,0.5-0.1,0.7-0.1l130-18.3
				c0.5-0.1,1-0.1,1.4-0.1c0.2,0,0.3,0,0.5,0C585,124.3,585.3,124.3,585.7,124.3z"/>
			<g>
				<path class="st2" d="M582.8,124.5c11.4-1.6,20.7,7.2,20.7,19.5L603,439.7c0,12.3-9.4,23.7-20.8,25.3l-130,18.3
					c-11.4,1.6-20.7-7.2-20.7-19.5l0.5-295.7c0-12.3,9.4-23.7,20.8-25.3L582.8,124.5z"/>
			</g>
		</g>
	</g>
	<g>
		<g>
			<g>
				<path class="st4" d="M576.4,155.3c4.7-0.7,8.4,2.9,8.4,7.9l-0.4,241.3c0,5-3.8,9.7-8.5,10.3l-117.8,16.6
					c-4.7,0.7-8.5-2.9-8.4-7.9l0.4-241.3c0-5,3.8-9.7,8.5-10.3L576.4,155.3z"/>
			</g>
			<g>
				<path class="st3" d="M576.4,150.5c7.1-1,12.9,4.4,12.9,12.1l-0.4,241.3c0,7.7-5.8,14.7-12.9,15.7l-117.8,16.6
					c-7.1,1-12.9-4.4-12.9-12.1l0.4-241.3c0-7.7,5.8-14.7,12.9-15.7L576.4,150.5z M584.4,404.5l0.4-241.3c0-5-3.8-8.6-8.4-7.9
					l-117.8,16.6c-4.7,0.7-8.5,5.3-8.5,10.3l-0.4,241.3c0,5,3.8,8.6,8.4,7.9l117.8-16.6C580.6,414.1,584.4,409.5,584.4,404.5"/>
			</g>
		</g>
	</g>
	<g>
		<g>
			<g>
				<path class="st5" d="M530.6,430.5c4.4-0.6,8,2.8,8,7.5l0,13.3c0,4.7-3.6,9.1-8,9.7l-14.5,2c-4.4,0.6-8-2.8-8-7.5l0-13.3
					c0-4.7,3.6-9.1,8-9.7L530.6,430.5z"/>
			</g>
		</g>
	</g>
	<g>
		<g class="st0">
			<polygon class="st26" points="575.3,199.4 456.6,216.1 456.3,408.2 460.8,410.7 461.2,218.6 579.9,201.9 			"/>
			<g>
				<polygon class="st27" points="579.9,201.9 579.5,394 460.8,410.7 461.2,218.6 				"/>
			</g>
		</g>
	</g>
	<g>
		<g class="st0">
			<polygon class="st28" points="575.1,166.3 455.2,183.1 455.2,206 459.7,208.5 459.8,185.6 579.6,168.8 			"/>
			<g>
				<polygon class="st29" points="579.6,168.8 579.6,191.6 459.7,208.5 459.8,185.6 				"/>
			</g>
		</g>
	</g>
	<g>
		<g class="st0">
			<g>
				<path class="st12" d="M474.6,196.1l0.1-0.3c0.1-0.2,0.2-0.5,0.3-0.8c0.5-1.4,1.1-2.8,0.1-4.2c-0.3-0.6-0.8-1.1-1.4-1.5l-2.3-1.2
					c0.6,0.3,1.1,0.8,1.4,1.5c0.9,1.5,0.4,2.9-0.1,4.2c-0.1,0.3-0.2,0.5-0.3,0.8l-0.1,0.3l5.5,5.3l-0.7,0.7l2.3,1.2l0.7-0.7
					L474.6,196.1z"/>
				<path class="st12" d="M472.6,197.5c0.3-0.1,0.6-0.3,0.8-0.5l0.3-0.2l-2.3-1.2l-0.3,0.2c-0.6,0.4-1.3,0.7-2,0.8
					c-0.4,0.1-0.8,0-1.2,0c-0.4-0.1-0.7-0.2-1-0.4l2.3,1.2c0.3,0.2,0.7,0.3,1,0.4c0.4,0.1,0.8,0.1,1.2,0c0.2,0,0.5-0.1,0.7-0.2
					l4.9,4.6l2.3,1.2l-5.8-5.5L472.6,197.5z"/>
				<path class="st12" d="M467.1,196.6c-0.6-1.2-0.8-2.6-0.4-4c0.4-1.4,1.2-2.7,2.4-3.5c0.7-0.5,1.6-0.9,2.4-1
					c0.5-0.1,0.9-0.1,1.4,0c0.2,0,0.4,0.1,0.7,0.2s0.4,0.2,0.6,0.3h0c0,0,0,0,0,0l-2.3-1.2c-0.4-0.2-0.8-0.4-1.3-0.4
					c-0.5-0.1-0.9-0.1-1.4,0c-0.8,0.1-1.6,0.5-2.4,1c-1.2,0.9-2,2.1-2.4,3.5c-0.4,1.4-0.2,2.9,0.4,4c0.3,0.6,0.7,1,1.2,1.4
					c0.2,0.1,0.3,0.2,0.5,0.3l2.3,1.2C468.1,198,467.5,197.4,467.1,196.6z"/>
			</g>
			<g>
				<path class="st13" d="M475.6,195.8l5.8,5.6l-2.1,2.1l-5.8-5.5c-0.7,0.4-1.4,0.7-2.1,0.8c-0.5,0.1-1,0.1-1.4,0
					c-1.3-0.2-2.3-1-3-2.2c-0.6-1.2-0.8-2.6-0.4-4c0.4-1.4,1.2-2.7,2.4-3.5c0.7-0.5,1.6-0.9,2.4-1c0.5-0.1,0.9-0.1,1.4,0
					c1.3,0.2,2.3,1,3,2.2c1.1,1.9,0.4,3.7-0.1,5.1C475.7,195.5,475.7,195.6,475.6,195.8z M473.7,196.8l5.7,5.4l0.7-0.7l-5.5-5.3
					l0.1-0.3c0.1-0.2,0.2-0.5,0.3-0.8c0.5-1.4,1.1-2.8,0.1-4.2c-0.5-1-1.4-1.6-2.4-1.8c-0.4-0.1-0.8-0.1-1.2,0
					c-0.7,0.1-1.3,0.4-2,0.8c-2,1.4-2.7,4.2-1.7,6.2c0.5,1,1.4,1.6,2.4,1.8c0.4,0.1,0.8,0.1,1.2,0c0.7-0.1,1.3-0.4,2-0.8
					L473.7,196.8"/>
			</g>
		</g>
	</g>
	<g>
		<g class="st0">
			<g>
				<path class="st19" d="M534.2,248.4c0.8-0.1,1.6,0.1,2.3,0.6l33.2,27.5c0.6,0.5,0.9,1.2,0.9,2.1l0,22.7c0,1.7-1.4,3.3-3.2,3.6
					l-94.1,13.2c-1.8,0.2-3.2-0.9-3.2-2.6l-0.1-26.3c0-0.3,0-0.6,0.1-0.9c0.1-0.5,0.4-1,0.8-1.5l21.9-24.3c0.6-0.7,1.4-1.1,2.3-1.2
					s1.6,0.1,2.3,0.6l11.2,9.3c0.6,0.5,1.4,0.7,2.3,0.6c0.8-0.1,1.6-0.5,2.3-1.2l18.8-20.8C532.6,249,533.4,248.5,534.2,248.4z"/>
			</g>
			<g>
				<path class="st21" d="M565.2,221.3c3.1-0.4,5.5,1.9,5.5,5.2l-0.1,52.1c0-0.8-0.3-1.6-0.9-2.1L536.5,249
					c-0.6-0.5-1.4-0.7-2.3-0.6c-0.8,0.1-1.6,0.5-2.3,1.2l-18.8,20.8c-0.6,0.7-1.4,1.1-2.3,1.2c-0.8,0.1-1.6-0.1-2.3-0.6l-11.2-9.3
					c-0.6-0.5-1.4-0.7-2.3-0.6c-0.8,0.1-1.6,0.5-2.3,1.2L471,286.8c-0.4,0.4-0.7,0.9-0.8,1.5l0.1-47.6c0-3.3,2.5-6.3,5.5-6.8
					L565.2,221.3z M510.1,254.4c3.1-0.4,5.6-3.2,5.6-6.2c0-3-2.5-5.1-5.6-4.6c-3.1,0.4-5.6,3.2-5.6,6.2
					C504.6,252.8,507.1,254.8,510.1,254.4"/>
			</g>
			<g>
				<path class="st19" d="M510.2,243.6c3.1-0.4,5.6,1.6,5.6,4.6c0,3-2.5,5.8-5.6,6.2c-3.1,0.4-5.6-1.6-5.6-4.6
					C504.6,246.8,507.1,244,510.2,243.6z"/>
			</g>
			<path class="st20" d="M470.1,315.4l-0.1-26.3l-4.6-2.5l0.1,26.3c0,1,0.5,1.9,1.4,2.3l4.6,2.5
				C470.6,317.3,470.1,316.5,470.1,315.4z"/>
			<g>
				<path class="st22" d="M563.6,219.4c-0.9-0.5-1.9-0.7-3-0.5l4.6,2.5c1.1-0.2,2.1,0,3,0.5L563.6,219.4z"/>
				<path class="st22" d="M471.2,231.4c-3.1,0.4-5.5,3.4-5.5,6.8l-0.1,47.6v0c-0.1,0.3-0.1,0.6-0.1,0.9l4.6,2.5c0-0.3,0-0.6,0.1-0.9
					c0.1-0.5,0-1.9,0-1.9l0.1-45.7c0-3.3,2.5-6.3,5.5-6.8l89.4-12.6l-4.6-2.5L471.2,231.4z"/>
			</g>
		</g>
	</g>
	<g>
		<g>
			<g>
				<path class="st16" d="M531.2,363.4C531.2,363.4,531.2,363.4,531.2,363.4l-4.6-2.5c0,0-0.1,0-0.1,0c0,0,0,0,0,0
					c-0.1,0-0.2,0-0.3,0l-51.9,7.3c-0.1,0-0.1,0-0.2,0c0,0,0,0-0.1,0c-0.1,0-0.2,0.1-0.2,0.2c0,0,0,0-0.1,0c0,0,0,0,0,0
					c-0.1,0.1-0.1,0.1-0.1,0.2c0,0,0,0.1-0.1,0.1c0,0.1-0.1,0.2-0.1,0.3l0,2.2c0,0.3,0.1,0.5,0.4,0.7l4.6,2.5
					c-0.2-0.1-0.4-0.4-0.4-0.7l0-2.2c0-0.1,0-0.2,0.1-0.3c0,0,0-0.1,0.1-0.1c0-0.1,0.1-0.1,0.1-0.2c0,0,0,0,0.1-0.1
					c0.1-0.1,0.1-0.1,0.2-0.2c0.1,0,0.1-0.1,0.2-0.1l51.9-7.3c0.1,0,0.2,0,0.3,0C531.1,363.4,531.1,363.4,531.2,363.4L531.2,363.4z"
					/>
				<g>
					<path class="st11" d="M530.7,363.4c0.4-0.1,0.8,0.3,0.8,0.7l0,2.2c0,0.5-0.4,0.9-0.8,0.9l-51.9,7.3c-0.4,0.1-0.8-0.3-0.8-0.7
						l0-2.2c0-0.5,0.3-0.9,0.8-0.9L530.7,363.4z"/>
				</g>
			</g>
		</g>
		<g>
			<g class="st0">
				<path class="st16" d="M565,335.4C565,335.4,565,335.4,565,335.4l-4.6-2.5c0,0,0,0-0.1,0c0,0,0,0,0,0c-0.1,0-0.2,0-0.3,0
					l-88.4,12.4c-0.1,0-0.1,0-0.2,0c0,0,0,0-0.1,0c-0.1,0-0.2,0.1-0.2,0.2c0,0,0,0-0.1,0c0,0,0,0,0,0c-0.1,0.1-0.1,0.1-0.1,0.2
					c0,0,0,0.1-0.1,0.1c0,0.1-0.1,0.2-0.1,0.3l0,2.2c0,0.3,0.1,0.5,0.4,0.7l4.6,2.5c-0.2-0.1-0.4-0.4-0.4-0.7l0-2.2
					c0-0.1,0-0.2,0.1-0.3c0,0,0-0.1,0.1-0.1c0-0.1,0.1-0.1,0.1-0.2c0,0,0,0,0.1-0.1c0.1-0.1,0.2-0.1,0.2-0.2c0.1,0,0.1-0.1,0.2-0.1
					l88.4-12.4c0.1,0,0.2,0,0.3,0C564.9,335.4,565,335.4,565,335.4L565,335.4z"/>
				<g>
					<path class="st11" d="M564.6,335.3c0.4-0.1,0.8,0.3,0.8,0.7l0,2.2c0,0.5-0.3,0.9-0.8,0.9l-88.4,12.4c-0.4,0.1-0.8-0.3-0.8-0.7
						l0-2.2c0-0.5,0.4-0.9,0.8-0.9L564.6,335.3z"/>
				</g>
			</g>
		</g>
		<g>
			<g class="st0">
				<g class="st0">
					<defs>
						<path id="SVGID_3_" class="st0" d="M475.7,363.1l-4.6-2.5c-0.2-0.1-0.4-0.4-0.4-0.7l4.6,2.5
							C475.4,362.7,475.5,362.9,475.7,363.1z"/>
					</defs>
					<clipPath id="SVGID_4_">
						<use xlink:href="#SVGID_3_"  style="overflow:visible;"/>
					</clipPath>
					<g class="st30">
						<path class="st12" d="M475.7,363.1l-4.6-2.5c-0.2-0.1-0.4-0.4-0.4-0.7l4.6,2.5C475.4,362.7,475.5,362.9,475.7,363.1"/>
					</g>
				</g>
				<path class="st16" d="M565,346.9l-4.6-2.5c0,0,0,0-0.1,0c0,0,0,0,0,0c-0.1,0-0.2,0-0.3,0l-88.4,12.4c-0.1,0-0.1,0-0.2,0
					c0,0,0,0-0.1,0c-0.1,0-0.2,0.1-0.2,0.2c0,0,0,0-0.1,0c0,0,0,0,0,0c-0.1,0.1-0.1,0.1-0.1,0.2c0,0,0,0.1-0.1,0.1
					c0,0.1-0.1,0.2-0.1,0.3l0,2.2l4.6,2.5l0-2.2c0-0.1,0-0.2,0.1-0.3c0,0,0-0.1,0.1-0.1c0-0.1,0.1-0.1,0.1-0.2c0,0,0,0,0.1-0.1
					c0.1-0.1,0.2-0.1,0.2-0.2c0.1,0,0.1-0.1,0.2-0.1l88.4-12.4c0.1,0,0.2,0,0.3,0C564.9,346.8,565,346.9,565,346.9z"/>
				<g>
					<path class="st11" d="M564.6,346.8c0.4-0.1,0.8,0.3,0.8,0.7l0,2.2c0,0.5-0.3,0.9-0.8,0.9l-88.4,12.4c-0.4,0.1-0.8-0.3-0.8-0.7
						l0-2.2c0-0.5,0.4-0.9,0.8-0.9L564.6,346.8z"/>
				</g>
			</g>
		</g>
		<g>
			<g class="st0">
				<path class="st16" d="M565,322.7l-4.6-2.5c0,0,0,0-0.1,0c0,0,0,0,0,0c-0.1,0-0.2,0-0.3,0l-88.4,12.4c-0.1,0-0.1,0-0.2,0
					c0,0,0,0-0.1,0c-0.1,0-0.2,0.1-0.2,0.2c0,0,0,0-0.1,0c0,0,0,0,0,0c-0.1,0.1-0.1,0.1-0.1,0.2c0,0,0,0.1-0.1,0.1
					c0,0.1-0.1,0.2-0.1,0.4l0,2.2c0,0.3,0.1,0.5,0.4,0.7l4.6,2.5c-0.2-0.1-0.4-0.4-0.4-0.7l0-2.2c0-0.1,0-0.2,0.1-0.4
					c0,0,0-0.1,0.1-0.1c0-0.1,0.1-0.1,0.1-0.2c0,0,0.1,0,0.1-0.1c0.1-0.1,0.1-0.1,0.2-0.2c0.1,0,0.1-0.1,0.2-0.1l88.4-12.4
					c0.1,0,0.2,0,0.3,0C564.9,322.7,564.9,322.7,565,322.7z"/>
				<g>
					<path class="st11" d="M564.6,322.6c0.4-0.1,0.8,0.3,0.8,0.7l0,2.2c0,0.5-0.3,0.9-0.8,1L476.1,339c-0.4,0.1-0.8-0.3-0.8-0.7
						l0-2.2c0-0.5,0.4-0.9,0.8-1L564.6,322.6z"/>
				</g>
			</g>
		</g>
		<g>
			<g class="st0">
				<path class="st17" d="M513.1,376.4c-0.5-0.3-1-0.4-1.6-0.3l-30.2,4.2c-1.6,0.2-3,1.9-3,3.7c0,0.3,0,0.5,0.1,0.7
					c0,0.1,0,0.1,0.1,0.2c0.1,0.2,0.1,0.3,0.2,0.5c0,0.1,0.1,0.1,0.1,0.2c0.1,0.2,0.2,0.4,0.4,0.5c0,0,0,0,0,0
					c0.2,0.2,0.4,0.3,0.6,0.4l2.3,1.2c-0.2-0.1-0.4-0.3-0.6-0.4c-0.2-0.2-0.3-0.3-0.4-0.5c0-0.1-0.1-0.1-0.1-0.2
					c-0.1-0.2-0.1-0.3-0.2-0.5c0-0.1,0-0.1-0.1-0.2c-0.1-0.2-0.1-0.5-0.1-0.7c0-1.8,1.4-3.4,3-3.7l30.2-4.2c0.6-0.1,1.1,0,1.6,0.3
					L513.1,376.4z"/>
				<g>
					<path class="st18" d="M513.8,377.4c1.6-0.2,3,1,3,2.8c0,1.8-1.4,3.4-3,3.7l-30.2,4.2c-1.6,0.2-3-1-3-2.8c0-1.8,1.4-3.4,3-3.7
						L513.8,377.4z"/>
				</g>
			</g>
		</g>
	</g>
	<g>
		<g class="st0">
			<path class="st10" d="M573,185c0.1,0,0.2,0,0.2,0.1l-2.3-1.2c0,0-0.1,0-0.1,0c0,0-0.1,0-0.1,0c0,0,0,0,0,0c0,0,0,0,0,0
				c0,0-0.1,0-0.1,0c0,0-0.1,0-0.1,0l-10.2,1.4c0,0,0,0-0.1,0c0,0-0.1,0-0.1,0.1c-0.1,0-0.2,0.1-0.2,0.1c0,0,0,0-0.1,0
				c-0.1,0-0.1,0.1-0.2,0.2c0,0,0,0,0,0c0,0,0,0,0,0c0,0,0,0.1-0.1,0.1c0,0-0.1,0.1-0.1,0.1c0,0,0,0.1,0,0.1c0,0,0,0,0,0
				c0,0,0,0,0,0c0,0,0,0.1,0,0.1c0,0.1,0,0.1,0,0.2c0,0,0,0,0,0.1c0,0.4,0.2,0.6,0.4,0.8l2.3,1.2c-0.3-0.1-0.4-0.4-0.4-0.8
				c0-0.1,0-0.3,0.1-0.4c0,0,0,0,0,0c0-0.1,0.1-0.2,0.2-0.3c0,0,0,0,0,0c0.1-0.1,0.1-0.1,0.2-0.2c0.1-0.1,0.2-0.1,0.2-0.1
				c0.1,0,0.1-0.1,0.2-0.1l10.2-1.4C572.8,184.9,572.9,185,573,185C573,185,573,185,573,185z"/>
			<g>
				<path class="st31" d="M572.7,185c0.5-0.1,0.9,0.3,0.9,0.9c0,0.6-0.4,1.1-0.9,1.1l-10.2,1.4c-0.5,0.1-0.9-0.3-0.9-0.9
					c0-0.6,0.4-1.1,0.9-1.1L572.7,185z"/>
			</g>
		</g>
		<g class="st0">
			<path class="st10" d="M573.2,181.2L573.2,181.2C573.2,181.2,573.2,181.2,573.2,181.2l-2.3-1.2c0,0-0.1,0-0.1,0c0,0-0.1,0-0.1,0
				c0,0,0,0,0,0c0,0,0,0,0,0c0,0-0.1,0-0.1,0c0,0-0.1,0-0.1,0l-10.2,1.4c0,0,0,0-0.1,0c0,0-0.1,0-0.1,0.1c-0.1,0-0.2,0.1-0.2,0.1
				c0,0,0,0-0.1,0c-0.1,0-0.1,0.1-0.2,0.2c0,0,0,0,0,0c0,0,0,0,0,0c0,0,0,0.1-0.1,0.1c0,0-0.1,0.1-0.1,0.1c0,0,0,0.1,0,0.1
				c0,0,0,0,0,0c0,0,0,0,0,0c0,0,0,0.1,0,0.1c0,0.1,0,0.1,0,0.2c0,0,0,0,0,0.1c0,0.4,0.2,0.7,0.4,0.8l2.3,1.2
				c-0.3-0.1-0.4-0.4-0.4-0.8c0-0.1,0-0.3,0.1-0.4c0,0,0,0,0,0c0-0.1,0.1-0.2,0.2-0.3c0,0,0,0,0,0c0.1-0.1,0.1-0.1,0.2-0.2
				c0.1-0.1,0.2-0.1,0.2-0.1c0.1,0,0.1-0.1,0.2-0.1l10.2-1.4c0.1,0,0.2,0,0.3,0c0,0,0,0,0,0C573.1,181.1,573.1,181.2,573.2,181.2z"
				/>
			<g>
				<path class="st31" d="M572.7,181.1c0.5-0.1,0.9,0.3,0.9,0.9c0,0.6-0.4,1.1-0.9,1.1l-10.2,1.4c-0.5,0.1-0.9-0.3-0.9-0.9
					c0-0.6,0.4-1.1,0.9-1.1L572.7,181.1z"/>
			</g>
		</g>
		<g class="st0">
			<path class="st10" d="M573,177.3c0.1,0,0.2,0,0.2,0.1l-2.3-1.2c0,0-0.1,0-0.1,0c0,0-0.1,0-0.1,0c0,0,0,0,0,0c0,0,0,0,0,0
				c0,0-0.1,0-0.1,0c0,0-0.1,0-0.1,0l-10.2,1.4c0,0,0,0-0.1,0c0,0-0.1,0-0.1,0.1c-0.1,0-0.2,0.1-0.2,0.1c0,0,0,0-0.1,0
				c-0.1,0-0.1,0.1-0.2,0.2c0,0,0,0,0,0c0,0,0,0,0,0c0,0,0,0.1-0.1,0.1c0,0-0.1,0.1-0.1,0.1c0,0,0,0.1-0.1,0.1c0,0,0,0,0,0
				c0,0,0,0,0,0c0,0,0,0.1,0,0.1c0,0.1,0,0.1,0,0.2c0,0,0,0,0,0.1c0,0.3,0.1,0.5,0.3,0.7c0.1,0.1,0.1,0.1,0.2,0.1l2.3,1.2
				c-0.3-0.1-0.4-0.4-0.4-0.8c0-0.1,0-0.3,0.1-0.4c0,0,0,0,0,0c0-0.1,0.1-0.2,0.2-0.3c0,0,0,0,0,0c0.1-0.1,0.1-0.1,0.2-0.2
				c0.1-0.1,0.2-0.1,0.2-0.1c0.1,0,0.1-0.1,0.2-0.1l10.2-1.4C572.8,177.3,572.9,177.3,573,177.3C573,177.3,573,177.3,573,177.3z"/>
			<g>
				<path class="st31" d="M572.7,177.3c0.5-0.1,0.9,0.3,0.9,0.9c0,0.6-0.4,1.1-0.9,1.1l-10.2,1.4c-0.5,0.1-0.9-0.3-0.9-0.9
					c0-0.6,0.4-1.1,0.9-1.1L572.7,177.3z"/>
			</g>
		</g>
	</g>
	<g>
		<g>
			<g>
				<path class="st25" d="M533.5,139.5c2.5-0.3,4.4,1.5,4.4,4.2c0,2.7-2,5.1-4.5,5.4l-30.8,4.3c-2.5,0.3-4.4-1.5-4.4-4.2
					c0-2.7,2-5.1,4.5-5.4L533.5,139.5z"/>
			</g>
		</g>
	</g>
	<g>
		<g class="st0">
			<path class="st23" d="M429.1,189.4c0-0.1,0-0.2,0-0.3c0,0,0-0.1,0-0.1c0-0.2,0-0.4,0-0.6c0,0,0-0.1,0-0.1c0,0,0,0,0,0
				c0-0.5-0.1-1-0.2-1.4c0,0,0-0.1,0-0.1c-0.1-0.5-0.2-0.9-0.3-1.3c0,0,0,0,0,0c0,0,0,0,0,0c-0.1-0.2-0.1-0.4-0.2-0.7c0,0,0,0,0-0.1
				c0,0,0-0.1,0-0.1c0-0.1-0.1-0.2-0.1-0.3c0,0,0-0.1,0-0.1c0,0,0-0.1-0.1-0.1c0-0.1-0.1-0.1-0.1-0.2c0,0,0-0.1,0-0.1
				c0-0.1,0-0.1-0.1-0.2c0,0,0-0.1-0.1-0.1c0,0,0,0,0-0.1c0-0.1-0.1-0.2-0.1-0.3c0,0,0,0,0,0c0,0,0,0,0,0c-0.1-0.1-0.1-0.2-0.2-0.3
				c0,0,0,0,0,0c0,0,0-0.1-0.1-0.1c0,0-0.1-0.1-0.1-0.1c0,0,0,0,0-0.1c0,0,0-0.1-0.1-0.1c0,0,0-0.1-0.1-0.1c0,0,0,0-0.1-0.1
				c0,0-0.1-0.1-0.1-0.1c0,0,0,0,0,0c0,0-0.1-0.1-0.1-0.1l-0.6-0.5c0,0,0,0-0.1,0c-0.1-0.1-0.2-0.1-0.3-0.1c0,0,0,0,0,0c0,0,0,0,0,0
				c-0.1,0-0.2,0-0.3,0l-1.9,0.2c0.1,0,0.2,0,0.3,0c0,0,0,0,0,0c0.1,0,0.2,0.1,0.3,0.2l0.6,0.5c0.1,0,0.1,0.1,0.2,0.2
				c0,0,0.1,0.1,0.1,0.1c0,0,0.1,0.1,0.1,0.1c0,0,0,0.1,0.1,0.1c0,0.1,0.1,0.1,0.1,0.2c0,0,0,0.1,0.1,0.1c0.1,0.1,0.1,0.2,0.2,0.3
				c0,0,0,0,0,0c0.1,0.1,0.1,0.2,0.2,0.3c0,0,0,0.1,0.1,0.1c0,0.1,0.1,0.2,0.1,0.2c0,0.1,0.1,0.1,0.1,0.2c0,0.1,0.1,0.2,0.1,0.2
				c0,0.1,0.1,0.2,0.1,0.3c0,0.1,0,0.1,0.1,0.2c0.1,0.2,0.1,0.4,0.2,0.7c0,0,0,0,0,0.1c0.1,0.4,0.2,0.9,0.3,1.3c0,0,0,0.1,0,0.1
				c0.1,0.5,0.1,0.9,0.2,1.4c0,0,0,0.1,0,0.1c0,0.2,0,0.4,0,0.6c0,0.1,0,0.3,0,0.4l0,16.8c0,0.3,0,0.6,0,0.9c0,0,0,0.1,0,0.1
				c0,0.3,0,0.5-0.1,0.8c0,0,0,0.1,0,0.1c0,0.2-0.1,0.5-0.1,0.7c0,0,0,0.1,0,0.1c0,0.2-0.1,0.4-0.2,0.6c0,0,0,0,0,0.1
				c-0.1,0.1-0.1,0.3-0.2,0.4c0,0.1,0,0.1-0.1,0.1c-0.1,0.1-0.1,0.2-0.2,0.3c0,0,0,0,0,0c-0.1,0.1-0.2,0.2-0.3,0.2c0,0,0,0-0.1,0
				c-0.1,0.1-0.2,0.1-0.3,0.1l1.9-0.2c0.1,0,0.2,0,0.3-0.1c0,0,0,0,0.1,0c0.1-0.1,0.2-0.1,0.3-0.2c0,0,0,0,0,0
				c0.1-0.1,0.1-0.1,0.2-0.2c0,0,0-0.1,0.1-0.1c0,0,0.1-0.1,0.1-0.1c0,0,0-0.1,0.1-0.1c0-0.1,0.1-0.2,0.1-0.3c0,0,0,0,0-0.1
				c0,0,0,0,0,0c0-0.1,0.1-0.2,0.1-0.4c0-0.1,0-0.1,0-0.2c0,0,0-0.1,0-0.1c0,0,0-0.1,0-0.1c0-0.1,0-0.2,0.1-0.4c0-0.1,0-0.1,0-0.2
				c0,0,0-0.1,0-0.1c0,0,0-0.1,0-0.1c0-0.1,0-0.3,0-0.4c0-0.1,0-0.2,0-0.2c0,0,0-0.1,0-0.1c0,0,0-0.1,0-0.1c0-0.2,0-0.3,0-0.5
				c0-0.1,0-0.2,0-0.3L429.1,189.4z"/>
			<g>
				<path class="st24" d="M424.5,181.6l0.6,0.5c1.2,0.9,2.1,4.3,2.1,7.5l0,16.8c0,3.2-1,5.2-2.1,4.3l-0.6-0.5
					c-1.2-0.9-2.1-4.3-2.1-7.5l0-16.8C422.3,182.6,423.3,180.7,424.5,181.6z"/>
			</g>
		</g>
	</g>
	<g>
		<g>
			<g>
				<path class="st32" d="M453.8,136c2.9-0.2,6.1,0.2,7.1,1c1,0.7-0.5,1.5-3.4,1.7c-2.9,0.2-6.1-0.2-7.1-1
					C449.4,137,450.9,136.2,453.8,136z"/>
			</g>
		</g>
	</g>
	<g>
		<g>
			<g class="st0">
				<defs>
					<polygon id="SVGID_5_" class="st0" points="512.9,458.3 512.9,438.1 533.7,435.2 533.6,455.4 					"/>
				</defs>
				<clipPath id="SVGID_6_">
					<use xlink:href="#SVGID_5_"  style="overflow:visible;"/>
				</clipPath>
				<g class="st33">
					<g>
						<g>
							<g>
								<path class="st7" d="M513.8,457.2l0-18.3l19-2.7l0,18.3L513.8,457.2 M533.7,435.2l-20.8,2.9l0,20.2l20.8-2.9L533.7,435.2"/>
							</g>
						</g>
					</g>
				</g>
			</g>
		</g>
	</g>
</g>
</svg>
