<svg xmlns="http://www.w3.org/2000/svg" xmlns:xlink="http://www.w3.org/1999/xlink" viewBox="0 0 1280 1001">
  <defs>
    <linearGradient id="linear-gradient" x1="425.9" y1="614.4" x2="1359.6" y2="117.8" gradientUnits="userSpaceOnUse">
      <stop offset="0" stop-color="#41a6e9"/>
      <stop offset=".1" stop-color="#3d99df"/>
      <stop offset=".6" stop-color="#2652ab"/>
      <stop offset=".9" stop-color="#1d3697"/>
    </linearGradient>
    <linearGradient id="linear-gradient-2" x1="992.6" y1="420.8" x2="956.6" y2="441.5" gradientTransform="matrix(-1.02 -.58 1.02 -.58 1621.3 1317.3)" gradientUnits="userSpaceOnUse">
      <stop offset="0" stop-color="#111380"/>
      <stop offset="1" stop-color="#2368ce"/>
    </linearGradient>
    <linearGradient id="linear-gradient-3" x1="1177.7" y1="508.4" x2="1165.7" y2="515.3" gradientTransform="matrix(-1.02 0 0 -1 2262 1026)" xlink:href="#linear-gradient-2"/>
    <linearGradient id="linear-gradient-4" x1="1165.4" y1="510.9" x2="1149.4" y2="520.1" gradientTransform="matrix(-1.02 0 0 -1 2262 1026)" xlink:href="#linear-gradient-2"/>
    <linearGradient id="linear-gradient-5" x1="1164.9" y1="522.4" x2="1148.2" y2="532" gradientTransform="matrix(-1.02 0 0 -1 2262 1026)" xlink:href="#linear-gradient-2"/>
    <linearGradient id="linear-gradient-6" x1="1199.2" y1="511.6" x2="1177.2" y2="524.3" gradientTransform="matrix(-1.02 0 0 -1 2262 1026)" xlink:href="#linear-gradient-2"/>
    <linearGradient id="linear-gradient-7" x1="1185" y1="528.5" x2="1180.2" y2="531.3" gradientTransform="matrix(-1.02 0 0 -1 2262 1026)" xlink:href="#linear-gradient-2"/>
    <linearGradient id="linear-gradient-8" x1="1180.6" y1="532.4" x2="1162" y2="543.2" gradientTransform="matrix(-1.02 0 0 -1 2262 1026)" xlink:href="#linear-gradient-2"/>
    <linearGradient id="linear-gradient-9" x1="1184" y1="534.7" x2="1163.1" y2="571" gradientTransform="matrix(-1.02 0 0 -1 2262 1026)" gradientUnits="userSpaceOnUse">
      <stop offset="0" stop-color="#111380"/>
      <stop offset="1" stop-color="#1e53ba"/>
    </linearGradient>
    <linearGradient id="linear-gradient-10" x1="1172.9" y1="541.2" x2="1172.9" y2="572.2" gradientTransform="matrix(-1.02 0 0 -1 2262 1026)" gradientUnits="userSpaceOnUse">
      <stop offset="0" stop-color="#14238f"/>
      <stop offset="1" stop-color="#215ec5"/>
    </linearGradient>
    <linearGradient id="linear-gradient-11" x1="621.5" y1="540.7" x2="621.5" y2="600.6" gradientTransform="matrix(1.02 0 0 -1 417.7 1026)" gradientUnits="userSpaceOnUse">
      <stop offset="0" stop-color="#111380"/>
      <stop offset="1" stop-color="#277de1"/>
    </linearGradient>
    <linearGradient id="linear-gradient-12" x1="617" y1="297.5" x2="617" y2="346.9" gradientTransform="matrix(1.02 .58 0 -1 417.7 424)" xlink:href="#linear-gradient-11"/>
    <linearGradient id="linear-gradient-13" x1="615.7" y1="296.5" x2="615.7" y2="342.7" gradientTransform="matrix(1.02 .58 0 -1 417.7 424)" xlink:href="#linear-gradient-2"/>
    <linearGradient id="linear-gradient-14" x1="1388.1" y1="616.3" x2="1394.7" y2="609.7" gradientTransform="matrix(-1.16 0 0 -1 2653 1026)" gradientUnits="userSpaceOnUse">
      <stop offset="0" stop-color="#277de1"/>
      <stop offset="1" stop-color="#111380"/>
    </linearGradient>
    <linearGradient id="linear-gradient-15" x1="832.6" y1="769.9" x2="832.6" y2="487.6" gradientTransform="matrix(1 0 0 -1 0 1026)" gradientUnits="userSpaceOnUse">
      <stop offset="0" stop-color="#1ba0bd"/>
      <stop offset="1" stop-color="#bee3ff"/>
    </linearGradient>
    <style>
      .cls-21{isolation:isolate}.cls-6{fill:#fff}.cls-12{fill:#b3b3b3}.cls-15{fill:#41006a}.cls-16{fill:#92d1ff}.cls-19{fill:#8168e2}.cls-31{fill:#852c2a}.cls-34{fill:#0251a1}.cls-40{fill:#f5d4b3}.cls-41{fill:#ebc4a5}.cls-42{fill:#5b27c0}.cls-43{fill:#a3a3a3}.cls-44{fill:#e4e4e4}.cls-45{fill:#231f20}.cls-46{fill:#414042}.cls-48{fill:#111380}.cls-63{fill:#bcbec0}.cls-65{fill:#d1d3d4}
    </style>
  </defs>
  <g id="Layer_2" data-name="Layer 2">
    <g id="Layer_1-2" data-name="Layer 1">
      <path d="M0 0h1280v1001c-11.5-10.8-89-42-77-123s-170-19-167-103-27-127-109-124-299 134-426 19-124-235 5-406c64.5-85.5 24.9-160.1-198-152S0 0 0 0z" fill="url(#linear-gradient)"/>
      <path d="M1198 554.8L918.6 717.1a61.5 61.5 0 01-6.8 3.4l-.5.2-1.4.5-.6.3c-.7.3-1.4.6-2 .7h-.1l-1 .4h-.3a92.8 92.8 0 01-65.4-3.8 7.8 7.8 0 01-1-.4l-2-1-.5-.4-281.6-162.6-1.8-1.1a3.3 3.3 0 00-.6-.4l-1.4-.9s-.2 0-.3-.2l-1.6-1.1-.3-.2-1.5-1.3a16.8 16.8 0 01-1.4-1.3l-.2-.2-1.3-1.3-.2-.2-1-1.3-.2-.1-1-1.4v-.1l-1-1.5a12 12 0 01-.9-1.5 11.7 11.7 0 01-.7-1.6l-.5-1.5a8.9 8.9 0 01-.5-1.6c0-.6-.2-1.1-.3-1.6a10 10 0 01-.2-1.5l-.1-1.7v17a.9.9 0 000 .4.8.8 0 00.2.4v.9l.2.4v.5l.1.3.1.5.2.4a.3.3 0 00.1.2v.3l.3.4c0 .2 0 .3.2.5s0 .3.1.4a1.3 1.3 0 01.2.6 6277846461877.5 6277846461877.5 0 00.6.9l.2.4.3.6a1.9 1.9 0 00.4.5l.2.6.4.5.3.4v.2l.4.7.5.6.2.2.2.3.6.7.2.2.2.2.3.3a5.4 5.4 0 00.7.7l.3.3.2.2.2.2.5.5.4.4.2.2.1.1.2.2.4.4.6.5.3.3.2.1.4.3 1 .8.3.1.2.2a5 5 0 01.7.5l.7.5a4 4 0 00.6.4.5.5 0 00.4.1l1.5 1 281.6 162.6.3.2a8.1 8.1 0 011 .5l1 .6 1.3.6a4.8 4.8 0 001 .5l1.3.5 1 .5 1.3.5c.4 0 .6.3 1 .4h.1l2 .8h.4l.9.3 1.2.4h.2l.2.2.9.2.8.3a5.7 5.7 0 00.6.2h.3a2.7 2.7 0 001 .2l.8.2.6.1h.2l.7.2.8.2c.3.1.4 0 .7.2h.4a.3.3 0 01.3.2l.7.1.8.1.6.1a.3.3 0 01.3.1h.3l.7.1.6.1h.6l.6.2h.6l.5.2h.6l.5.1h.6a1.2 1.2 0 01.6.1 3181609553736.6 3181609553736.6 0 001 .2 1.1 1.1 0 01.6.1H884a2 2 0 00.7 0 2 2 0 00.7-.2h.6a2 2 0 00.7 0 2 2 0 00.7-.2h.8a.7.7 0 00.4-.1h.3l.7-.1.7-.1.8-.1a.8.8 0 00.4-.1h1.3a2.6 2.6 0 00.8-.3h.8l.8-.3 1-.1.5-.1h.2a.3.3 0 00.2-.1l1-.2a3.2 3.2 0 01.9-.2h.3c.2 0 .1 0 .2-.2s.4 0 .5 0l1.1-.3a2.6 2.6 0 01.8-.2h.3l1.1-.3 1.3-.3 1.3-.4c.4 0 .7-.3 1.1-.4h.2l1.6-.5c.2 0 .3 0 .5-.2s.4-.2.6-.2a6.2 6.2 0 01.7-.3l.6-.3 1.2-.5a1.2 1.2 0 01.6-.2 1 1 0 01.4-.2 11.2 11.2 0 001.8-.9c.3 0 .6-.3.8-.4l2.6-1.3 279.3-162.4c11.1-6.5 16.7-14.9 16.7-23.4v-13c-.8 7.8-6.3 15.5-16.6 21.5z" fill="#4679eb"/>
      <path d="M840.5 718.8a92.8 92.8 0 0065.4 3.9l.3-.1 1-.3 4.6-1.8a61.5 61.5 0 006.8-3.4L1198 554.8c10.3-6 15.8-13.7 16.6-21.5 1-9.2-4.7-18.6-16.9-25.6L916 345c-22.6-13-59-13-81.4 0L555.3 507.3c-22.4 13-22.3 34.1.3 47.2L837.2 717l.4.2c.7.4 1.3.8 2 1z" fill="#3358ab"/>
      <ellipse cx="832.2" cy="482.1" rx="68" ry="55.7" transform="rotate(-6.9 832.6 482.3)" fill="#7984df"/>
      <path d="M529.6 493.2l-.1-24.6 316-182.5v24.7l-316 182.4m0-35.6l-.3-104 158-91.2.3 104-158 91.2M703.9 357l-.2-104 141.5-81.7.1 70 .1 34L704 356.9m-174.7-18l-.1-28.4 316-182.4v28.3L529.3 339M852.4 73.8l-.5.3.1 35.3-330.4 190.7.6 207.8 331-191-.8-243" style="isolation:isolate" opacity=".3"/>
      <path class="cls-6" d="M616.3 232.2c-2.6 1.5-4.7.3-4.7-2.7v-1a10.4 10.4 0 014.7-8l155.5-89.9c2.6-1.5 4.7-.2 4.7 2.7v1a10.4 10.4 0 01-4.7 8l-155.5 89.9m-52.1 30c-.2.2-.5.3-.7 0a1 1 0 01.3-1.2l7-8.5-7-.3c-.4 0-.5-.5-.3-1a1.3 1.3 0 01.7-.7.5.5 0 01.3 0l7.8.4a.4.4 0 01.5.5c0 .3-.3.8-.8 1.4l-7.8 9.5m-26.6 15.3a.5.5 0 01-.4.1l-7.7-.4a.4.4 0 01-.5-.6c0-.2.3-.8.7-1.3l7.8-9.4.1-.1c.2-.1.5-.2.6 0a1 1 0 01-.2 1.3l-7 8.4 7 .4c.3 0 .4.5.2 1a2.4 2.4 0 01-.6.6m258.4-147c-4 2.4-7.3.7-7.4-3.8s3.2-9.9 7.3-12.3 7.3-.6 7.4 3.8-3.2 10-7.3 12.3m21.5-12.3c-4 2.3-7.3.6-7.4-3.8s3.2-10 7.3-12.3 7.3-.7 7.4 3.8-3.3 10-7.3 12.2m20.1-11.6c-4 2.3-7.3.6-7.4-3.8s3.3-10 7.4-12.3 7.3-.6 7.4 3.8-3.3 10-7.3 12.3m-254.1 147c-1 .6-1.8 0-1.8-1v-12.7a4 4 0 011.8-3.2l17-9.8c1-.6 1.9-.1 1.9 1v12.7a4 4 0 01-1.9 3.2l-17 9.8M851.9 71.3l-331 191 .1 38 .5-.3L852 109.3v-38"/>
      <path d="M837.6 90.5c-4.1 2.4-7.3 7.9-7.3 12.3s3.3 6.2 7.4 3.8 7.3-7.9 7.3-12.3-3.3-6.1-7.4-3.8" fill="#ff2a30"/>
      <path d="M817.4 102.2c-4 2.3-7.3 7.8-7.3 12.3s3.3 6.1 7.4 3.8 7.3-8 7.3-12.3-3.3-6.2-7.4-3.8" fill="#00e99e"/>
      <path d="M796 114.5c-4.2 2.4-7.4 8-7.4 12.3s3.3 6.2 7.4 3.8 7.3-7.8 7.3-12.3-3.3-6.1-7.4-3.7" fill="#2a66ff"/>
      <path d="M771.8 130.7l-155.5 89.8a10.4 10.4 0 00-4.7 8.2v.9c0 3 2.2 4.1 4.7 2.7l155.5-89.8a10.4 10.4 0 004.7-8.2v-.9c0-3-2-4.2-4.7-2.7" fill="#d8e2ee"/>
      <path d="M600.7 227l-17.1 9.8a4 4 0 00-1.8 3.2v12.7c0 1.1.8 1.6 1.8 1l17-9.8a4 4 0 001.9-3.2V228c0-1.2-.8-1.6-1.8-1" fill="#bde2ee"/>
      <path class="cls-12" d="M537.5 266l-7.9 9.5c-.4.5-.8 1-.7 1.3a.5.5 0 00.5.6l7.8.4a.5.5 0 00.3 0 2.4 2.4 0 00.6-.8c.2-.4.1-.9-.2-.9l-7-.3 7-8.5a1 1 0 00.2-1.2c0-.3-.4-.2-.6-.1M564 250.6a1.7 1.7 0 00-.6.7c-.1.5 0 1 .3 1l7 .3-7 8.5a1 1 0 00-.3 1.2.6.6 0 00.7 0l7.8-9.4c.5-.6.9-1.1.8-1.4a.5.5 0 00-.5-.5l-7.8-.5a.5.5 0 00-.3.1"/>
      <path d="M535.6 329.9c-1 .5-1.8 0-1.8-1v-2.2a4 4 0 011.8-3l95.5-55.2c1-.5 1.8 0 1.8 1v2.2a4 4 0 01-1.8 3L535.6 330m273-160.3c-2.9 1.6-5.1.3-5.2-3v-1a11.6 11.6 0 015.1-9l28.2-16.2c2.9-1.7 5.2-.3 5.2 3v1a11.6 11.6 0 01-5.1 8.9l-28.2 16.3m-273.1 148c-1 .5-1.8 0-1.8-1v-2.2a4 4 0 011.8-3l156.8-90.6c1-.6 1.8-.1 1.8 1v2.2a4 4 0 01-1.8 3l-156.8 90.6M845.1 128L529 310.5V339l316-182.4V128" fill="#0071bc"/>
      <path d="M764.3 254.9c-5.2 3-9.3.8-9.3-5s4.1-12.6 9.3-15.5 9.3-.9 9.3 4.8-4.2 12.7-9.3 15.7m80.9-83.7l-141.5 81.7.2 104 141.5-81.7L704 356.9v-34s27-60.1 30.3-62 30.4 24.5 30.4 24.5 31.6-76.3 36.4-79 44.3 34.6 44.3 34.6l-.1-69.8" fill="#d4007d"/>
      <path class="cls-6" d="M536.2 429.3c-1.1.7-2.1.1-2.1-1.2V426a4.9 4.9 0 012.1-3.7l23.8-13.7a1.3 1.3 0 012.2 1.1v2.1a4.9 4.9 0 01-2.2 3.7l-23.8 13.8m.8-14.7c-1.6 1-3 .2-3-1.7a6.7 6.7 0 013-5.2l37.7-21.7c1.7-1 3-.2 3 1.7a6.7 6.7 0 01-3 5.2l-37.6 21.7m-.1-11.8c-1.6 1-3 .2-3-1.7a6.7 6.7 0 013-5.2l81.4-47c1.6-1 3-.2 3 1.7a6.7 6.7 0 01-3 5.2l-81.4 47m0-12.1c-1.6 1-3 .1-3-1.8a6.7 6.7 0 013-5.1l141.1-81.5c1.6-1 3-.2 3 1.7a6.7 6.7 0 01-3 5.2L537 390.7m0-12.5c-1.7 1-3 .2-3-1.7a6.7 6.7 0 013-5.2l141-81.5c1.6-1 3-.2 3 1.7a6.7 6.7 0 01-3 5.2l-141.1 81.5m0-12.5c-1.6 1-3 .2-3-1.7a6.7 6.7 0 013-5.1L678 277.4c1.6-1 3-.2 3 1.7a6.7 6.7 0 01-3 5.1l-141.1 81.5m150.3-103.3l-158 91.2.3 104 158-91.2-.3-104"/>
      <path class="cls-15" d="M801 206.3c-4.8 2.8-36.3 79.1-36.3 79.1s-27-26.5-30.4-24.6-30.4 62.1-30.4 62.1l.1 34 141.5-81.7v-34c-.2 0-39.6-37.6-44.4-34.8"/>
      <path class="cls-15" d="M764.3 234.4c-5.2 3-9.3 10-9.3 15.7s4.1 7.7 9.3 4.9 9.3-10 9.3-15.7-4.2-7.8-9.3-4.9"/>
      <path class="cls-16" d="M692.4 220.7l-156.9 90.6a3.8 3.8 0 00-1.8 3v2.2c0 1 .8 1.5 1.8 1L692.4 227a3.8 3.8 0 001.8-3v-2.2c0-1.1-.8-1.6-1.8-1M631 268.5l-95.5 55.1a4 4 0 00-1.8 3.1v2.2c0 1 .8 1.5 1.8 1l95.5-55.1a3.8 3.8 0 001.8-3.1v-2.2c0-1-.8-1.5-1.8-1"/>
      <path d="M836.8 140.5l-28.2 16.2a11.3 11.3 0 00-5.2 9v1c0 3.2 2.4 4.6 5.3 3l28.1-16.3a11.3 11.3 0 005.2-9v-1c0-3.2-2.4-4.5-5.2-3" fill="#4c098b"/>
      <path d="M651 414.6c-1.6 1-3 .2-3-1.7v-.5a6.9 6.9 0 013-5.3l74.6-43.2c1.7-1 3-.2 3.1 1.7v.6a6.8 6.8 0 01-3 5.2L651 414.6m194.5-128.5l-316 182.4.1 24.7 316-182.4v-24.7" fill="#6683c7"/>
      <path class="cls-19" d="M678 277.4l-141.1 81.5a6.7 6.7 0 00-3 5.1c0 2 1.3 2.6 3 1.7L678 284.2a6.7 6.7 0 003-5.1c0-2-1.4-2.6-3-1.7M678 289.8l-141.1 81.5a6.7 6.7 0 00-3 5.2c0 1.9 1.3 2.6 3 1.7L678 296.7a6.7 6.7 0 003-5.2c0-1.8-1.4-2.6-3-1.7M678.1 302.3L537 383.8a6.7 6.7 0 00-3 5.2c0 1.8 1.4 2.6 3 1.7l141.1-81.5a6.7 6.7 0 003-5.2c0-1.9-1.3-2.6-3-1.7M618.4 349L537 396a6.7 6.7 0 00-3 5c0 2 1.3 2.7 3 1.8l81.4-47a6.7 6.7 0 003-5.2c0-1.8-1.4-2.7-3-1.7M574.7 386l-37.6 21.8a6.7 6.7 0 00-3 5.1c0 2 1.3 2.6 3 1.7l37.6-21.7a6.7 6.7 0 003-5.2c0-1.9-1.3-2.7-3-1.7"/>
      <path d="M560 408.6l-23.9 13.8a4.7 4.7 0 00-2.1 3.7v2c0 1.4 1 2 2.1 1.3l23.8-13.7a4.9 4.9 0 002.2-3.7v-2c0-1.4-1-2-2.1-1.4" fill="#006adf"/>
      <path class="cls-6" d="M725.7 364L651 407a6.7 6.7 0 00-3 5.2v.6c0 1.9 1.4 2.7 3 1.7l74.8-43.2a6.7 6.7 0 003-5.2v-.6c-.1-1.9-1.4-2.7-3-1.7"/>
      <g class="cls-21">
        <path d="M899.7 482.3V481.7l-31-14.3-33.8-15.7-.2-.1-.6-.3a3.1 3.1 0 01-.7-.4c-.3 0-.4-.2-.7-.3a4 4 0 01-.6-.4l-.7-.4-.5-.5-.5-.4-.4-.6-.3-.4a.3.3 0 000-.2l-.4-.5a4.4 4.4 0 01-.2-.6 1.7 1.7 0 01-.2-.6c0-.2 0-.5-.2-.7a1.5 1.5 0 010-.6l-.2-.7v-2.2l.1-.7.6-3.9.2-1.4.5-2.6.5-3.1.6-3.2.2-1.8.2-1 .1-.8L871 404h.2v-.3a124395540387.6 124395540387.6 0 01-.1-.2l-18.6-9.3-1.6-.8a3.2 3.2 0 01-.7-.5 12.6 12.6 0 00-1.2-.6l-.6-.4-.8-.4v-.1h-.2l-.3-.2-.5-.3-.4-.1-.3-.2-.1-.1a.3.3 0 01-.2-.1l-.3-.2h-.2l-.3-.2a.3.3 0 01-.2 0l-.2-.1a.3.3 0 01-.2-.1l-.2-.1-.2-.1-.2-.1-.2-.1-.1-.1c-.1-.1-.1 0-.2 0l-.2-.2h-4l-.2.1-.2.1h-.2L785.9 415a4.1 4.1 0 011.8-.5h1l1 .1 1 .3a5 5 0 011 .4h.1l-4.4 2.1-.5.3h-.2l-.2.2-.3.3-.1.1-.1.1-.1.1v.1l-.1.2h-.1v.2h-.2v.1l-.2.1v.1l-.1.1a407112677919.7 407112677919.7 0 01-.2.2v.2l-.1.1-.1.2-.1.2c-.1.1 0 .1 0 .2v.2l-.2.2c-.2.2 0 0 0 .1l-.2.2c-.2.1 0 .1 0 .2v.2l-.1.2a741751692300.5 741751692300.5 0 01-.2.5 1283801005924 1283801005924 0 00-.3.8.7.7 0 010 .4.5.5 0 01-.2.3v1.4a.5.5 0 01-.1.3v.2a4.4 4.4 0 00-.1 1.1l-.1 1a1.1 1.1 0 01-.1.5v.1l-.1.8a10129.3 10129.3 0 01-4 24.7c0 1-.4 2.2-.5 3.2l-.6 3.2a5.3 5.3 0 00-.1 1.1 7.4 7.4 0 00-.2 1.3l-.3 1.4-.1.8c0 .8-.3 1.6-.4 2.4v5h.1l.1.2v.1l.1.2.1.2v.2c.2 0 .2.2.3.2v.2a.3.3 0 00.2.2v.2l.2.3.2.1.1.2v.2l.2.1.2.2.1.2h.1l.1.1.1.1.1.1v.1a186593310636.9 186593310636.9 0 00.3.2 373186621355.7 373186621355.7 0 00.2.3 373186621519 373186621519 0 01.2.1l.1.1.1.1v.1l.2.1c0 .1 0 0 0 0l.2.2a1679339796895.4 1679339796895.4 0 00.2.3H781l.2.1a.3.3 0 01.2.1l.3.1a1.5 1.5 0 00.5.2 2.9 2.9 0 01.7.4l33.8 15.7 31 14.3a1.2 1.2 0 01.3.3l.2.2.2.4.1.4v.7l-.3.3-.2.1 52.4-25.3.2-.1v-.1l-.8-2.6z" fill="#bababa"/>
        <path d="M794 415c2.4 1 4.7 2.5 6.7 3.5l18.6 9.3c1.4.7 1 3.1-.5 2.4l-13.7-6.9c-3.3-1.7-7-4-10.5-5.6a25 25 0 00-4-1.5c-6.3-1.8-6.3 7.3-7 12.2L780 450c-.9 5.7-2 11.4-2.8 17.3-.5 3.8.6 7.6 4.4 9.6l.7.3 1.4.7 33.8 15.7 31 14.4c1.3.6 1 3-.5 2.4-21.8-10.1-43.5-20.2-65.3-30.5-4.8-2.2-8.5-6.3-8-12.4.6-4.9 1.6-9.6 2.4-14.4l3.9-24c.6-4 .7-10.4 2.9-13.5 2.6-3.3 6.3-2.5 10.1-.7z" style="isolation:isolate" fill="#1a1a1a" opacity=".6"/>
      </g>
      <g class="cls-21">
        <path fill="#354280" d="M819.7 422.6l-19.3-11.2v2.3l19.3 11.1 37-21.5v-2.2l-37 21.5z"/>
        <path fill="#6077e8" d="M856.6 401.1l-37 21.5-19.2-11.2 37-21.4 19.2 11.1z"/>
      </g>
      <g class="cls-21">
        <path fill="#0d1448" d="M819.3 416l-7.2-4.2v.7l7.2 4.3 16-9.3v-.8l-16 9.3z"/>
        <path fill="#111a60" d="M835.3 406.8l-16 9.2-7.2-4.2 15.9-9.2 7.3 4.1z"/>
      </g>
      <g class="cls-21">
        <path d="M838.8 402l-.2.2-.1.1-.3.1h-.9a10.2 10.2 0 01-4-1.4c-2-1.3-3-3-2.8-4l-.2.6c-.3 1 .8 2.6 2.8 4a7.7 7.7 0 004 1.4h1l.3-.1v-.1l.4-.2a.5.5 0 00.1-.4l.2-.5-.3.4z" fill="#18357f"/>
        <path d="M832.3 396.4a10 10 0 014 1.4c2.3 1.4 3.4 3.3 2.6 4.2a2.2 2.2 0 01-1.7.5 10.2 10.2 0 01-4-1.4c-2.2-1.5-3.3-3.4-2.5-4.3a1.9 1.9 0 011.6-.4z" fill="#2e62ed"/>
      </g>
      <path style="isolation:isolate" fill="#f2f2f2" opacity=".2" d="M800.5 410l19 11.8 37-21.6-19-10.9-37 20.8z"/>
      <g class="cls-21">
        <path class="cls-31" d="M848.6 490c-.5-1.4-1.9-2.6-3-2.6a1.4 1.4 0 00-1 .5l-.4.4c-1.2-2-4.5-3.3-6.6-3.2a2.2 2.2 0 00-1.6.5l-1 1.3a2 2 0 011.6-.5c2.1-.1 5.4 1.1 6.7 3.2l.5-.6a1.7 1.7 0 01.8-.2 3.8 3.8 0 013 2.6 1.5 1.5 0 01-.1 1.5l1-1.3a2.2 2.2 0 000-1.5z"/>
        <path d="M836.6 486.4c2-.1 5.4 1.1 6.7 3.2a1.4 1.4 0 011.2-.9 3.8 3.8 0 013.1 2.6c.4 1.4-.4 2-1.4 2s-9.4-3.6-10.6-4.6-1.3-.9-.6-1.9a2 2 0 011.6-.4z" fill="#ee4e4b"/>
      </g>
      <g class="cls-21">
        <path class="cls-31" d="M867.3 483a4.9 4.9 0 00-1.9-2.3 1 1 0 00-1-.1l-.8.4a6.2 6.2 0 00-1.7-1.4 4.6 4.6 0 00-3.7-.7l-2 1.1c.8-.4 2.3-.3 3.8.6a6 6 0 012 2l1.5-.9a5.5 5.5 0 011.9 2.3c.5 1.2.4 1.8 0 2l1.8-1c.4-.2.5-.8.1-2z"/>
        <path d="M863.5 481.8a5.5 5.5 0 011.9 2.3c.6 1.3.2 2-.4 2.2s-6-2.2-7.8-3.3c-.2 0-.4-.3-.6-.4-1-.8-1-.9-.8-2s2.3-1 4.2 0a6 6 0 012 2c0-1 .7-1.2 1.5-.8z" fill="#ec4e4b"/>
      </g>
      <path class="cls-34" d="M844.8 430.9l.9-6a1 1 0 011.2-1l3.2.6h15.4c.5 0 1.9.1 1 1 0 .4-.5 2.5-1 2.6l-18.6 1.6c-1.9 2.6-2.1.9-2.1 1.2z"/>
      <path class="cls-34" d="M867.4 479.5l-1-54s-1 1.7-2.4 1.2c-19.7-8.9-.6 42-1.1 56.6-.1 1.7 0 1.8 1.8 1.8 2.7-.9 1.8.2 2.7-5.2z"/>
      <path class="cls-34" d="M848.4 489.6a304 304 0 003.6-23.5c.7-7 4-27 4.8-33.2.7-6.4-9.8-9.4-11.3-3-3.6 16.4-1.8 61.6.6 61.6.9 0 1 .3 1.4 0a2.7 2.7 0 001-1.9z"/>
      <path d="M858.6 392v-5.7a7.2 7.2 0 00-5.5 2.3v3.4z" fill="#ffcd84"/>
      <path d="M858.6 389.8s0 1.1-5.5 0c-4.4 0-5.5-3.5-5.5-3.5s-1-2.2 0-8c1-4.4 8.8-3.4 8.8-3.4a4.8 4.8 0 014.5 3.5 11.5 11.5 0 01.2 3.4 19 19 0 01-.2 2.3 8.6 8.6 0 01-1.1 3.4z" fill="#ffc58e"/>
      <path d="M845.7 395.6a12.7 12.7 0 013.6-1.8s2.7-1.8 3.6-1.8c-1.3.2 3.6-.9 5.4 0a62.1 62.1 0 016.4 2.7s2.7 2.7 2.7 5.4l.9 8.2c0 1.8-1.8 15.3-1.8 17.1-1 1-15.4-.9-15.4-.9s-6.3 1-5.4-2.7l-1.8-22.6a5.6 5.6 0 011.8-3.6z" fill="#d4f0ff"/>
      <path class="cls-34" d="M856.8 433c-.7 6.2-5 24.3-5.7 31.4-.4 4.7-1.2 17.6-2.7 25.3"/>
      <path d="M845.3 377.2c.9.8 1.9 1 2.6 2 1.3 1.7-.2 4.2.9 4.3s.9-3.3 2.9-2a4.2 4.2 0 011 3.2 11.2 11.2 0 00.8 3.8c.6 1 3.8 2.4 5.4.8a10.3 10.3 0 002.3-3.4 13.3 13.3 0 001-2.8c.8-3.8 0-7.6-1.2-9.1-2.8-3.7-7.5-4-11.1-2.8-2.4.9-3.2-.3-3.7-.4h-.1a4.1 4.1 0 00-.8 6.4z" fill="#b87951"/>
      <path d="M845.3 377.2c.9.8 1.9 1 2.6 2a2.3 2.3 0 01.5 1.5v1.4c0 .8-.2 1.4.4 1.4.3.1.6-.3.9-.9l.2-.5.1-.2a2 2 0 01.6-.7h.2c.2-.2.5 0 1 .2a4.1 4.1 0 011 3.1 11.3 11.3 0 00.8 3.8c.6 1.1 3.8 2.5 5.4.9a12.1 12.1 0 002.2-3.1 2.5 2.5 0 01-3.2 1.2c-2.6-.8-1.2-3.2-2.2-8s-5.8-3.2-7.7-4-2.5-3.4-1.8-4.6h-.1a4.2 4.2 0 00-.9 6.5z" fill="#a96c45"/>
      <path class="cls-40" d="M840 401l-1.3 2.8a4.4 4.4 0 00-1.3-.6c-.8-.2-1.6-1.4-2-1.6-.6-.6-2.2-1-2.2-1.6v-.1c0-.5.4-.5.5-.4-.8-.7-1-.9-1-1.3v-.1c.2-.2.5-.1.6 0-.3-.2-.6-.6-.5-1v-.1c.3-.3.8 0 1.2.2l.1.1a.4.4 0 010-.4c.1-.2.3-.2.5-.2a23.8 23.8 0 013.3 1.7l.4.4a11.5 11.5 0 011.7 2.3z"/>
      <path class="cls-41" d="M837.8 398.7a8.6 8.6 0 01-3.4-1.4.3.3 0 010-.4l.8.5zM836.9 399.6a8.7 8.7 0 01-3.4-1.3.3.3 0 010-.5l.8.5zM837 401.1a8.6 8.6 0 01-3.4-1.3.3.3 0 010-.5l.8.6z"/>
      <path class="cls-42" d="M851.1 400.2c-5.2 2.3-7.4 2.1-10.5 1s-1.9 3-1.9 3a32 32 0 013.8 2c1.5.9.6 0 3.8 0s4.8-1.4 4.8-1.4z"/>
      <path class="cls-40" d="M832.1 411.8l-1.6 2.8a7.3 7.3 0 00-1.7-.6c-1-.2-2-1.5-2.4-1.7-1-.7-3-1.2-3-1.8 0-.5.5-.5.6-.5-1-.7-1.3-.9-1.2-1.4l.1-.1c.2-.3.6-.1.8 0h-.1c-.3-.2-.8-.6-.6-1l.1-.1c.3-.3 1 0 1.4.2 0 0 .2 0 .2.2a.3.3 0 010-.5c.2-.2.3-.2.6-.2a23 23 0 014.2 1.8l.5.4c.9.9 2.1 2.5 2.1 2.5z"/>
      <path class="cls-41" d="M827 409.6a8.7 8.7 0 01-3.4-1.4.3.3 0 010-.5l.8.6zM828.5 409.1a8.7 8.7 0 01-3.3-1.4.3.3 0 010-.4l.8.5zM826.4 410.6a4.7 4.7 0 01-2.2-.5c-1-.7-1.4-1-1.2-1.5h.1s-.3.1.7.7l2.6 1.3z"/>
      <path class="cls-42" d="M853 405c-1.3 5.6-5.6 13.8-11 14.1a17.5 17.5 0 01-5.7-.8 27.9 27.9 0 01-3.9-1.5 25.1 25.1 0 01-2.4-1.2c-.6-.4-.6-2-.3-2.3a3.6 3.6 0 011.6-1.9 1.4 1.4 0 011.5-.2s3.3 2 5.4 2c2.8 0 3.6-1 4.2-3.7 1.1-4.2.9-11.3.9-11.3a3.5 3.5 0 01.2-1.4c.7-1.5 2.6-2 4.7-.6a11.2 11.2 0 014.5 5.2 7 7 0 01.2 3.6z"/>
      <g class="cls-21">
        <path class="cls-43" d="M1166 441.3l-3.2 1.9 4.5 2.5-.1 50.1 3.1-1.9.2-50-4.5-2.6z"/>
        <path class="cls-44" d="M1167.3 445.7l-.1 50.1-4.5-2.6.1-50 4.5 2.5z"/>
      </g>
      <g class="cls-21">
        <path class="cls-43" d="M1085.6 403l-3.2 1.9 4.4 2.6v55.2l3.1-1.8.2-55.2-4.5-2.6z"/>
        <path class="cls-44" d="M1086.8 407.5v55.2l-4.6-2.6.2-55.3 4.4 2.7z"/>
      </g>
      <g class="cls-21">
        <path class="cls-43" d="M1119 467.5l-3.1 1.9 4.4 2.6-.1 50 3.2-1.9.1-50-4.5-2.6z"/>
        <path class="cls-44" d="M1120.3 472l-.1 50-4.5-2.6.2-50 4.4 2.6z"/>
      </g>
      <g class="cls-21">
        <path class="cls-43" d="M1029.6 416.6l-3.2 1.8 4.4 2.6v55.2l3.1-1.8.2-55.3-4.5-2.5z"/>
        <path class="cls-44" d="M1030.8 421v55.2l-4.6-2.5.2-55.3 4.4 2.6z"/>
      </g>
      <path class="cls-45" d="M1051.3 494.2l-1.6-.9 2.2-1.2a2.3 2.3 0 011.8.3 4.6 4.6 0 012.5 3.7 1.2 1.2 0 01-.4 1l-.1.2h-.2l-1.8 1-.3-1.3a6 6 0 01-2.2-2.8z"/>
      <path class="cls-46" d="M1049 494.5a5.1 5.1 0 002.6 3.7c1.5.7 2.5.3 2.5-1a4.8 4.8 0 00-2.5-3.6c-1.4-.8-2.5-.4-2.5.9z"/>
      <path class="cls-45" d="M1050.3 495.1a2.7 2.7 0 001.3 2c.7.4 1.4.2 1.4-.5a2.7 2.7 0 00-1.4-2c-.7-.4-1.3-.1-1.3.5zM1059.5 522h3.5v4.6h-3.5zM1087.4 497.4l1.6-.7-2-1.4a2 2 0 00-1.9 0c-1.5.7-2.9 2.2-3 3.4a1.4 1.4 0 00.4 1.2v.1h.3l1.6 1.3.4-1.4a5.2 5.2 0 002.6-2.5z"/>
      <path class="cls-46" d="M1089.6 498a5 5 0 01-3 3.3c-1.6.6-2.7 0-2.5-1.3a5 5 0 013-3.4c1.6-.5 2.6 0 2.5 1.3z"/>
      <path class="cls-45" d="M1088.3 498.4a2.5 2.5 0 01-1.6 1.8c-.8.3-1.5 0-1.4-.7a2.5 2.5 0 011.6-1.8c1-.3 1.5 0 1.4.7z"/>
      <path d="M1060.7 500.8l-25.6 5.5a6.8 6.8 0 00.7 2.2l26-4-2.8 16.1 4 .4 5.5-16 24.3 8.3a19.9 19.9 0 001.9-2l-23.1-9.5 18-7.8-1.3-.8a8 8 0 00-1.6-.7l-20 6.8-13.4-9.4-3.6 1z" fill="url(#linear-gradient-2)"/>
      <path class="cls-45" d="M1087.5 514.6l-1.5-.9 2.1-1.2a2.3 2.3 0 011.8.3 4.6 4.6 0 012.6 3.7 1.4 1.4 0 01-.5 1.1l-2 1.1-.3-1.4a5.2 5.2 0 01-2.2-2.7z"/>
      <path class="cls-46" d="M1085.2 514.9a5.1 5.1 0 002.6 3.7c1.4.7 2.5.3 2.5-1a5.1 5.1 0 00-2.5-3.7c-1.4-.7-2.6-.3-2.6 1z"/>
      <path class="cls-45" d="M1086.4 515.5a2.7 2.7 0 001.4 2c.8.4 1.3.2 1.3-.5a2.7 2.7 0 00-1.3-2c-.8-.4-1.4-.2-1.4.5zM1040.6 510.3l1.6-.7-2-1.4a2 2 0 00-1.9.1c-1.5.6-2.9 2-3 3.3a1.4 1.4 0 00.4 1.2l2 1.4.3-1.4a6.2 6.2 0 002.6-2.5z"/>
      <path class="cls-46" d="M1042.7 510.8a5 5 0 01-3 3.3c-1.6.6-2.6 0-2.5-1.3a5 5 0 013-3.3c1.6-.6 2.6 0 2.5 1.3z"/>
      <path class="cls-45" d="M1041.5 511.3a2.5 2.5 0 01-1.6 1.8c-.8.4-1.5 0-1.4-.6a2.5 2.5 0 011.6-1.8c.9-.4 1.5-.1 1.4.6z"/>
      <path class="cls-48" d="M1059 520.5v2.6l4 .4v-2.6l-4-.4z"/>
      <path fill="url(#linear-gradient-3)" d="M1068.5 504.9v3.9l-5.4 14.7v-2.6l5.4-16z"/>
      <path fill="url(#linear-gradient-4)" d="M1093 513.2v2.6l-24.5-7v-4l24.4 8.4z"/>
      <path class="cls-48" d="M1094.8 511.3v2.6l-1.9 2v-2.7l1.9-2z"/>
      <path fill="url(#linear-gradient-5)" d="M1089.7 494v2.5l-14.1 6.8-4-1.6 18.1-7.8z"/>
      <path fill="url(#linear-gradient-6)" d="M1035.8 508.4v2.6l25.2-2.7.7-4-25.9 4.1z"/>
      <path class="cls-48" d="M1035 506.2v2.7a8.1 8.1 0 00.8 2.1v-2.6z"/>
      <path fill="url(#linear-gradient-7)" d="M1049.8 490.8v2.6l8 8 2.9-.6-10.9-10z"/>
      <path d="M1070.5 473.8v28a2.1 2.1 0 01-1.3 1.7 7.3 7.3 0 01-6.1 0c-.8-.4-1.3-1-1.3-1.6v-28.2h8.7z" fill="url(#linear-gradient-8)"/>
      <path d="M1037.3 481.6a16.8 16.8 0 002.8 2.1l2.5 1.4a42.1 42.1 0 0019.3 4.6 39.4 39.4 0 008.7-1 28.6 28.6 0 007.2-2.5l.3-.1 1.3-.7.2-.2 14.1-10.7c1.4-.8 2.1-1.9 2-2.9a9.3 9.3 0 00-1.6-5.5l-.1-.2-1.5 2-17.1-8.8a16 16 0 00-12.6-.6l-20.4 7.3-.6.3-1.3.7a21.5 21.5 0 00-3 1.8 13.9 13.9 0 00-1.2 1.1c-.1-1.2-.4-2.1-.7-1.6a17.1 17.1 0 00-1.6 5.8c-.7 2.6.5 5.3 3.3 7.8z" fill="url(#linear-gradient-9)"/>
      <path d="M1037.3 476a18 18 0 004.3 3.4l1.7 1a41.2 41.2 0 0018.5 4.4 38.8 38.8 0 008.7-.9 27.9 27.9 0 006.7-2.4l.3-.1 1.2-.7.3-.2 13.6-10.2c1.8-1.1 2.3-2.7 1.5-4.2l-.1-.2a5.9 5.9 0 00-2.4-2l-16.7-8.6a15.7 15.7 0 00-12-.6l-19.7 7-1.5.7-.4.2a14.6 14.6 0 00-3.9 2.7 8.8 8.8 0 00-2 2.6c-1.2 2.8-.5 5.5 2 8.2z" fill="url(#linear-gradient-10)"/>
      <path class="cls-45" d="M1039.5 479.1s1.4 3.5 3.2 4.4a22.3 22.3 0 003 1.2l1.6-1s-1-.6-1-1.3l-2-1z"/>
      <path class="cls-46" d="M1045.7 484.8l1.6-1s-1-.6-1-1.3l-2.6-1.3a5 5 0 002 3.6z"/>
      <g class="cls-21">
        <path fill="#7e7e7e" d="M1119.3 472l-93.5-54-.1 2.2 93.6 54 53.5-31V441l-53.5 31z"/>
        <path fill="#ededed" d="M1172.8 441l-53.5 31-93.5-54 53.5-31 93.5 54z"/>
      </g>
      <path d="M1072.6 472.9l-3.5-26.7c-.1-3.3-3.5-7.6-7.5-9.7l-19-10c-2.5-1.2-4.7-1.4-6-.6l-4 2 2 3.6-3 20V453.4c0 10.1 9.2 21.1 20.6 27.1a30.4 30.4 0 0010.3 3.4l1.7 1.6 4.3-2.4c2.6-1.3 4.3-4 4.3-8.2z" fill="url(#linear-gradient-11)"/>
      <path d="M1068 475.3l-3.4-26.7c-.2-3.3-3.2-8-7.5-9.7a77 77 0 01-19-10c-3.3-2.8-7.4-1.2-7.5 2L1027 454c-1.3 7.6 5.5 21 20.5 29 11.3 6 20.6 4.3 20.6-5.8z" fill="url(#linear-gradient-12)"/>
      <path d="M1065.4 476l-3.2-25c-.2-3-3-7.4-7-9a71.7 71.7 0 01-17.9-9.3c-3-2.7-6.9-1.1-7 1.8l-3.2 21.5v1.7c0 9.5 8.5 19.8 19.2 25.3s19.2 4.2 19.2-5.2z" fill="url(#linear-gradient-13)"/>
      <path d="M1037.9 414.5l9.4-5.1a1.1 1.1 0 011 0l4.4 2.4h.5v.4a.7.7 0 01-.2.3l-9.6 5.4a1 1 0 01-1 0l-4.7-2.6c-.2 0-.2-.1-.2-.2v-.5h.4z" fill="#a7a9ac"/>
      <path class="cls-63" d="M1037.7 414.3a.3.3 0 000 .6l4.6 2.5a1.1 1.1 0 001 0l9.7-5.3a.3.3 0 000-.7l-4.6-2.5a1.1 1.1 0 00-1.1 0z"/>
      <path fill="url(#linear-gradient-14)" d="M1038.9 413.8l5.1 2.9 8.3-4.5-5.3-3-8.1 4.6z"/>
      <path class="cls-65" d="M1093.5 428.4c1-1.6 2-1.7 3.4-1.9a7.7 7.7 0 003.6-1c3.2-2 3.7-10.2 3.7-10.3s.2-.2.4-.2a.4.4 0 01.3.3c0 .4-.5 8.5-4 10.7a8.2 8.2 0 01-3.9 1.2c-1.2.2-2.1.2-2.9 1.5a10.2 10.2 0 00-.9 3.7c-.1 1.7-.3 3.4-1.5 4.2l-.5-.1.1-.5c1-.6 1.2-2.1 1.4-3.7a8.5 8.5 0 01.8-4z"/>
      <path class="cls-63" d="M1095.2 427.3l3.5-2.3c1.2-.8 1.2-2.2 1.2-4l-6.4-3.7s.6 3.4-.5 4l-3.6 1.9v.5z"/>
      <path class="cls-65" d="M1095.2 426.7l3-1.9c1.1-.9 1.3-2.1 1.3-4l-6-4s.5 3.5-.5 4.1l-3.7 2.2z"/>
      <path d="M1079.3 407a2 2 0 001 1.5l33.8 21c.4.4.9.2.9-.3v-21.4a2 2 0 00-1-1.5l-33.7-21c-.5-.3-1-.1-1 .3z" fill="#3eb5ff"/>
      <path class="cls-65" d="M1062.2 429.3l22.5 14 10-6.3v-.5L1072 423l-10 5.7v.6z"/>
      <path fill="#e6e7e8" d="M1062.2 428.7l22.5 14 10-6.2-22.6-14-10 6.2z"/>
      <path class="cls-6" d="M1085.3 432.9l6.9 4.2.9-.5-6.9-4.4-.9.7zM1072.6 433.7l12.5 7.8 6.6-4-12.6-7.9-6.5 4zM1079.6 429.3l4.5 2.8 1-.6-4.6-2.8-.9.6zM1071.1 424l3.6 2.2.9-.6-3.6-2.1-.9.5zM1064 428.4l3.5 2.3 6.6-4.2-3.5-2.2-6.6 4.1zM1075.2 426.5l3.6 2.2 1-.5-3.7-2.2-.9.5zM1068.2 431l3.5 2.1.9-.5-3.5-2.2-1 .6z"/>
      <path class="cls-6" d="M1070.2 431l1.3.9.9-.6-1.3-.8-.9.6zM1072.3 428.4l3.5 2.2 2.5-1.5-3.5-2.2-2.5 1.5z"/>
      <path d="M1090.8 447.3c-.7.5-.7 1.2 0 1.7l9 5.6a2.9 2.9 0 002.7 0l9-5.6c.7-.4.7-1.1 0-1.7l-9-5.6a2.9 2.9 0 00-2.7 0z" fill="#808285"/>
      <path d="M865.9 256.1S889 446.6 898 460c4.5 9 1.6 26.6-.6 35-2.7 4.8-3.4 7.7-6 11.3a96.4 96.4 0 01-14.8 16.4c-7.7 4.3-14.9 9.6-23.9 12.7a89.3 89.3 0 01-44.4.6c-12.3-3.3-18.5-8.8-20.6-10.1a53.8 53.8 0 01-18.6-22.8c-8.2-21-2.8-24-3.7-30.4 8.4-48.5 69.6-216.5 69.6-216.5" style="isolation:isolate" opacity=".1" fill="url(#linear-gradient-15)"/>
      <path d="M828.2 251.4c1 1.4 5.1 5.8 22.8 6.6 16.2 0 21.9-5.7 22.8-6.8-5.5 1.3-13.2 2.3-23.8 2.8a135.5 135.5 0 01-21.8-2.6z" fill="#b8b8b8"/>
      <path d="M877 234c-3-8-27-8-27-8s-21 0-25 7c-2.5 0-23 12.5 3.2 18.4A135.5 135.5 0 00850 254c10.6-.5 18.3-1.5 23.8-2.8 25.9-6 4-18 3.2-17.2z" fill="#8c8c8c"/>
      <path d="M1196.4 507.8a26.4 26.4 0 01-24-.1c-2.9-1.7-4.5-3.8-5-5.9v29.7s.8 11.5 16.3 11.5 17.2-10.5 17.2-10.5v-29.7a9.3 9.3 0 01-4.5 5z" fill="#bac2cc"/>
      <path d="M1172.4 507.7c6.7 3.9 17.4 4 24 .1a9.3 9.3 0 004.5-5c1-3-.7-6.4-4.9-8.8-6.7-4-17.5-4-24-.2-3.8 2.2-5.3 5.2-4.6 8 .5 2.2 2.1 4.2 5 5.9z" fill="#666768"/>
    </g>
  </g>
</svg>
